G75*
G70*
%OFA0B0*%
%FSLAX24Y24*%
%IPPOS*%
%LPD*%
%AMOC8*
5,1,8,0,0,1.08239X$1,22.5*
%
%ADD10C,0.0000*%
%ADD11C,0.0030*%
%ADD12C,0.0120*%
%ADD13R,0.0130X0.0010*%
%ADD14R,0.0260X0.0010*%
%ADD15R,0.0330X0.0010*%
%ADD16R,0.0390X0.0010*%
%ADD17R,0.0450X0.0010*%
%ADD18R,0.0490X0.0010*%
%ADD19R,0.0530X0.0010*%
%ADD20R,0.0570X0.0010*%
%ADD21R,0.0610X0.0010*%
%ADD22R,0.0640X0.0010*%
%ADD23R,0.0670X0.0010*%
%ADD24R,0.0690X0.0010*%
%ADD25R,0.0730X0.0010*%
%ADD26R,0.0750X0.0010*%
%ADD27R,0.0770X0.0010*%
%ADD28R,0.0210X0.0010*%
%ADD29R,0.0320X0.0010*%
%ADD30R,0.0290X0.0010*%
%ADD31R,0.0370X0.0010*%
%ADD32R,0.0270X0.0010*%
%ADD33R,0.0420X0.0010*%
%ADD34R,0.0250X0.0010*%
%ADD35R,0.0460X0.0010*%
%ADD36R,0.0240X0.0010*%
%ADD37R,0.0520X0.0010*%
%ADD38R,0.0230X0.0010*%
%ADD39R,0.0550X0.0010*%
%ADD40R,0.0220X0.0010*%
%ADD41R,0.0800X0.0010*%
%ADD42R,0.0200X0.0010*%
%ADD43R,0.0190X0.0010*%
%ADD44R,0.0810X0.0010*%
%ADD45R,0.0280X0.0010*%
%ADD46R,0.0840X0.0010*%
%ADD47R,0.0360X0.0010*%
%ADD48R,0.0860X0.0010*%
%ADD49R,0.0880X0.0010*%
%ADD50R,0.0470X0.0010*%
%ADD51R,0.0350X0.0010*%
%ADD52R,0.0650X0.0010*%
%ADD53R,0.0310X0.0010*%
%ADD54R,0.0660X0.0010*%
%ADD55R,0.0410X0.0010*%
%ADD56R,0.0680X0.0010*%
%ADD57R,0.0700X0.0010*%
%ADD58R,0.0180X0.0010*%
%ADD59R,0.0170X0.0010*%
%ADD60R,0.0140X0.0010*%
%ADD61R,0.0110X0.0010*%
%ADD62R,0.0720X0.0010*%
%ADD63R,0.0090X0.0010*%
%ADD64R,0.0040X0.0010*%
%ADD65R,0.0160X0.0010*%
%ADD66R,0.0100X0.0010*%
%ADD67R,0.0050X0.0010*%
%ADD68R,0.0150X0.0010*%
%ADD69R,0.0120X0.0010*%
%ADD70R,0.0380X0.0010*%
%ADD71R,0.0590X0.0010*%
%ADD72R,0.0890X0.0010*%
%ADD73R,0.0970X0.0010*%
%ADD74R,0.0940X0.0010*%
%ADD75R,0.0740X0.0010*%
%ADD76R,0.0620X0.0010*%
%ADD77R,0.0510X0.0010*%
%ADD78R,0.0400X0.0010*%
%ADD79R,0.0500X0.0010*%
%ADD80R,0.0580X0.0010*%
%ADD81R,0.0760X0.0010*%
%ADD82R,0.0430X0.0010*%
%ADD83R,0.0340X0.0010*%
%ADD84R,0.0080X0.0010*%
%ADD85R,0.0440X0.0010*%
%ADD86R,0.0300X0.0010*%
%ADD87R,0.0980X0.0010*%
%ADD88R,0.1000X0.0010*%
%ADD89R,0.0630X0.0010*%
%ADD90R,0.0600X0.0010*%
%ADD91R,0.0560X0.0010*%
%ADD92R,0.0480X0.0010*%
%ADD93C,0.0050*%
%ADD94C,0.0040*%
%ADD95C,0.0100*%
%ADD96C,0.0060*%
%ADD97C,0.0025*%
%ADD98C,0.0080*%
D10*
X000680Y001930D02*
X000680Y008680D01*
X000682Y008748D01*
X000687Y008815D01*
X000696Y008882D01*
X000709Y008949D01*
X000726Y009014D01*
X000745Y009079D01*
X000769Y009143D01*
X000796Y009205D01*
X000826Y009266D01*
X000859Y009324D01*
X000895Y009381D01*
X000935Y009436D01*
X000977Y009489D01*
X001023Y009540D01*
X001070Y009587D01*
X001121Y009633D01*
X001174Y009675D01*
X001229Y009715D01*
X001286Y009751D01*
X001344Y009784D01*
X001405Y009814D01*
X001467Y009841D01*
X001531Y009865D01*
X001596Y009884D01*
X001661Y009901D01*
X001728Y009914D01*
X001795Y009923D01*
X001862Y009928D01*
X001930Y009930D01*
X008680Y009930D01*
X008748Y009928D01*
X008815Y009923D01*
X008882Y009914D01*
X008949Y009901D01*
X009014Y009884D01*
X009079Y009865D01*
X009143Y009841D01*
X009205Y009814D01*
X009266Y009784D01*
X009324Y009751D01*
X009381Y009715D01*
X009436Y009675D01*
X009489Y009633D01*
X009540Y009587D01*
X009587Y009540D01*
X009633Y009489D01*
X009675Y009436D01*
X009715Y009381D01*
X009751Y009324D01*
X009784Y009266D01*
X009814Y009205D01*
X009841Y009143D01*
X009865Y009079D01*
X009884Y009014D01*
X009901Y008949D01*
X009914Y008882D01*
X009923Y008815D01*
X009928Y008748D01*
X009930Y008680D01*
X009930Y001930D01*
X009928Y001862D01*
X009923Y001795D01*
X009914Y001728D01*
X009901Y001661D01*
X009884Y001596D01*
X009865Y001531D01*
X009841Y001467D01*
X009814Y001405D01*
X009784Y001344D01*
X009751Y001286D01*
X009715Y001229D01*
X009675Y001174D01*
X009633Y001121D01*
X009587Y001070D01*
X009540Y001023D01*
X009489Y000977D01*
X009436Y000935D01*
X009381Y000895D01*
X009324Y000859D01*
X009266Y000826D01*
X009205Y000796D01*
X009143Y000769D01*
X009079Y000745D01*
X009014Y000726D01*
X008949Y000709D01*
X008882Y000696D01*
X008815Y000687D01*
X008748Y000682D01*
X008680Y000680D01*
X001930Y000680D01*
X001862Y000682D01*
X001795Y000687D01*
X001728Y000696D01*
X001661Y000709D01*
X001596Y000726D01*
X001531Y000745D01*
X001467Y000769D01*
X001405Y000796D01*
X001344Y000826D01*
X001286Y000859D01*
X001229Y000895D01*
X001174Y000935D01*
X001121Y000977D01*
X001070Y001023D01*
X001023Y001070D01*
X000977Y001121D01*
X000935Y001174D01*
X000895Y001229D01*
X000859Y001286D01*
X000826Y001344D01*
X000796Y001405D01*
X000769Y001467D01*
X000745Y001531D01*
X000726Y001596D01*
X000709Y001661D01*
X000696Y001728D01*
X000687Y001795D01*
X000682Y001862D01*
X000680Y001930D01*
X001305Y001930D02*
X001307Y001980D01*
X001313Y002029D01*
X001323Y002078D01*
X001336Y002125D01*
X001354Y002172D01*
X001375Y002217D01*
X001399Y002260D01*
X001427Y002301D01*
X001458Y002340D01*
X001492Y002376D01*
X001529Y002410D01*
X001569Y002440D01*
X001610Y002467D01*
X001654Y002491D01*
X001699Y002511D01*
X001746Y002527D01*
X001794Y002540D01*
X001843Y002549D01*
X001893Y002554D01*
X001942Y002555D01*
X001992Y002552D01*
X002041Y002545D01*
X002090Y002534D01*
X002137Y002520D01*
X002183Y002501D01*
X002228Y002479D01*
X002271Y002454D01*
X002311Y002425D01*
X002349Y002393D01*
X002385Y002359D01*
X002418Y002321D01*
X002447Y002281D01*
X002473Y002239D01*
X002496Y002195D01*
X002515Y002149D01*
X002531Y002102D01*
X002543Y002053D01*
X002551Y002004D01*
X002555Y001955D01*
X002555Y001905D01*
X002551Y001856D01*
X002543Y001807D01*
X002531Y001758D01*
X002515Y001711D01*
X002496Y001665D01*
X002473Y001621D01*
X002447Y001579D01*
X002418Y001539D01*
X002385Y001501D01*
X002349Y001467D01*
X002311Y001435D01*
X002271Y001406D01*
X002228Y001381D01*
X002183Y001359D01*
X002137Y001340D01*
X002090Y001326D01*
X002041Y001315D01*
X001992Y001308D01*
X001942Y001305D01*
X001893Y001306D01*
X001843Y001311D01*
X001794Y001320D01*
X001746Y001333D01*
X001699Y001349D01*
X001654Y001369D01*
X001610Y001393D01*
X001569Y001420D01*
X001529Y001450D01*
X001492Y001484D01*
X001458Y001520D01*
X001427Y001559D01*
X001399Y001600D01*
X001375Y001643D01*
X001354Y001688D01*
X001336Y001735D01*
X001323Y001782D01*
X001313Y001831D01*
X001307Y001880D01*
X001305Y001930D01*
X008055Y001930D02*
X008057Y001980D01*
X008063Y002029D01*
X008073Y002078D01*
X008086Y002125D01*
X008104Y002172D01*
X008125Y002217D01*
X008149Y002260D01*
X008177Y002301D01*
X008208Y002340D01*
X008242Y002376D01*
X008279Y002410D01*
X008319Y002440D01*
X008360Y002467D01*
X008404Y002491D01*
X008449Y002511D01*
X008496Y002527D01*
X008544Y002540D01*
X008593Y002549D01*
X008643Y002554D01*
X008692Y002555D01*
X008742Y002552D01*
X008791Y002545D01*
X008840Y002534D01*
X008887Y002520D01*
X008933Y002501D01*
X008978Y002479D01*
X009021Y002454D01*
X009061Y002425D01*
X009099Y002393D01*
X009135Y002359D01*
X009168Y002321D01*
X009197Y002281D01*
X009223Y002239D01*
X009246Y002195D01*
X009265Y002149D01*
X009281Y002102D01*
X009293Y002053D01*
X009301Y002004D01*
X009305Y001955D01*
X009305Y001905D01*
X009301Y001856D01*
X009293Y001807D01*
X009281Y001758D01*
X009265Y001711D01*
X009246Y001665D01*
X009223Y001621D01*
X009197Y001579D01*
X009168Y001539D01*
X009135Y001501D01*
X009099Y001467D01*
X009061Y001435D01*
X009021Y001406D01*
X008978Y001381D01*
X008933Y001359D01*
X008887Y001340D01*
X008840Y001326D01*
X008791Y001315D01*
X008742Y001308D01*
X008692Y001305D01*
X008643Y001306D01*
X008593Y001311D01*
X008544Y001320D01*
X008496Y001333D01*
X008449Y001349D01*
X008404Y001369D01*
X008360Y001393D01*
X008319Y001420D01*
X008279Y001450D01*
X008242Y001484D01*
X008208Y001520D01*
X008177Y001559D01*
X008149Y001600D01*
X008125Y001643D01*
X008104Y001688D01*
X008086Y001735D01*
X008073Y001782D01*
X008063Y001831D01*
X008057Y001880D01*
X008055Y001930D01*
X008055Y008680D02*
X008057Y008730D01*
X008063Y008779D01*
X008073Y008828D01*
X008086Y008875D01*
X008104Y008922D01*
X008125Y008967D01*
X008149Y009010D01*
X008177Y009051D01*
X008208Y009090D01*
X008242Y009126D01*
X008279Y009160D01*
X008319Y009190D01*
X008360Y009217D01*
X008404Y009241D01*
X008449Y009261D01*
X008496Y009277D01*
X008544Y009290D01*
X008593Y009299D01*
X008643Y009304D01*
X008692Y009305D01*
X008742Y009302D01*
X008791Y009295D01*
X008840Y009284D01*
X008887Y009270D01*
X008933Y009251D01*
X008978Y009229D01*
X009021Y009204D01*
X009061Y009175D01*
X009099Y009143D01*
X009135Y009109D01*
X009168Y009071D01*
X009197Y009031D01*
X009223Y008989D01*
X009246Y008945D01*
X009265Y008899D01*
X009281Y008852D01*
X009293Y008803D01*
X009301Y008754D01*
X009305Y008705D01*
X009305Y008655D01*
X009301Y008606D01*
X009293Y008557D01*
X009281Y008508D01*
X009265Y008461D01*
X009246Y008415D01*
X009223Y008371D01*
X009197Y008329D01*
X009168Y008289D01*
X009135Y008251D01*
X009099Y008217D01*
X009061Y008185D01*
X009021Y008156D01*
X008978Y008131D01*
X008933Y008109D01*
X008887Y008090D01*
X008840Y008076D01*
X008791Y008065D01*
X008742Y008058D01*
X008692Y008055D01*
X008643Y008056D01*
X008593Y008061D01*
X008544Y008070D01*
X008496Y008083D01*
X008449Y008099D01*
X008404Y008119D01*
X008360Y008143D01*
X008319Y008170D01*
X008279Y008200D01*
X008242Y008234D01*
X008208Y008270D01*
X008177Y008309D01*
X008149Y008350D01*
X008125Y008393D01*
X008104Y008438D01*
X008086Y008485D01*
X008073Y008532D01*
X008063Y008581D01*
X008057Y008630D01*
X008055Y008680D01*
D11*
X003554Y008065D02*
X003554Y007695D01*
X003430Y007818D01*
X003307Y007695D01*
X003307Y008065D01*
X003185Y008004D02*
X003185Y007757D01*
X003123Y007695D01*
X003000Y007695D01*
X002938Y007757D01*
X002938Y008004D01*
X003000Y008065D01*
X003123Y008065D01*
X003185Y008004D01*
X003062Y007818D02*
X003185Y007695D01*
X002817Y007757D02*
X002755Y007695D01*
X002632Y007695D01*
X002570Y007757D01*
X002632Y007880D02*
X002755Y007880D01*
X002817Y007818D01*
X002817Y007757D01*
X002632Y007880D02*
X002570Y007942D01*
X002570Y008004D01*
X002632Y008065D01*
X002755Y008065D01*
X002817Y008004D01*
X002755Y007065D02*
X002632Y007065D01*
X002570Y007004D01*
X002570Y006942D01*
X002632Y006880D01*
X002755Y006880D01*
X002817Y006818D01*
X002817Y006757D01*
X002755Y006695D01*
X002632Y006695D01*
X002570Y006757D01*
X002817Y007004D02*
X002755Y007065D01*
X002938Y007065D02*
X003123Y007065D01*
X003185Y007004D01*
X003185Y006757D01*
X003123Y006695D01*
X002938Y006695D01*
X002938Y007065D01*
X003307Y006942D02*
X003307Y006695D01*
X003307Y006880D02*
X003554Y006880D01*
X003554Y006942D02*
X003554Y006695D01*
X003554Y006942D02*
X003430Y007065D01*
X003307Y006942D01*
X003307Y005940D02*
X003307Y005570D01*
X003554Y005570D01*
X003185Y005632D02*
X003123Y005570D01*
X003000Y005570D01*
X002938Y005632D01*
X002938Y005879D01*
X003000Y005940D01*
X003123Y005940D01*
X003185Y005879D01*
X002817Y005879D02*
X002755Y005940D01*
X002632Y005940D01*
X002570Y005879D01*
X002570Y005817D01*
X002632Y005755D01*
X002755Y005755D01*
X002817Y005693D01*
X002817Y005632D01*
X002755Y005570D01*
X002632Y005570D01*
X002570Y005632D01*
X002570Y004940D02*
X002570Y004693D01*
X002693Y004570D01*
X002817Y004693D01*
X002817Y004940D01*
X002938Y004879D02*
X002938Y004632D01*
X003000Y004570D01*
X003123Y004570D01*
X003185Y004632D01*
X003307Y004632D02*
X003368Y004570D01*
X003492Y004570D01*
X003554Y004632D01*
X003554Y004879D02*
X003492Y004940D01*
X003368Y004940D01*
X003307Y004879D01*
X003307Y004632D01*
X003185Y004879D02*
X003123Y004940D01*
X003000Y004940D01*
X002938Y004879D01*
X002938Y003940D02*
X003185Y003570D01*
X003185Y003940D01*
X003307Y003940D02*
X003492Y003940D01*
X003554Y003879D01*
X003554Y003632D01*
X003492Y003570D01*
X003307Y003570D01*
X003307Y003940D01*
X002938Y003940D02*
X002938Y003570D01*
X002817Y003632D02*
X002817Y003755D01*
X002693Y003755D01*
X002570Y003632D02*
X002632Y003570D01*
X002755Y003570D01*
X002817Y003632D01*
X002817Y003879D02*
X002755Y003940D01*
X002632Y003940D01*
X002570Y003879D01*
X002570Y003632D01*
D12*
X001930Y002805D02*
X001872Y002803D01*
X001813Y002797D01*
X001756Y002787D01*
X001699Y002774D01*
X001643Y002757D01*
X001588Y002736D01*
X001535Y002711D01*
X001484Y002683D01*
X001435Y002651D01*
X001388Y002617D01*
X001343Y002579D01*
X001301Y002538D01*
X001262Y002495D01*
X001226Y002449D01*
X001192Y002401D01*
X001163Y002351D01*
X001136Y002298D01*
X001113Y002244D01*
X001094Y002189D01*
X001079Y002133D01*
X001067Y002076D01*
X001059Y002018D01*
X001055Y001959D01*
X001055Y001901D01*
X001059Y001842D01*
X001067Y001784D01*
X001079Y001727D01*
X001094Y001671D01*
X001113Y001616D01*
X001136Y001562D01*
X001163Y001509D01*
X001192Y001459D01*
X001226Y001411D01*
X001262Y001365D01*
X001301Y001322D01*
X001343Y001281D01*
X001388Y001243D01*
X001435Y001209D01*
X001484Y001177D01*
X001535Y001149D01*
X001588Y001124D01*
X001643Y001103D01*
X001699Y001086D01*
X001756Y001073D01*
X001813Y001063D01*
X001872Y001057D01*
X001930Y001055D01*
X001988Y001057D01*
X002047Y001063D01*
X002104Y001073D01*
X002161Y001086D01*
X002217Y001103D01*
X002272Y001124D01*
X002325Y001149D01*
X002376Y001177D01*
X002425Y001209D01*
X002472Y001243D01*
X002517Y001281D01*
X002559Y001322D01*
X002598Y001365D01*
X002634Y001411D01*
X002668Y001459D01*
X002697Y001509D01*
X002724Y001562D01*
X002747Y001616D01*
X002766Y001671D01*
X002781Y001727D01*
X002793Y001784D01*
X002801Y001842D01*
X002805Y001901D01*
X002805Y001959D01*
X002801Y002018D01*
X002793Y002076D01*
X002781Y002133D01*
X002766Y002189D01*
X002747Y002244D01*
X002724Y002298D01*
X002697Y002351D01*
X002668Y002401D01*
X002634Y002449D01*
X002598Y002495D01*
X002559Y002538D01*
X002517Y002579D01*
X002472Y002617D01*
X002425Y002651D01*
X002376Y002683D01*
X002325Y002711D01*
X002272Y002736D01*
X002217Y002757D01*
X002161Y002774D01*
X002104Y002787D01*
X002047Y002797D01*
X001988Y002803D01*
X001930Y002805D01*
X008680Y002805D02*
X008622Y002803D01*
X008563Y002797D01*
X008506Y002787D01*
X008449Y002774D01*
X008393Y002757D01*
X008338Y002736D01*
X008285Y002711D01*
X008234Y002683D01*
X008185Y002651D01*
X008138Y002617D01*
X008093Y002579D01*
X008051Y002538D01*
X008012Y002495D01*
X007976Y002449D01*
X007942Y002401D01*
X007913Y002351D01*
X007886Y002298D01*
X007863Y002244D01*
X007844Y002189D01*
X007829Y002133D01*
X007817Y002076D01*
X007809Y002018D01*
X007805Y001959D01*
X007805Y001901D01*
X007809Y001842D01*
X007817Y001784D01*
X007829Y001727D01*
X007844Y001671D01*
X007863Y001616D01*
X007886Y001562D01*
X007913Y001509D01*
X007942Y001459D01*
X007976Y001411D01*
X008012Y001365D01*
X008051Y001322D01*
X008093Y001281D01*
X008138Y001243D01*
X008185Y001209D01*
X008234Y001177D01*
X008285Y001149D01*
X008338Y001124D01*
X008393Y001103D01*
X008449Y001086D01*
X008506Y001073D01*
X008563Y001063D01*
X008622Y001057D01*
X008680Y001055D01*
X008738Y001057D01*
X008797Y001063D01*
X008854Y001073D01*
X008911Y001086D01*
X008967Y001103D01*
X009022Y001124D01*
X009075Y001149D01*
X009126Y001177D01*
X009175Y001209D01*
X009222Y001243D01*
X009267Y001281D01*
X009309Y001322D01*
X009348Y001365D01*
X009384Y001411D01*
X009418Y001459D01*
X009447Y001509D01*
X009474Y001562D01*
X009497Y001616D01*
X009516Y001671D01*
X009531Y001727D01*
X009543Y001784D01*
X009551Y001842D01*
X009555Y001901D01*
X009555Y001959D01*
X009551Y002018D01*
X009543Y002076D01*
X009531Y002133D01*
X009516Y002189D01*
X009497Y002244D01*
X009474Y002298D01*
X009447Y002351D01*
X009418Y002401D01*
X009384Y002449D01*
X009348Y002495D01*
X009309Y002538D01*
X009267Y002579D01*
X009222Y002617D01*
X009175Y002651D01*
X009126Y002683D01*
X009075Y002711D01*
X009022Y002736D01*
X008967Y002757D01*
X008911Y002774D01*
X008854Y002787D01*
X008797Y002797D01*
X008738Y002803D01*
X008680Y002805D01*
X008680Y007805D02*
X008622Y007807D01*
X008563Y007813D01*
X008506Y007823D01*
X008449Y007836D01*
X008393Y007853D01*
X008338Y007874D01*
X008285Y007899D01*
X008234Y007927D01*
X008185Y007959D01*
X008138Y007993D01*
X008093Y008031D01*
X008051Y008072D01*
X008012Y008115D01*
X007976Y008161D01*
X007942Y008209D01*
X007913Y008259D01*
X007886Y008312D01*
X007863Y008366D01*
X007844Y008421D01*
X007829Y008477D01*
X007817Y008534D01*
X007809Y008592D01*
X007805Y008651D01*
X007805Y008709D01*
X007809Y008768D01*
X007817Y008826D01*
X007829Y008883D01*
X007844Y008939D01*
X007863Y008994D01*
X007886Y009048D01*
X007913Y009101D01*
X007942Y009151D01*
X007976Y009199D01*
X008012Y009245D01*
X008051Y009288D01*
X008093Y009329D01*
X008138Y009367D01*
X008185Y009401D01*
X008234Y009433D01*
X008285Y009461D01*
X008338Y009486D01*
X008393Y009507D01*
X008449Y009524D01*
X008506Y009537D01*
X008563Y009547D01*
X008622Y009553D01*
X008680Y009555D01*
X008738Y009553D01*
X008797Y009547D01*
X008854Y009537D01*
X008911Y009524D01*
X008967Y009507D01*
X009022Y009486D01*
X009075Y009461D01*
X009126Y009433D01*
X009175Y009401D01*
X009222Y009367D01*
X009267Y009329D01*
X009309Y009288D01*
X009348Y009245D01*
X009384Y009199D01*
X009418Y009151D01*
X009447Y009101D01*
X009474Y009048D01*
X009497Y008994D01*
X009516Y008939D01*
X009531Y008883D01*
X009543Y008826D01*
X009551Y008768D01*
X009555Y008709D01*
X009555Y008651D01*
X009551Y008592D01*
X009543Y008534D01*
X009531Y008477D01*
X009516Y008421D01*
X009497Y008366D01*
X009474Y008312D01*
X009447Y008259D01*
X009418Y008209D01*
X009384Y008161D01*
X009348Y008115D01*
X009309Y008072D01*
X009267Y008031D01*
X009222Y007993D01*
X009175Y007959D01*
X009126Y007927D01*
X009075Y007899D01*
X009022Y007874D01*
X008967Y007853D01*
X008911Y007836D01*
X008854Y007823D01*
X008797Y007813D01*
X008738Y007807D01*
X008680Y007805D01*
D13*
X005050Y002985D03*
X005070Y002955D03*
X005080Y002945D03*
X005090Y002935D03*
X005100Y002925D03*
X005110Y002915D03*
X005120Y002905D03*
X005150Y002865D03*
X005160Y002855D03*
X005170Y002845D03*
X005180Y002835D03*
X005190Y002825D03*
X005200Y002815D03*
X005220Y002785D03*
X005230Y002775D03*
X005240Y002765D03*
X005250Y002755D03*
X005260Y002745D03*
X005270Y002735D03*
X005300Y002695D03*
X005310Y002685D03*
X005320Y002675D03*
X005330Y002665D03*
X005340Y002655D03*
X005370Y002615D03*
X005380Y002605D03*
X005390Y002595D03*
X005400Y002585D03*
X005410Y002575D03*
X005420Y002565D03*
X005030Y002125D03*
X005100Y002025D03*
X005120Y001995D03*
X005210Y001865D03*
X005230Y001835D03*
X005300Y001735D03*
X005320Y001705D03*
X004790Y001455D03*
X005270Y001035D03*
D14*
X005275Y001045D03*
X005575Y001215D03*
X005345Y001565D03*
X006295Y001345D03*
X006385Y002825D03*
X005925Y003375D03*
X005025Y003085D03*
X005015Y003095D03*
X005005Y003105D03*
X004995Y003115D03*
X004985Y003125D03*
X004865Y003585D03*
X004255Y001445D03*
D15*
X005040Y001185D03*
X005270Y001055D03*
X006330Y002845D03*
X006240Y002915D03*
X005850Y003405D03*
X004860Y003575D03*
D16*
X004860Y003565D03*
X004600Y003385D03*
X004230Y003095D03*
X005290Y003385D03*
X005650Y001345D03*
X005270Y001065D03*
D17*
X005270Y001075D03*
X004130Y003005D03*
X004190Y003055D03*
X004860Y003555D03*
D18*
X005290Y002505D03*
X005170Y002185D03*
X005270Y001085D03*
D19*
X005270Y001095D03*
X004860Y003535D03*
D20*
X004860Y003525D03*
X005260Y002495D03*
X005270Y001105D03*
D21*
X005270Y001115D03*
X004860Y003515D03*
D22*
X004865Y003505D03*
X004635Y001315D03*
X005275Y001125D03*
D23*
X005270Y001135D03*
X004590Y001345D03*
X004650Y002395D03*
X004860Y003495D03*
D24*
X005270Y001145D03*
D25*
X005270Y001155D03*
X004520Y001415D03*
X005190Y002475D03*
X004860Y003475D03*
D26*
X004860Y003465D03*
X004970Y002445D03*
X005120Y002465D03*
X004680Y002405D03*
X005270Y001165D03*
D27*
X005270Y001175D03*
X004860Y003455D03*
D28*
X004850Y003255D03*
X004860Y003245D03*
X004870Y003235D03*
X004490Y003365D03*
X004480Y003355D03*
X003930Y002925D03*
X003920Y002915D03*
X003910Y002905D03*
X004040Y002085D03*
X005270Y003335D03*
X005990Y003325D03*
X006000Y003315D03*
X006010Y003305D03*
X006390Y001415D03*
X006380Y001405D03*
X006370Y001395D03*
X006000Y001175D03*
D29*
X005505Y001185D03*
X004515Y002355D03*
X004045Y002995D03*
X004595Y003415D03*
X004625Y003445D03*
X005105Y003445D03*
X005625Y003535D03*
X005355Y002525D03*
D30*
X005120Y002995D03*
X005110Y003005D03*
X005100Y003015D03*
X005090Y003025D03*
X005080Y003035D03*
X004600Y003435D03*
X004290Y003135D03*
X004020Y002985D03*
X005010Y001195D03*
X005530Y001195D03*
X006000Y001185D03*
X005950Y002325D03*
X006220Y002935D03*
D31*
X006280Y002875D03*
X006290Y002865D03*
X006300Y002855D03*
X005630Y001355D03*
X006010Y001195D03*
X004240Y003105D03*
D32*
X004000Y002975D03*
X005040Y003075D03*
X005050Y003065D03*
X006210Y002945D03*
X005320Y001595D03*
X005330Y001585D03*
X005340Y001575D03*
X005560Y001205D03*
X004990Y001205D03*
D33*
X004545Y001305D03*
X005695Y001325D03*
X006005Y001205D03*
X004215Y003075D03*
D34*
X003980Y002965D03*
X003990Y002145D03*
X004000Y002135D03*
X004240Y001455D03*
X004970Y001215D03*
X005360Y001555D03*
X005370Y001545D03*
X005590Y001225D03*
X005390Y002535D03*
X004970Y003135D03*
X004960Y003145D03*
X005940Y003365D03*
X006200Y002955D03*
X006400Y002815D03*
D35*
X006005Y001215D03*
D36*
X006315Y001355D03*
X005395Y001515D03*
X005385Y001525D03*
X005375Y001535D03*
X004955Y001225D03*
X004755Y001425D03*
X004025Y002105D03*
X004015Y002115D03*
X004005Y002125D03*
X003975Y002155D03*
X004485Y002345D03*
X003965Y002955D03*
X004945Y003165D03*
X004955Y003155D03*
X005275Y003345D03*
X006415Y002805D03*
D37*
X005625Y003495D03*
X006005Y001225D03*
D38*
X006330Y001365D03*
X005600Y001235D03*
X005430Y001475D03*
X005420Y001485D03*
X005410Y001495D03*
X005400Y001505D03*
X004940Y001235D03*
X004220Y001465D03*
X004210Y001475D03*
X004030Y002095D03*
X003960Y002165D03*
X003950Y002175D03*
X003960Y002945D03*
X004320Y003145D03*
X004900Y003205D03*
X004910Y003195D03*
X004920Y003185D03*
X004930Y003175D03*
X005620Y003545D03*
X005950Y003355D03*
X006430Y002795D03*
D39*
X006010Y001235D03*
D40*
X006345Y001375D03*
X006355Y001385D03*
X005455Y001445D03*
X005445Y001455D03*
X005435Y001465D03*
X004925Y001245D03*
X004915Y001255D03*
X004195Y001485D03*
X004185Y001495D03*
X003935Y002185D03*
X003945Y002935D03*
X004505Y003375D03*
X004875Y003225D03*
X004885Y003215D03*
X005965Y003345D03*
X005975Y003335D03*
X006185Y002965D03*
X006445Y002785D03*
X006455Y002775D03*
D41*
X005305Y002215D03*
X005915Y001255D03*
X005905Y001245D03*
X005935Y001265D03*
D42*
X005485Y001415D03*
X005475Y001425D03*
X005465Y001435D03*
X004905Y001265D03*
X004895Y001275D03*
X004885Y001285D03*
X004175Y001505D03*
X004165Y001515D03*
X004155Y001525D03*
X004045Y002075D03*
X003925Y002195D03*
X003915Y002205D03*
X003905Y002215D03*
X003895Y002225D03*
X004835Y003265D03*
X004825Y003275D03*
X004815Y003285D03*
X004805Y003295D03*
X004475Y003345D03*
X004465Y003335D03*
X004455Y003325D03*
X006465Y002765D03*
X006475Y002755D03*
X006485Y002745D03*
X006495Y002735D03*
D43*
X006500Y002725D03*
X006510Y002715D03*
X006520Y002705D03*
X006170Y002975D03*
X006030Y003285D03*
X006020Y003295D03*
X005270Y003325D03*
X004790Y003305D03*
X004780Y003315D03*
X004450Y003315D03*
X004440Y003305D03*
X003900Y002895D03*
X003890Y002885D03*
X003880Y002875D03*
X003880Y002245D03*
X003890Y002235D03*
X004050Y002065D03*
X004130Y001555D03*
X004140Y001545D03*
X004150Y001535D03*
X004540Y001275D03*
X004770Y001435D03*
X004870Y001305D03*
X004880Y001295D03*
X005490Y001405D03*
X005500Y001395D03*
X005510Y001385D03*
X006400Y001425D03*
X006410Y001435D03*
X006420Y001445D03*
X006430Y001465D03*
X006480Y002045D03*
X006490Y002065D03*
X006500Y002075D03*
X006510Y002085D03*
X005990Y002335D03*
D44*
X005940Y001275D03*
D45*
X006285Y001335D03*
X005315Y001605D03*
X005085Y002165D03*
X004275Y001435D03*
X004545Y001285D03*
X005065Y003045D03*
X005055Y003055D03*
X005275Y003355D03*
X005905Y003385D03*
X006365Y002835D03*
D46*
X005735Y002275D03*
X005945Y001285D03*
D47*
X004545Y001295D03*
X006255Y002895D03*
X006265Y002885D03*
X004595Y003395D03*
D48*
X005945Y001295D03*
D49*
X005945Y001305D03*
D50*
X005730Y001315D03*
X004150Y003015D03*
X004160Y003025D03*
X004170Y003035D03*
X004180Y003045D03*
D51*
X006250Y002905D03*
X006230Y001315D03*
D52*
X004620Y001325D03*
D53*
X004300Y001425D03*
X004270Y003125D03*
X005280Y003365D03*
X006230Y002925D03*
X006260Y001325D03*
D54*
X005225Y002485D03*
X005625Y003455D03*
X004605Y001335D03*
D55*
X004550Y002365D03*
X004220Y003085D03*
X005320Y002515D03*
X005670Y001335D03*
D56*
X004575Y001355D03*
D57*
X004565Y001365D03*
X004555Y001375D03*
X004545Y001385D03*
X005265Y002205D03*
X005625Y003445D03*
X004865Y003485D03*
D58*
X004765Y003335D03*
X004775Y003325D03*
X004435Y003295D03*
X004425Y003285D03*
X003875Y002865D03*
X003865Y002855D03*
X003855Y002835D03*
X003845Y002825D03*
X003855Y002275D03*
X003865Y002265D03*
X003875Y002255D03*
X004115Y001575D03*
X004125Y001565D03*
X005035Y002155D03*
X005515Y001375D03*
X005525Y001365D03*
X006425Y001455D03*
X006435Y001475D03*
X006445Y001485D03*
X006475Y002035D03*
X006485Y002055D03*
X006515Y002095D03*
X006525Y002105D03*
X006525Y002115D03*
X006535Y002125D03*
X006545Y002665D03*
X006535Y002685D03*
X006525Y002695D03*
X006065Y003235D03*
X006055Y003245D03*
X006045Y003265D03*
X006035Y003275D03*
D59*
X006050Y003255D03*
X006070Y003225D03*
X006080Y003215D03*
X006080Y003205D03*
X006090Y003195D03*
X006540Y002675D03*
X006550Y002655D03*
X006560Y002645D03*
X006570Y002625D03*
X006570Y002185D03*
X006560Y002165D03*
X006550Y002145D03*
X006540Y002135D03*
X006470Y002025D03*
X006490Y001955D03*
X006480Y001545D03*
X006470Y001525D03*
X006460Y001505D03*
X006450Y001495D03*
X005720Y001365D03*
X004110Y001585D03*
X004100Y001595D03*
X004100Y001605D03*
X004090Y001615D03*
X004080Y001635D03*
X004070Y001655D03*
X004060Y002055D03*
X003850Y002285D03*
X003840Y002295D03*
X003840Y002305D03*
X003830Y002315D03*
X003830Y002325D03*
X003820Y002775D03*
X003830Y002795D03*
X003830Y002805D03*
X003840Y002815D03*
X003860Y002845D03*
X004380Y003205D03*
X004390Y003225D03*
X004400Y003245D03*
X004410Y003255D03*
X004410Y003265D03*
X004420Y003275D03*
X004720Y003375D03*
X004730Y003365D03*
X004740Y003355D03*
X004750Y003345D03*
X005270Y003315D03*
D60*
X005265Y003305D03*
X005055Y002975D03*
X005065Y002965D03*
X005125Y002895D03*
X005135Y002885D03*
X005145Y002875D03*
X005205Y002805D03*
X005215Y002795D03*
X005275Y002725D03*
X005285Y002715D03*
X005295Y002705D03*
X005345Y002645D03*
X005355Y002635D03*
X005365Y002625D03*
X005425Y002555D03*
X004835Y001985D03*
X004825Y001995D03*
X004715Y002095D03*
X004705Y002105D03*
X004605Y002195D03*
X004595Y002205D03*
X004585Y002215D03*
X004475Y002315D03*
X004465Y002325D03*
X004945Y001885D03*
X004955Y001875D03*
X005065Y001775D03*
X005075Y001765D03*
X005185Y001665D03*
X005195Y001655D03*
X005715Y001375D03*
X006525Y001695D03*
X006525Y001705D03*
X006525Y001825D03*
X006615Y002325D03*
X004025Y001905D03*
X004025Y001895D03*
X004025Y001885D03*
X004025Y001875D03*
X004025Y001835D03*
X004025Y001825D03*
X003775Y002625D03*
D61*
X005710Y001385D03*
D62*
X004535Y001395D03*
X004525Y001405D03*
D63*
X005710Y001395D03*
D64*
X005705Y001405D03*
D65*
X006465Y001515D03*
X006475Y001535D03*
X006485Y001555D03*
X006485Y001565D03*
X006495Y001575D03*
X006495Y001585D03*
X006505Y001605D03*
X006505Y001615D03*
X006515Y001645D03*
X006515Y001875D03*
X006505Y001915D03*
X006495Y001935D03*
X006495Y001945D03*
X006485Y001965D03*
X006485Y001975D03*
X006475Y001985D03*
X006475Y001995D03*
X006465Y002005D03*
X006465Y002015D03*
X006555Y002155D03*
X006565Y002175D03*
X006575Y002195D03*
X006575Y002205D03*
X006585Y002215D03*
X006585Y002225D03*
X006595Y002235D03*
X006595Y002245D03*
X006605Y002275D03*
X006595Y002555D03*
X006595Y002565D03*
X006585Y002585D03*
X006585Y002595D03*
X006575Y002605D03*
X006575Y002615D03*
X006565Y002635D03*
X006125Y003105D03*
X006115Y003125D03*
X006115Y003135D03*
X006105Y003155D03*
X006105Y003165D03*
X006095Y003175D03*
X006095Y003185D03*
X005585Y002675D03*
X005575Y002685D03*
X005595Y002665D03*
X005605Y002655D03*
X005625Y002645D03*
X005635Y002635D03*
X005645Y002625D03*
X005655Y002615D03*
X005675Y002605D03*
X005685Y002595D03*
X005695Y002585D03*
X005705Y002575D03*
X005735Y002555D03*
X005745Y002545D03*
X005755Y002535D03*
X005765Y002525D03*
X005785Y002515D03*
X005795Y002505D03*
X005805Y002495D03*
X005815Y002485D03*
X005845Y002465D03*
X005855Y002455D03*
X005865Y002445D03*
X005895Y002425D03*
X005905Y002415D03*
X005915Y002405D03*
X005925Y002395D03*
X005945Y002385D03*
X005955Y002375D03*
X005965Y002365D03*
X005975Y002355D03*
X005545Y002705D03*
X005535Y002715D03*
X005525Y002725D03*
X005515Y002735D03*
X005495Y002745D03*
X005485Y002755D03*
X005475Y002765D03*
X005465Y002775D03*
X005445Y002785D03*
X005435Y002795D03*
X005425Y002805D03*
X005415Y002815D03*
X005385Y002835D03*
X005375Y002845D03*
X005365Y002855D03*
X005355Y002865D03*
X005335Y002875D03*
X005325Y002885D03*
X005315Y002895D03*
X005305Y002905D03*
X005285Y002915D03*
X005275Y002925D03*
X005265Y002935D03*
X005255Y002945D03*
X005235Y002955D03*
X005225Y002965D03*
X005215Y002975D03*
X005205Y002985D03*
X005425Y002545D03*
X004455Y002335D03*
X004055Y002045D03*
X004055Y002035D03*
X004045Y002015D03*
X004045Y002005D03*
X004035Y001765D03*
X004045Y001725D03*
X004055Y001695D03*
X004055Y001685D03*
X004065Y001675D03*
X004065Y001665D03*
X004075Y001645D03*
X004085Y001625D03*
X004785Y001445D03*
X003825Y002335D03*
X003815Y002345D03*
X003815Y002355D03*
X003805Y002365D03*
X003805Y002375D03*
X003795Y002395D03*
X003795Y002405D03*
X003785Y002435D03*
X003795Y002715D03*
X003795Y002725D03*
X003805Y002735D03*
X003805Y002745D03*
X003815Y002765D03*
X003825Y002785D03*
X004365Y003165D03*
X004375Y003185D03*
X004375Y003195D03*
X004385Y003215D03*
X004395Y003235D03*
D66*
X005265Y003285D03*
X004795Y001465D03*
D67*
X004800Y001475D03*
D68*
X005050Y001785D03*
X005040Y001795D03*
X005030Y001805D03*
X005020Y001815D03*
X005010Y001825D03*
X005000Y001835D03*
X004990Y001845D03*
X004980Y001855D03*
X004970Y001865D03*
X004930Y001895D03*
X004920Y001905D03*
X004910Y001915D03*
X004900Y001925D03*
X004890Y001935D03*
X004880Y001945D03*
X004870Y001955D03*
X004860Y001965D03*
X004850Y001975D03*
X004810Y002005D03*
X004800Y002015D03*
X004790Y002025D03*
X004780Y002035D03*
X004770Y002045D03*
X004760Y002055D03*
X004750Y002065D03*
X004740Y002075D03*
X004730Y002085D03*
X004690Y002115D03*
X004680Y002125D03*
X004670Y002135D03*
X004660Y002145D03*
X004650Y002155D03*
X004640Y002165D03*
X004630Y002175D03*
X004620Y002185D03*
X004570Y002225D03*
X004560Y002235D03*
X004550Y002245D03*
X004540Y002255D03*
X004530Y002265D03*
X004520Y002275D03*
X004510Y002285D03*
X004500Y002295D03*
X004490Y002305D03*
X004050Y002025D03*
X004040Y001995D03*
X004040Y001985D03*
X004040Y001975D03*
X004030Y001965D03*
X004030Y001955D03*
X004030Y001945D03*
X004030Y001935D03*
X004030Y001925D03*
X004030Y001915D03*
X004020Y001865D03*
X004020Y001855D03*
X004020Y001845D03*
X004030Y001815D03*
X004030Y001805D03*
X004030Y001795D03*
X004030Y001785D03*
X004030Y001775D03*
X004040Y001755D03*
X004040Y001745D03*
X004040Y001735D03*
X004050Y001715D03*
X004050Y001705D03*
X003800Y002385D03*
X003790Y002415D03*
X003790Y002425D03*
X003780Y002445D03*
X003780Y002455D03*
X003780Y002465D03*
X003780Y002475D03*
X003780Y002485D03*
X003770Y002495D03*
X003770Y002505D03*
X003770Y002515D03*
X003770Y002525D03*
X003770Y002535D03*
X003770Y002545D03*
X003770Y002555D03*
X003770Y002565D03*
X003770Y002575D03*
X003770Y002585D03*
X003770Y002595D03*
X003770Y002605D03*
X003770Y002615D03*
X003780Y002635D03*
X003780Y002645D03*
X003780Y002655D03*
X003780Y002665D03*
X003780Y002675D03*
X003790Y002685D03*
X003790Y002695D03*
X003790Y002705D03*
X003810Y002755D03*
X004360Y003155D03*
X004370Y003175D03*
X004860Y003595D03*
X005400Y002825D03*
X005560Y002695D03*
X005720Y002565D03*
X005830Y002475D03*
X005880Y002435D03*
X005990Y002345D03*
X006500Y001925D03*
X006510Y001905D03*
X006510Y001895D03*
X006510Y001885D03*
X006520Y001865D03*
X006520Y001855D03*
X006520Y001845D03*
X006520Y001835D03*
X006530Y001815D03*
X006530Y001805D03*
X006530Y001795D03*
X006530Y001785D03*
X006530Y001775D03*
X006530Y001765D03*
X006530Y001755D03*
X006530Y001745D03*
X006530Y001735D03*
X006530Y001725D03*
X006530Y001715D03*
X006520Y001685D03*
X006520Y001675D03*
X006520Y001665D03*
X006520Y001655D03*
X006510Y001635D03*
X006510Y001625D03*
X006500Y001595D03*
X006600Y002255D03*
X006600Y002265D03*
X006610Y002285D03*
X006610Y002295D03*
X006610Y002305D03*
X006610Y002315D03*
X006620Y002335D03*
X006620Y002345D03*
X006620Y002355D03*
X006620Y002365D03*
X006620Y002375D03*
X006620Y002385D03*
X006620Y002395D03*
X006620Y002405D03*
X006620Y002415D03*
X006620Y002425D03*
X006620Y002435D03*
X006620Y002445D03*
X006620Y002455D03*
X006620Y002465D03*
X006620Y002475D03*
X006610Y002485D03*
X006610Y002495D03*
X006610Y002505D03*
X006610Y002515D03*
X006600Y002525D03*
X006600Y002535D03*
X006600Y002545D03*
X006590Y002575D03*
X006150Y002985D03*
X006140Y002995D03*
X006140Y003005D03*
X006140Y003015D03*
X006140Y003025D03*
X006140Y003035D03*
X006140Y003045D03*
X006140Y003055D03*
X006130Y003065D03*
X006130Y003075D03*
X006130Y003085D03*
X006130Y003095D03*
X006120Y003115D03*
X006110Y003145D03*
X005090Y001755D03*
X005100Y001745D03*
X005110Y001735D03*
X005120Y001725D03*
X005130Y001715D03*
X005140Y001705D03*
X005150Y001695D03*
X005160Y001685D03*
X005170Y001675D03*
X005210Y001645D03*
X005220Y001635D03*
X005230Y001625D03*
X005240Y001615D03*
D69*
X005345Y001665D03*
X005345Y001675D03*
X005335Y001685D03*
X005325Y001695D03*
X005315Y001715D03*
X005305Y001725D03*
X005295Y001745D03*
X005285Y001755D03*
X005275Y001765D03*
X005275Y001775D03*
X005265Y001785D03*
X005255Y001795D03*
X005255Y001805D03*
X005245Y001815D03*
X005235Y001825D03*
X005225Y001845D03*
X005215Y001855D03*
X005205Y001875D03*
X005195Y001885D03*
X005185Y001895D03*
X005185Y001905D03*
X005175Y001915D03*
X005165Y001925D03*
X005165Y001935D03*
X005155Y001945D03*
X005145Y001955D03*
X005145Y001965D03*
X005135Y001975D03*
X005125Y001985D03*
X005115Y002005D03*
X005105Y002015D03*
X005095Y002035D03*
X005085Y002045D03*
X005075Y002055D03*
X005075Y002065D03*
X005065Y002075D03*
X005055Y002085D03*
X005055Y002095D03*
X005045Y002105D03*
X005035Y002115D03*
X005025Y002135D03*
X005015Y002145D03*
X005355Y001655D03*
X005365Y001645D03*
X005365Y001635D03*
X005375Y001625D03*
X005385Y001615D03*
X005265Y003295D03*
D70*
X005625Y003525D03*
X005125Y002175D03*
D71*
X005220Y002195D03*
D72*
X005350Y002225D03*
D73*
X005420Y002235D03*
X005510Y002245D03*
X005600Y002255D03*
X005520Y003415D03*
D74*
X005695Y002265D03*
D75*
X005775Y002285D03*
D76*
X005825Y002295D03*
D77*
X005860Y002305D03*
X005310Y003405D03*
D78*
X005905Y002315D03*
D79*
X004585Y002375D03*
X004865Y003545D03*
D80*
X004615Y002385D03*
D81*
X004745Y002415D03*
X004825Y002425D03*
X004895Y002435D03*
X005045Y002455D03*
D82*
X004200Y003065D03*
X005620Y003515D03*
D83*
X005285Y003375D03*
X004595Y003405D03*
X004255Y003115D03*
D84*
X005265Y003275D03*
X005625Y003555D03*
D85*
X005295Y003395D03*
D86*
X005885Y003395D03*
X004595Y003425D03*
D87*
X005505Y003425D03*
D88*
X005485Y003435D03*
D89*
X005620Y003465D03*
D90*
X005625Y003475D03*
D91*
X005625Y003485D03*
D92*
X005625Y003505D03*
D93*
X005805Y004555D02*
X005805Y006055D01*
X003805Y006055D01*
X003805Y004555D01*
X005805Y004555D01*
X006178Y008191D02*
X003005Y008191D01*
X002988Y008192D01*
X002971Y008197D01*
X002956Y008204D01*
X002942Y008214D01*
X002930Y008226D01*
X002920Y008240D01*
X002913Y008255D01*
X002908Y008272D01*
X002907Y008289D01*
X002906Y008289D02*
X002906Y009321D01*
X002907Y009321D02*
X002908Y009338D01*
X002913Y009355D01*
X002920Y009370D01*
X002930Y009384D01*
X002942Y009396D01*
X002956Y009406D01*
X002971Y009413D01*
X002988Y009418D01*
X003005Y009419D01*
X006178Y009419D01*
X006178Y008191D01*
D94*
X005706Y005948D02*
X005499Y005948D01*
X005383Y005896D02*
X005177Y005689D01*
X005228Y005638D01*
X005332Y005638D01*
X005383Y005689D01*
X005383Y005896D01*
X005332Y005948D01*
X005228Y005948D01*
X005177Y005896D01*
X005177Y005689D01*
X005061Y005689D02*
X005061Y005741D01*
X005009Y005793D01*
X004958Y005793D01*
X005009Y005793D02*
X005061Y005844D01*
X005061Y005896D01*
X005009Y005948D01*
X004906Y005948D01*
X004854Y005896D01*
X004854Y005689D02*
X004906Y005638D01*
X005009Y005638D01*
X005061Y005689D01*
X004739Y005638D02*
X004532Y005638D01*
X004635Y005638D02*
X004635Y005948D01*
X004532Y005844D01*
X004417Y005896D02*
X004365Y005948D01*
X004261Y005948D01*
X004210Y005896D01*
X004210Y005844D01*
X004261Y005793D01*
X004365Y005793D01*
X004417Y005741D01*
X004417Y005689D01*
X004365Y005638D01*
X004261Y005638D01*
X004210Y005689D01*
X004094Y005689D02*
X004094Y005896D01*
X004043Y005948D01*
X003888Y005948D01*
X003888Y005638D01*
X004043Y005638D01*
X004094Y005689D01*
X005499Y005689D02*
X005499Y005638D01*
X005499Y005689D02*
X005706Y005896D01*
X005706Y005948D01*
X007050Y005589D02*
X007510Y005589D01*
X007510Y005742D02*
X007510Y005435D01*
X007433Y005282D02*
X007510Y005205D01*
X007510Y005052D01*
X007433Y004975D01*
X007126Y004975D01*
X007050Y005052D01*
X007050Y005205D01*
X007126Y005282D01*
X007203Y005435D02*
X007050Y005589D01*
D95*
X004887Y008553D02*
X004887Y009057D01*
X004643Y009057D02*
X004643Y008553D01*
X004446Y008553D01*
X004446Y009057D01*
X004643Y009057D01*
X004914Y008805D02*
X005158Y008805D01*
X004217Y008805D02*
X004217Y008557D01*
X004217Y008805D02*
X003973Y008805D01*
X004217Y008805D02*
X004217Y009053D01*
D96*
X006182Y009022D02*
X006556Y009022D01*
X006556Y008588D02*
X006182Y008588D01*
D97*
X006123Y008258D02*
X006125Y008247D01*
X006129Y008237D01*
X006136Y008229D01*
X006146Y008223D01*
X006156Y008219D01*
X006167Y008219D01*
X006123Y008258D02*
X006123Y009352D01*
X006125Y009363D01*
X006129Y009373D01*
X006137Y009382D01*
X006146Y009388D01*
X006157Y009391D01*
X006168Y009391D01*
D98*
X002430Y008055D02*
X002430Y007555D01*
X002180Y007305D01*
X002430Y007055D01*
X002430Y006555D01*
X002180Y006305D01*
X002430Y006055D01*
X002430Y005555D01*
X002180Y005305D01*
X002430Y005055D01*
X002430Y004555D01*
X002180Y004305D01*
X002430Y004055D01*
X002430Y003555D01*
X002180Y003305D01*
X001680Y003305D01*
X001430Y003555D01*
X001430Y004055D01*
X001680Y004305D01*
X001430Y004555D01*
X001430Y005055D01*
X001680Y005305D01*
X001430Y005555D01*
X001430Y006055D01*
X001680Y006305D01*
X001430Y006555D01*
X001430Y007055D01*
X001680Y007305D01*
X001430Y007555D01*
X001430Y008055D01*
X001680Y008305D01*
X002180Y008305D01*
X002430Y008055D01*
M02*
