G75*
G70*
%OFA0B0*%
%FSLAX24Y24*%
%IPPOS*%
%LPD*%
%AMOC8*
5,1,8,0,0,1.08239X$1,22.5*
%
%ADD10C,0.0000*%
%ADD11C,0.0030*%
%ADD12C,0.0040*%
%ADD13C,0.0080*%
%ADD14C,0.0059*%
%ADD15C,0.0060*%
%ADD16C,0.0050*%
%ADD17R,0.0100X0.0200*%
D10*
X000680Y001930D02*
X000680Y008680D01*
X000682Y008748D01*
X000687Y008815D01*
X000696Y008882D01*
X000709Y008949D01*
X000726Y009014D01*
X000745Y009079D01*
X000769Y009143D01*
X000796Y009205D01*
X000826Y009266D01*
X000859Y009324D01*
X000895Y009381D01*
X000935Y009436D01*
X000977Y009489D01*
X001023Y009540D01*
X001070Y009587D01*
X001121Y009633D01*
X001174Y009675D01*
X001229Y009715D01*
X001286Y009751D01*
X001344Y009784D01*
X001405Y009814D01*
X001467Y009841D01*
X001531Y009865D01*
X001596Y009884D01*
X001661Y009901D01*
X001728Y009914D01*
X001795Y009923D01*
X001862Y009928D01*
X001930Y009930D01*
X008680Y009930D01*
X008748Y009928D01*
X008815Y009923D01*
X008882Y009914D01*
X008949Y009901D01*
X009014Y009884D01*
X009079Y009865D01*
X009143Y009841D01*
X009205Y009814D01*
X009266Y009784D01*
X009324Y009751D01*
X009381Y009715D01*
X009436Y009675D01*
X009489Y009633D01*
X009540Y009587D01*
X009587Y009540D01*
X009633Y009489D01*
X009675Y009436D01*
X009715Y009381D01*
X009751Y009324D01*
X009784Y009266D01*
X009814Y009205D01*
X009841Y009143D01*
X009865Y009079D01*
X009884Y009014D01*
X009901Y008949D01*
X009914Y008882D01*
X009923Y008815D01*
X009928Y008748D01*
X009930Y008680D01*
X009930Y001930D01*
X009928Y001862D01*
X009923Y001795D01*
X009914Y001728D01*
X009901Y001661D01*
X009884Y001596D01*
X009865Y001531D01*
X009841Y001467D01*
X009814Y001405D01*
X009784Y001344D01*
X009751Y001286D01*
X009715Y001229D01*
X009675Y001174D01*
X009633Y001121D01*
X009587Y001070D01*
X009540Y001023D01*
X009489Y000977D01*
X009436Y000935D01*
X009381Y000895D01*
X009324Y000859D01*
X009266Y000826D01*
X009205Y000796D01*
X009143Y000769D01*
X009079Y000745D01*
X009014Y000726D01*
X008949Y000709D01*
X008882Y000696D01*
X008815Y000687D01*
X008748Y000682D01*
X008680Y000680D01*
X001930Y000680D01*
X001862Y000682D01*
X001795Y000687D01*
X001728Y000696D01*
X001661Y000709D01*
X001596Y000726D01*
X001531Y000745D01*
X001467Y000769D01*
X001405Y000796D01*
X001344Y000826D01*
X001286Y000859D01*
X001229Y000895D01*
X001174Y000935D01*
X001121Y000977D01*
X001070Y001023D01*
X001023Y001070D01*
X000977Y001121D01*
X000935Y001174D01*
X000895Y001229D01*
X000859Y001286D01*
X000826Y001344D01*
X000796Y001405D01*
X000769Y001467D01*
X000745Y001531D01*
X000726Y001596D01*
X000709Y001661D01*
X000696Y001728D01*
X000687Y001795D01*
X000682Y001862D01*
X000680Y001930D01*
X001305Y001930D02*
X001307Y001980D01*
X001313Y002029D01*
X001323Y002078D01*
X001336Y002125D01*
X001354Y002172D01*
X001375Y002217D01*
X001399Y002260D01*
X001427Y002301D01*
X001458Y002340D01*
X001492Y002376D01*
X001529Y002410D01*
X001569Y002440D01*
X001610Y002467D01*
X001654Y002491D01*
X001699Y002511D01*
X001746Y002527D01*
X001794Y002540D01*
X001843Y002549D01*
X001893Y002554D01*
X001942Y002555D01*
X001992Y002552D01*
X002041Y002545D01*
X002090Y002534D01*
X002137Y002520D01*
X002183Y002501D01*
X002228Y002479D01*
X002271Y002454D01*
X002311Y002425D01*
X002349Y002393D01*
X002385Y002359D01*
X002418Y002321D01*
X002447Y002281D01*
X002473Y002239D01*
X002496Y002195D01*
X002515Y002149D01*
X002531Y002102D01*
X002543Y002053D01*
X002551Y002004D01*
X002555Y001955D01*
X002555Y001905D01*
X002551Y001856D01*
X002543Y001807D01*
X002531Y001758D01*
X002515Y001711D01*
X002496Y001665D01*
X002473Y001621D01*
X002447Y001579D01*
X002418Y001539D01*
X002385Y001501D01*
X002349Y001467D01*
X002311Y001435D01*
X002271Y001406D01*
X002228Y001381D01*
X002183Y001359D01*
X002137Y001340D01*
X002090Y001326D01*
X002041Y001315D01*
X001992Y001308D01*
X001942Y001305D01*
X001893Y001306D01*
X001843Y001311D01*
X001794Y001320D01*
X001746Y001333D01*
X001699Y001349D01*
X001654Y001369D01*
X001610Y001393D01*
X001569Y001420D01*
X001529Y001450D01*
X001492Y001484D01*
X001458Y001520D01*
X001427Y001559D01*
X001399Y001600D01*
X001375Y001643D01*
X001354Y001688D01*
X001336Y001735D01*
X001323Y001782D01*
X001313Y001831D01*
X001307Y001880D01*
X001305Y001930D01*
X008055Y001930D02*
X008057Y001980D01*
X008063Y002029D01*
X008073Y002078D01*
X008086Y002125D01*
X008104Y002172D01*
X008125Y002217D01*
X008149Y002260D01*
X008177Y002301D01*
X008208Y002340D01*
X008242Y002376D01*
X008279Y002410D01*
X008319Y002440D01*
X008360Y002467D01*
X008404Y002491D01*
X008449Y002511D01*
X008496Y002527D01*
X008544Y002540D01*
X008593Y002549D01*
X008643Y002554D01*
X008692Y002555D01*
X008742Y002552D01*
X008791Y002545D01*
X008840Y002534D01*
X008887Y002520D01*
X008933Y002501D01*
X008978Y002479D01*
X009021Y002454D01*
X009061Y002425D01*
X009099Y002393D01*
X009135Y002359D01*
X009168Y002321D01*
X009197Y002281D01*
X009223Y002239D01*
X009246Y002195D01*
X009265Y002149D01*
X009281Y002102D01*
X009293Y002053D01*
X009301Y002004D01*
X009305Y001955D01*
X009305Y001905D01*
X009301Y001856D01*
X009293Y001807D01*
X009281Y001758D01*
X009265Y001711D01*
X009246Y001665D01*
X009223Y001621D01*
X009197Y001579D01*
X009168Y001539D01*
X009135Y001501D01*
X009099Y001467D01*
X009061Y001435D01*
X009021Y001406D01*
X008978Y001381D01*
X008933Y001359D01*
X008887Y001340D01*
X008840Y001326D01*
X008791Y001315D01*
X008742Y001308D01*
X008692Y001305D01*
X008643Y001306D01*
X008593Y001311D01*
X008544Y001320D01*
X008496Y001333D01*
X008449Y001349D01*
X008404Y001369D01*
X008360Y001393D01*
X008319Y001420D01*
X008279Y001450D01*
X008242Y001484D01*
X008208Y001520D01*
X008177Y001559D01*
X008149Y001600D01*
X008125Y001643D01*
X008104Y001688D01*
X008086Y001735D01*
X008073Y001782D01*
X008063Y001831D01*
X008057Y001880D01*
X008055Y001930D01*
X008055Y008680D02*
X008057Y008730D01*
X008063Y008779D01*
X008073Y008828D01*
X008086Y008875D01*
X008104Y008922D01*
X008125Y008967D01*
X008149Y009010D01*
X008177Y009051D01*
X008208Y009090D01*
X008242Y009126D01*
X008279Y009160D01*
X008319Y009190D01*
X008360Y009217D01*
X008404Y009241D01*
X008449Y009261D01*
X008496Y009277D01*
X008544Y009290D01*
X008593Y009299D01*
X008643Y009304D01*
X008692Y009305D01*
X008742Y009302D01*
X008791Y009295D01*
X008840Y009284D01*
X008887Y009270D01*
X008933Y009251D01*
X008978Y009229D01*
X009021Y009204D01*
X009061Y009175D01*
X009099Y009143D01*
X009135Y009109D01*
X009168Y009071D01*
X009197Y009031D01*
X009223Y008989D01*
X009246Y008945D01*
X009265Y008899D01*
X009281Y008852D01*
X009293Y008803D01*
X009301Y008754D01*
X009305Y008705D01*
X009305Y008655D01*
X009301Y008606D01*
X009293Y008557D01*
X009281Y008508D01*
X009265Y008461D01*
X009246Y008415D01*
X009223Y008371D01*
X009197Y008329D01*
X009168Y008289D01*
X009135Y008251D01*
X009099Y008217D01*
X009061Y008185D01*
X009021Y008156D01*
X008978Y008131D01*
X008933Y008109D01*
X008887Y008090D01*
X008840Y008076D01*
X008791Y008065D01*
X008742Y008058D01*
X008692Y008055D01*
X008643Y008056D01*
X008593Y008061D01*
X008544Y008070D01*
X008496Y008083D01*
X008449Y008099D01*
X008404Y008119D01*
X008360Y008143D01*
X008319Y008170D01*
X008279Y008200D01*
X008242Y008234D01*
X008208Y008270D01*
X008177Y008309D01*
X008149Y008350D01*
X008125Y008393D01*
X008104Y008438D01*
X008086Y008485D01*
X008073Y008532D01*
X008063Y008581D01*
X008057Y008630D01*
X008055Y008680D01*
D11*
X007978Y007065D02*
X007855Y007065D01*
X007793Y007004D01*
X007672Y007065D02*
X007487Y007065D01*
X007425Y007004D01*
X007425Y006757D01*
X007487Y006695D01*
X007672Y006695D01*
X007672Y007065D01*
X007855Y006880D02*
X007793Y006818D01*
X007793Y006757D01*
X007855Y006695D01*
X007978Y006695D01*
X008040Y006757D01*
X007978Y006880D02*
X007855Y006880D01*
X007978Y006880D02*
X008040Y006942D01*
X008040Y007004D01*
X007978Y007065D01*
X007303Y006942D02*
X007303Y006695D01*
X007303Y006880D02*
X007056Y006880D01*
X007056Y006942D02*
X007056Y006695D01*
X007056Y006942D02*
X007180Y007065D01*
X007303Y006942D01*
X007303Y006065D02*
X007303Y005695D01*
X007056Y005695D01*
X007425Y005757D02*
X007487Y005695D01*
X007610Y005695D01*
X007672Y005757D01*
X007672Y006004D01*
X007610Y006065D01*
X007487Y006065D01*
X007425Y006004D01*
X007793Y006004D02*
X007855Y006065D01*
X007978Y006065D01*
X008040Y006004D01*
X008040Y005942D01*
X007978Y005880D01*
X007855Y005880D01*
X007793Y005818D01*
X007793Y005757D01*
X007855Y005695D01*
X007978Y005695D01*
X008040Y005757D01*
X008040Y004940D02*
X008040Y004693D01*
X007917Y004570D01*
X007793Y004693D01*
X007793Y004940D01*
X007672Y004879D02*
X007672Y004632D01*
X007610Y004570D01*
X007487Y004570D01*
X007425Y004632D01*
X007303Y004632D02*
X007242Y004570D01*
X007118Y004570D01*
X007056Y004632D01*
X007056Y004879D02*
X007118Y004940D01*
X007242Y004940D01*
X007303Y004879D01*
X007303Y004632D01*
X007425Y004879D02*
X007487Y004940D01*
X007610Y004940D01*
X007672Y004879D01*
X007672Y003940D02*
X007425Y003570D01*
X007425Y003940D01*
X007303Y003940D02*
X007118Y003940D01*
X007056Y003879D01*
X007056Y003632D01*
X007118Y003570D01*
X007303Y003570D01*
X007303Y003940D01*
X007672Y003940D02*
X007672Y003570D01*
X007793Y003632D02*
X007793Y003755D01*
X007917Y003755D01*
X008040Y003632D02*
X007978Y003570D01*
X007855Y003570D01*
X007793Y003632D01*
X007793Y003879D02*
X007855Y003940D01*
X007978Y003940D01*
X008040Y003879D01*
X008040Y003632D01*
X006916Y001440D02*
X006792Y001440D01*
X006731Y001379D01*
X006609Y001379D02*
X006609Y001132D01*
X006547Y001070D01*
X006424Y001070D01*
X006362Y001132D01*
X006362Y001379D02*
X006424Y001440D01*
X006547Y001440D01*
X006609Y001379D01*
X006731Y001132D02*
X006792Y001070D01*
X006916Y001070D01*
X006978Y001132D01*
X006978Y001379D01*
X006916Y001440D01*
X005873Y001440D02*
X005873Y001070D01*
X005687Y001070D01*
X005626Y001132D01*
X005626Y001193D01*
X005687Y001255D01*
X005873Y001255D01*
X005873Y001440D02*
X005687Y001440D01*
X005626Y001379D01*
X005626Y001317D01*
X005687Y001255D01*
X005504Y001379D02*
X005504Y001440D01*
X005504Y001379D02*
X005381Y001255D01*
X005381Y001070D01*
X005381Y001255D02*
X005257Y001379D01*
X005257Y001440D01*
X005136Y001255D02*
X004889Y001255D01*
X004768Y001317D02*
X004706Y001255D01*
X004582Y001255D01*
X004521Y001193D01*
X004521Y001132D01*
X004582Y001070D01*
X004706Y001070D01*
X004768Y001132D01*
X004768Y001317D02*
X004768Y001379D01*
X004706Y001440D01*
X004582Y001440D01*
X004521Y001379D01*
X004399Y001317D02*
X004276Y001440D01*
X004152Y001317D01*
X004152Y001070D01*
X004152Y001255D02*
X004399Y001255D01*
X004399Y001317D02*
X004399Y001070D01*
X003663Y001132D02*
X003601Y001070D01*
X003478Y001070D01*
X003416Y001132D01*
X003416Y001193D01*
X003478Y001255D01*
X003539Y001255D01*
X003478Y001255D02*
X003416Y001317D01*
X003416Y001379D01*
X003478Y001440D01*
X003601Y001440D01*
X003663Y001379D01*
X003294Y001132D02*
X003233Y001132D01*
X003233Y001070D01*
X003294Y001070D01*
X003294Y001132D01*
X003110Y001132D02*
X003110Y001379D01*
X003048Y001440D01*
X002925Y001440D01*
X002863Y001379D01*
X003110Y001132D01*
X003048Y001070D01*
X002925Y001070D01*
X002863Y001132D01*
X002863Y001379D01*
X004368Y006445D02*
X004492Y006445D01*
X004553Y006507D01*
X004306Y006754D01*
X004306Y006507D01*
X004368Y006445D01*
X004553Y006507D02*
X004553Y006754D01*
X004492Y006815D01*
X004368Y006815D01*
X004306Y006754D01*
X004553Y007070D02*
X004553Y007440D01*
X004368Y007440D01*
X004306Y007379D01*
X004306Y007255D01*
X004368Y007193D01*
X004553Y007193D01*
X004675Y007070D02*
X004675Y007440D01*
X004798Y007317D01*
X004922Y007440D01*
X004922Y007070D01*
X005167Y007070D02*
X005167Y007440D01*
X005290Y007440D02*
X005043Y007440D01*
X005257Y007820D02*
X005195Y007882D01*
X005442Y008129D01*
X005442Y007882D01*
X005380Y007820D01*
X005257Y007820D01*
X005195Y007882D02*
X005195Y008129D01*
X005257Y008190D01*
X005380Y008190D01*
X005442Y008129D01*
X005442Y009320D02*
X005195Y009320D01*
X005318Y009320D02*
X005318Y009690D01*
X005195Y009567D01*
X003692Y009320D02*
X003445Y009320D01*
X003568Y009320D02*
X003568Y009690D01*
X003445Y009567D01*
X003507Y008190D02*
X003630Y008190D01*
X003692Y008129D01*
X003445Y007882D01*
X003507Y007820D01*
X003630Y007820D01*
X003692Y007882D01*
X003692Y008129D01*
X003507Y008190D02*
X003445Y008129D01*
X003445Y007882D01*
X004675Y006754D02*
X004922Y006507D01*
X004860Y006445D01*
X004737Y006445D01*
X004675Y006507D01*
X004675Y006754D01*
X004737Y006815D01*
X004860Y006815D01*
X004922Y006754D01*
X004922Y006507D01*
X005043Y006445D02*
X005290Y006445D01*
X005167Y006445D02*
X005167Y006815D01*
X005290Y006692D01*
D12*
X005300Y005522D02*
X005300Y005215D01*
X005607Y005522D01*
X005684Y005522D01*
X005760Y005445D01*
X005760Y005291D01*
X005684Y005215D01*
X005684Y005061D02*
X005760Y004984D01*
X005760Y004831D01*
X005684Y004754D01*
X005377Y004754D01*
X005300Y004831D01*
X005300Y004984D01*
X005377Y005061D01*
X001487Y004384D02*
X001410Y004384D01*
X001257Y004384D02*
X001257Y004308D01*
X001257Y004384D02*
X000950Y004384D01*
X000950Y004308D02*
X000950Y004461D01*
X001027Y004615D02*
X000950Y004691D01*
X000950Y004922D01*
X001257Y004922D02*
X001257Y004691D01*
X001180Y004615D01*
X001027Y004615D01*
X000950Y004154D02*
X000950Y003924D01*
X001027Y003847D01*
X001180Y003847D01*
X001257Y003924D01*
X001257Y004154D01*
X000873Y004154D01*
X000797Y004077D01*
X000797Y004001D01*
X000950Y003694D02*
X000950Y003464D01*
X001027Y003387D01*
X001103Y003464D01*
X001103Y003694D01*
X001180Y003694D02*
X000950Y003694D01*
X001180Y003694D02*
X001257Y003617D01*
X001257Y003464D01*
X001410Y003233D02*
X000950Y003233D01*
X000950Y002926D02*
X001410Y002926D01*
X001257Y003080D01*
X001410Y003233D01*
X001334Y005225D02*
X001257Y005225D01*
X001180Y005301D01*
X001180Y005455D01*
X001103Y005532D01*
X001027Y005532D01*
X000950Y005455D01*
X000950Y005301D01*
X001027Y005225D01*
X001334Y005225D02*
X001410Y005301D01*
X001410Y005455D01*
X001334Y005532D01*
X001257Y005685D02*
X001257Y005762D01*
X001180Y005839D01*
X001257Y005915D01*
X001180Y005992D01*
X000950Y005992D01*
X000950Y005839D02*
X001180Y005839D01*
X001257Y005685D02*
X000950Y005685D01*
X001027Y006146D02*
X000950Y006222D01*
X000950Y006376D01*
X001027Y006452D01*
X001180Y006452D01*
X001257Y006376D01*
X001257Y006222D01*
X001180Y006146D01*
X001027Y006146D01*
X001103Y006606D02*
X001257Y006836D01*
X001180Y006990D02*
X001257Y007066D01*
X001257Y007220D01*
X001180Y007297D01*
X001103Y007297D01*
X001103Y006990D01*
X001027Y006990D02*
X001180Y006990D01*
X001027Y006990D02*
X000950Y007066D01*
X000950Y007220D01*
X000950Y007637D02*
X000950Y007790D01*
X000950Y007714D02*
X001410Y007714D01*
X001410Y007790D02*
X001410Y007637D01*
X001410Y007944D02*
X001410Y008251D01*
X001410Y008097D02*
X000950Y008097D01*
X001027Y008404D02*
X000950Y008481D01*
X000950Y008634D01*
X001027Y008711D01*
X001334Y008711D01*
X001027Y008404D01*
X001334Y008404D01*
X001410Y008481D01*
X001410Y008634D01*
X001334Y008711D01*
X001257Y008865D02*
X001410Y009018D01*
X000950Y009018D01*
X000950Y008865D02*
X000950Y009172D01*
X000950Y006836D02*
X001103Y006606D01*
X000950Y006606D02*
X001410Y006606D01*
D13*
X008180Y006555D02*
X008180Y007055D01*
X008430Y007305D01*
X008930Y007305D01*
X009180Y007055D01*
X009180Y006555D01*
X008930Y006305D01*
X009180Y006055D01*
X009180Y005555D01*
X008930Y005305D01*
X009180Y005055D01*
X009180Y004555D01*
X008930Y004305D01*
X009180Y004055D01*
X009180Y003555D01*
X008930Y003305D01*
X008430Y003305D01*
X008180Y003555D01*
X008180Y004055D01*
X008430Y004305D01*
X008180Y004555D01*
X008180Y005055D01*
X008430Y005305D01*
X008180Y005555D01*
X008180Y006055D01*
X008430Y006305D01*
X008180Y006555D01*
D14*
X006252Y002766D02*
X006108Y002766D01*
X006089Y002576D01*
X006025Y002555D01*
X005965Y002524D01*
X005816Y002645D01*
X005715Y002544D01*
X005836Y002395D01*
X005805Y002335D01*
X005784Y002271D01*
X005594Y002252D01*
X005594Y002108D01*
X005784Y002089D01*
X005805Y002025D01*
X005836Y001965D01*
X005715Y001816D01*
X005816Y001715D01*
X005965Y001836D01*
X006025Y001805D01*
X006109Y002009D01*
X006071Y002031D01*
X006039Y002061D01*
X005793Y002061D01*
X005816Y002004D02*
X006107Y002004D01*
X006083Y001946D02*
X005820Y001946D01*
X005774Y001889D02*
X006059Y001889D01*
X006035Y001831D02*
X005974Y001831D01*
X005959Y001831D02*
X005727Y001831D01*
X005758Y001774D02*
X005889Y001774D01*
X005818Y001716D02*
X005815Y001716D01*
X006039Y002061D02*
X006015Y002098D01*
X006000Y002140D01*
X005996Y002184D01*
X006002Y002228D01*
X006018Y002269D01*
X006044Y002305D01*
X006078Y002333D01*
X006117Y002353D01*
X006160Y002363D01*
X006204Y002363D01*
X006247Y002352D01*
X006286Y002331D01*
X006319Y002302D01*
X006344Y002265D01*
X006359Y002224D01*
X006365Y002180D01*
X006359Y002137D01*
X006344Y002096D01*
X006320Y002060D01*
X006288Y002031D01*
X006251Y002009D01*
X006335Y001805D01*
X006395Y001836D01*
X006544Y001715D01*
X006645Y001816D01*
X006524Y001965D01*
X006555Y002025D01*
X006576Y002089D01*
X006766Y002108D01*
X006766Y002252D01*
X006576Y002271D01*
X006555Y002335D01*
X006524Y002395D01*
X006645Y002544D01*
X006544Y002645D01*
X006395Y002524D01*
X006335Y002555D01*
X006271Y002576D01*
X006252Y002766D01*
X006253Y002752D02*
X006107Y002752D01*
X006101Y002694D02*
X006259Y002694D01*
X006265Y002637D02*
X006095Y002637D01*
X006089Y002579D02*
X006271Y002579D01*
X006463Y002579D02*
X006610Y002579D01*
X006628Y002522D02*
X005732Y002522D01*
X005750Y002579D02*
X005897Y002579D01*
X005827Y002637D02*
X005808Y002637D01*
X005779Y002464D02*
X006581Y002464D01*
X006534Y002407D02*
X005826Y002407D01*
X005812Y002349D02*
X006109Y002349D01*
X006035Y002292D02*
X005791Y002292D01*
X005594Y002234D02*
X006004Y002234D01*
X005996Y002176D02*
X005594Y002176D01*
X005594Y002119D02*
X006007Y002119D01*
X006253Y002004D02*
X006544Y002004D01*
X006540Y001946D02*
X006277Y001946D01*
X006301Y001889D02*
X006586Y001889D01*
X006633Y001831D02*
X006401Y001831D01*
X006386Y001831D02*
X006325Y001831D01*
X006471Y001774D02*
X006602Y001774D01*
X006545Y001716D02*
X006542Y001716D01*
X006567Y002061D02*
X006321Y002061D01*
X006353Y002119D02*
X006766Y002119D01*
X006766Y002176D02*
X006364Y002176D01*
X006355Y002234D02*
X006766Y002234D01*
X006569Y002292D02*
X006326Y002292D01*
X006252Y002349D02*
X006548Y002349D01*
X006533Y002637D02*
X006552Y002637D01*
D15*
X006230Y007730D02*
X005630Y007730D01*
X005613Y007732D01*
X005596Y007736D01*
X005580Y007743D01*
X005566Y007753D01*
X005553Y007766D01*
X005543Y007780D01*
X005536Y007796D01*
X005532Y007813D01*
X005530Y007830D01*
X005530Y009530D01*
X005532Y009547D01*
X005536Y009564D01*
X005543Y009580D01*
X005553Y009594D01*
X005566Y009607D01*
X005580Y009617D01*
X005596Y009624D01*
X005613Y009628D01*
X005630Y009630D01*
X006230Y009630D01*
X006247Y009628D01*
X006264Y009624D01*
X006280Y009617D01*
X006294Y009607D01*
X006307Y009594D01*
X006317Y009580D01*
X006324Y009564D01*
X006328Y009547D01*
X006330Y009530D01*
X006330Y007830D01*
X006328Y007813D01*
X006324Y007796D01*
X006317Y007780D01*
X006307Y007766D01*
X006294Y007753D01*
X006280Y007743D01*
X006264Y007736D01*
X006247Y007732D01*
X006230Y007730D01*
X003330Y007830D02*
X003330Y009530D01*
X003328Y009547D01*
X003324Y009564D01*
X003317Y009580D01*
X003307Y009594D01*
X003294Y009607D01*
X003280Y009617D01*
X003264Y009624D01*
X003247Y009628D01*
X003230Y009630D01*
X002630Y009630D01*
X002613Y009628D01*
X002596Y009624D01*
X002580Y009617D01*
X002566Y009607D01*
X002553Y009594D01*
X002543Y009580D01*
X002536Y009564D01*
X002532Y009547D01*
X002530Y009530D01*
X002530Y007830D01*
X002532Y007813D01*
X002536Y007796D01*
X002543Y007780D01*
X002553Y007766D01*
X002566Y007753D01*
X002580Y007743D01*
X002596Y007736D01*
X002613Y007732D01*
X002630Y007730D01*
X003230Y007730D01*
X003247Y007732D01*
X003264Y007736D01*
X003280Y007743D01*
X003294Y007753D01*
X003307Y007766D01*
X003317Y007780D01*
X003324Y007796D01*
X003328Y007813D01*
X003330Y007830D01*
D16*
X002855Y007705D02*
X005855Y007705D01*
X007055Y006505D01*
X007055Y004105D01*
X005855Y002905D01*
X002855Y002905D01*
X002807Y002926D01*
X002761Y002950D01*
X002717Y002977D01*
X002675Y003008D01*
X002635Y003042D01*
X002598Y003078D01*
X002564Y003117D01*
X002533Y003159D01*
X002505Y003203D01*
X002480Y003249D01*
X002459Y003296D01*
X002441Y003345D01*
X002428Y003395D01*
X002417Y003447D01*
X002411Y003498D01*
X002409Y003550D01*
X002411Y003602D01*
X002416Y003654D01*
X002425Y003705D01*
X002439Y003756D01*
X002455Y003805D01*
X002524Y003878D01*
X002591Y003955D01*
X002653Y004034D01*
X002712Y004116D01*
X002766Y004201D01*
X002817Y004289D01*
X002863Y004378D01*
X002905Y004470D01*
X002942Y004564D01*
X002975Y004659D01*
X003004Y004756D01*
X003028Y004854D01*
X003047Y004953D01*
X003061Y005053D01*
X003071Y005154D01*
X003075Y005255D01*
X003075Y005355D01*
X003071Y005456D01*
X003061Y005557D01*
X003047Y005657D01*
X003028Y005756D01*
X003004Y005854D01*
X002975Y005951D01*
X002942Y006046D01*
X002905Y006140D01*
X002863Y006232D01*
X002817Y006321D01*
X002766Y006409D01*
X002712Y006494D01*
X002653Y006576D01*
X002591Y006655D01*
X002524Y006732D01*
X002455Y006805D01*
X002439Y006854D01*
X002425Y006905D01*
X002416Y006956D01*
X002411Y007008D01*
X002409Y007060D01*
X002411Y007112D01*
X002417Y007163D01*
X002428Y007215D01*
X002441Y007265D01*
X002459Y007314D01*
X002480Y007361D01*
X002505Y007407D01*
X002533Y007451D01*
X002564Y007493D01*
X002598Y007532D01*
X002635Y007568D01*
X002675Y007602D01*
X002717Y007633D01*
X002761Y007660D01*
X002807Y007684D01*
X002855Y007705D01*
X005855Y007505D02*
X005855Y006305D01*
X006555Y006305D01*
X006555Y007505D01*
X005855Y007505D01*
D17*
X006505Y007405D03*
M02*
