G75*
G70*
%OFA0B0*%
%FSLAX24Y24*%
%IPPOS*%
%LPD*%
%AMOC8*
5,1,8,0,0,1.08239X$1,22.5*
%
%ADD10C,0.0000*%
%ADD11C,0.1330*%
%ADD12C,0.0160*%
%ADD13R,0.0820X0.0820*%
%ADD14C,0.0820*%
%ADD15R,0.0710X0.0540*%
%ADD16R,0.0580X0.0330*%
%ADD17R,0.1640X0.1640*%
%ADD18R,0.1330X0.1330*%
%ADD19R,0.0671X0.0592*%
%ADD20R,0.0476X0.0476*%
D10*
X000680Y001930D02*
X000680Y008680D01*
X000682Y008748D01*
X000687Y008815D01*
X000696Y008882D01*
X000709Y008949D01*
X000726Y009014D01*
X000745Y009079D01*
X000769Y009143D01*
X000796Y009205D01*
X000826Y009266D01*
X000859Y009324D01*
X000895Y009381D01*
X000935Y009436D01*
X000977Y009489D01*
X001023Y009540D01*
X001070Y009587D01*
X001121Y009633D01*
X001174Y009675D01*
X001229Y009715D01*
X001286Y009751D01*
X001344Y009784D01*
X001405Y009814D01*
X001467Y009841D01*
X001531Y009865D01*
X001596Y009884D01*
X001661Y009901D01*
X001728Y009914D01*
X001795Y009923D01*
X001862Y009928D01*
X001930Y009930D01*
X008680Y009930D01*
X008748Y009928D01*
X008815Y009923D01*
X008882Y009914D01*
X008949Y009901D01*
X009014Y009884D01*
X009079Y009865D01*
X009143Y009841D01*
X009205Y009814D01*
X009266Y009784D01*
X009324Y009751D01*
X009381Y009715D01*
X009436Y009675D01*
X009489Y009633D01*
X009540Y009587D01*
X009587Y009540D01*
X009633Y009489D01*
X009675Y009436D01*
X009715Y009381D01*
X009751Y009324D01*
X009784Y009266D01*
X009814Y009205D01*
X009841Y009143D01*
X009865Y009079D01*
X009884Y009014D01*
X009901Y008949D01*
X009914Y008882D01*
X009923Y008815D01*
X009928Y008748D01*
X009930Y008680D01*
X009930Y001930D01*
X009928Y001862D01*
X009923Y001795D01*
X009914Y001728D01*
X009901Y001661D01*
X009884Y001596D01*
X009865Y001531D01*
X009841Y001467D01*
X009814Y001405D01*
X009784Y001344D01*
X009751Y001286D01*
X009715Y001229D01*
X009675Y001174D01*
X009633Y001121D01*
X009587Y001070D01*
X009540Y001023D01*
X009489Y000977D01*
X009436Y000935D01*
X009381Y000895D01*
X009324Y000859D01*
X009266Y000826D01*
X009205Y000796D01*
X009143Y000769D01*
X009079Y000745D01*
X009014Y000726D01*
X008949Y000709D01*
X008882Y000696D01*
X008815Y000687D01*
X008748Y000682D01*
X008680Y000680D01*
X001930Y000680D01*
X001862Y000682D01*
X001795Y000687D01*
X001728Y000696D01*
X001661Y000709D01*
X001596Y000726D01*
X001531Y000745D01*
X001467Y000769D01*
X001405Y000796D01*
X001344Y000826D01*
X001286Y000859D01*
X001229Y000895D01*
X001174Y000935D01*
X001121Y000977D01*
X001070Y001023D01*
X001023Y001070D01*
X000977Y001121D01*
X000935Y001174D01*
X000895Y001229D01*
X000859Y001286D01*
X000826Y001344D01*
X000796Y001405D01*
X000769Y001467D01*
X000745Y001531D01*
X000726Y001596D01*
X000709Y001661D01*
X000696Y001728D01*
X000687Y001795D01*
X000682Y001862D01*
X000680Y001930D01*
X001305Y001930D02*
X001307Y001980D01*
X001313Y002029D01*
X001323Y002078D01*
X001336Y002125D01*
X001354Y002172D01*
X001375Y002217D01*
X001399Y002260D01*
X001427Y002301D01*
X001458Y002340D01*
X001492Y002376D01*
X001529Y002410D01*
X001569Y002440D01*
X001610Y002467D01*
X001654Y002491D01*
X001699Y002511D01*
X001746Y002527D01*
X001794Y002540D01*
X001843Y002549D01*
X001893Y002554D01*
X001942Y002555D01*
X001992Y002552D01*
X002041Y002545D01*
X002090Y002534D01*
X002137Y002520D01*
X002183Y002501D01*
X002228Y002479D01*
X002271Y002454D01*
X002311Y002425D01*
X002349Y002393D01*
X002385Y002359D01*
X002418Y002321D01*
X002447Y002281D01*
X002473Y002239D01*
X002496Y002195D01*
X002515Y002149D01*
X002531Y002102D01*
X002543Y002053D01*
X002551Y002004D01*
X002555Y001955D01*
X002555Y001905D01*
X002551Y001856D01*
X002543Y001807D01*
X002531Y001758D01*
X002515Y001711D01*
X002496Y001665D01*
X002473Y001621D01*
X002447Y001579D01*
X002418Y001539D01*
X002385Y001501D01*
X002349Y001467D01*
X002311Y001435D01*
X002271Y001406D01*
X002228Y001381D01*
X002183Y001359D01*
X002137Y001340D01*
X002090Y001326D01*
X002041Y001315D01*
X001992Y001308D01*
X001942Y001305D01*
X001893Y001306D01*
X001843Y001311D01*
X001794Y001320D01*
X001746Y001333D01*
X001699Y001349D01*
X001654Y001369D01*
X001610Y001393D01*
X001569Y001420D01*
X001529Y001450D01*
X001492Y001484D01*
X001458Y001520D01*
X001427Y001559D01*
X001399Y001600D01*
X001375Y001643D01*
X001354Y001688D01*
X001336Y001735D01*
X001323Y001782D01*
X001313Y001831D01*
X001307Y001880D01*
X001305Y001930D01*
X008055Y001930D02*
X008057Y001980D01*
X008063Y002029D01*
X008073Y002078D01*
X008086Y002125D01*
X008104Y002172D01*
X008125Y002217D01*
X008149Y002260D01*
X008177Y002301D01*
X008208Y002340D01*
X008242Y002376D01*
X008279Y002410D01*
X008319Y002440D01*
X008360Y002467D01*
X008404Y002491D01*
X008449Y002511D01*
X008496Y002527D01*
X008544Y002540D01*
X008593Y002549D01*
X008643Y002554D01*
X008692Y002555D01*
X008742Y002552D01*
X008791Y002545D01*
X008840Y002534D01*
X008887Y002520D01*
X008933Y002501D01*
X008978Y002479D01*
X009021Y002454D01*
X009061Y002425D01*
X009099Y002393D01*
X009135Y002359D01*
X009168Y002321D01*
X009197Y002281D01*
X009223Y002239D01*
X009246Y002195D01*
X009265Y002149D01*
X009281Y002102D01*
X009293Y002053D01*
X009301Y002004D01*
X009305Y001955D01*
X009305Y001905D01*
X009301Y001856D01*
X009293Y001807D01*
X009281Y001758D01*
X009265Y001711D01*
X009246Y001665D01*
X009223Y001621D01*
X009197Y001579D01*
X009168Y001539D01*
X009135Y001501D01*
X009099Y001467D01*
X009061Y001435D01*
X009021Y001406D01*
X008978Y001381D01*
X008933Y001359D01*
X008887Y001340D01*
X008840Y001326D01*
X008791Y001315D01*
X008742Y001308D01*
X008692Y001305D01*
X008643Y001306D01*
X008593Y001311D01*
X008544Y001320D01*
X008496Y001333D01*
X008449Y001349D01*
X008404Y001369D01*
X008360Y001393D01*
X008319Y001420D01*
X008279Y001450D01*
X008242Y001484D01*
X008208Y001520D01*
X008177Y001559D01*
X008149Y001600D01*
X008125Y001643D01*
X008104Y001688D01*
X008086Y001735D01*
X008073Y001782D01*
X008063Y001831D01*
X008057Y001880D01*
X008055Y001930D01*
X008055Y008680D02*
X008057Y008730D01*
X008063Y008779D01*
X008073Y008828D01*
X008086Y008875D01*
X008104Y008922D01*
X008125Y008967D01*
X008149Y009010D01*
X008177Y009051D01*
X008208Y009090D01*
X008242Y009126D01*
X008279Y009160D01*
X008319Y009190D01*
X008360Y009217D01*
X008404Y009241D01*
X008449Y009261D01*
X008496Y009277D01*
X008544Y009290D01*
X008593Y009299D01*
X008643Y009304D01*
X008692Y009305D01*
X008742Y009302D01*
X008791Y009295D01*
X008840Y009284D01*
X008887Y009270D01*
X008933Y009251D01*
X008978Y009229D01*
X009021Y009204D01*
X009061Y009175D01*
X009099Y009143D01*
X009135Y009109D01*
X009168Y009071D01*
X009197Y009031D01*
X009223Y008989D01*
X009246Y008945D01*
X009265Y008899D01*
X009281Y008852D01*
X009293Y008803D01*
X009301Y008754D01*
X009305Y008705D01*
X009305Y008655D01*
X009301Y008606D01*
X009293Y008557D01*
X009281Y008508D01*
X009265Y008461D01*
X009246Y008415D01*
X009223Y008371D01*
X009197Y008329D01*
X009168Y008289D01*
X009135Y008251D01*
X009099Y008217D01*
X009061Y008185D01*
X009021Y008156D01*
X008978Y008131D01*
X008933Y008109D01*
X008887Y008090D01*
X008840Y008076D01*
X008791Y008065D01*
X008742Y008058D01*
X008692Y008055D01*
X008643Y008056D01*
X008593Y008061D01*
X008544Y008070D01*
X008496Y008083D01*
X008449Y008099D01*
X008404Y008119D01*
X008360Y008143D01*
X008319Y008170D01*
X008279Y008200D01*
X008242Y008234D01*
X008208Y008270D01*
X008177Y008309D01*
X008149Y008350D01*
X008125Y008393D01*
X008104Y008438D01*
X008086Y008485D01*
X008073Y008532D01*
X008063Y008581D01*
X008057Y008630D01*
X008055Y008680D01*
D11*
X008680Y008680D03*
X008680Y001930D03*
X001930Y001930D03*
D12*
X006680Y008305D02*
X006682Y008336D01*
X006688Y008367D01*
X006698Y008397D01*
X006711Y008425D01*
X006728Y008452D01*
X006748Y008476D01*
X006771Y008498D01*
X006796Y008516D01*
X006824Y008531D01*
X006853Y008543D01*
X006883Y008551D01*
X006914Y008555D01*
X006946Y008555D01*
X006977Y008551D01*
X007007Y008543D01*
X007036Y008531D01*
X007064Y008516D01*
X007089Y008498D01*
X007112Y008476D01*
X007132Y008452D01*
X007149Y008425D01*
X007162Y008397D01*
X007172Y008367D01*
X007178Y008336D01*
X007180Y008305D01*
X007178Y008274D01*
X007172Y008243D01*
X007162Y008213D01*
X007149Y008185D01*
X007132Y008158D01*
X007112Y008134D01*
X007089Y008112D01*
X007064Y008094D01*
X007036Y008079D01*
X007007Y008067D01*
X006977Y008059D01*
X006946Y008055D01*
X006914Y008055D01*
X006883Y008059D01*
X006853Y008067D01*
X006824Y008079D01*
X006796Y008094D01*
X006771Y008112D01*
X006748Y008134D01*
X006728Y008158D01*
X006711Y008185D01*
X006698Y008213D01*
X006688Y008243D01*
X006682Y008274D01*
X006680Y008305D01*
X006680Y009305D02*
X006682Y009336D01*
X006688Y009367D01*
X006698Y009397D01*
X006711Y009425D01*
X006728Y009452D01*
X006748Y009476D01*
X006771Y009498D01*
X006796Y009516D01*
X006824Y009531D01*
X006853Y009543D01*
X006883Y009551D01*
X006914Y009555D01*
X006946Y009555D01*
X006977Y009551D01*
X007007Y009543D01*
X007036Y009531D01*
X007064Y009516D01*
X007089Y009498D01*
X007112Y009476D01*
X007132Y009452D01*
X007149Y009425D01*
X007162Y009397D01*
X007172Y009367D01*
X007178Y009336D01*
X007180Y009305D01*
X007178Y009274D01*
X007172Y009243D01*
X007162Y009213D01*
X007149Y009185D01*
X007132Y009158D01*
X007112Y009134D01*
X007089Y009112D01*
X007064Y009094D01*
X007036Y009079D01*
X007007Y009067D01*
X006977Y009059D01*
X006946Y009055D01*
X006914Y009055D01*
X006883Y009059D01*
X006853Y009067D01*
X006824Y009079D01*
X006796Y009094D01*
X006771Y009112D01*
X006748Y009134D01*
X006728Y009158D01*
X006711Y009185D01*
X006698Y009213D01*
X006688Y009243D01*
X006682Y009274D01*
X006680Y009305D01*
D13*
X008680Y003805D03*
D14*
X008680Y004805D03*
X008680Y005805D03*
X008680Y006805D03*
X001930Y006805D03*
X001930Y007805D03*
X001930Y005805D03*
X001930Y004805D03*
X001930Y003805D03*
D15*
X002930Y008080D03*
X002930Y008680D03*
X002930Y009280D03*
X005930Y009280D03*
X005930Y008680D03*
X005930Y008080D03*
D16*
X005755Y007305D03*
X005755Y006905D03*
X005755Y006505D03*
X006655Y006505D03*
X006655Y006905D03*
X006655Y007305D03*
D17*
X004555Y005305D03*
D18*
X004555Y008405D03*
X004555Y002205D03*
D19*
X006305Y004970D03*
X006305Y005640D03*
D20*
X007430Y006430D03*
X007555Y005305D03*
X009305Y007430D03*
X007680Y007680D03*
X007430Y008805D03*
X004930Y008055D03*
X004180Y008055D03*
X003555Y008680D03*
X002055Y008680D03*
X003805Y007055D03*
X003430Y006430D03*
X005055Y005305D03*
X003930Y003555D03*
X003430Y001930D03*
X007180Y001930D03*
M02*
