G75*
G70*
%OFA0B0*%
%FSLAX24Y24*%
%IPPOS*%
%LPD*%
%AMOC8*
5,1,8,0,0,1.08239X$1,22.5*
%
%ADD10C,0.0000*%
%ADD11R,0.0740X0.0740*%
%ADD12C,0.0740*%
%ADD13R,0.0630X0.0460*%
%ADD14R,0.0500X0.0250*%
%ADD15C,0.0515*%
%ADD16R,0.1560X0.1560*%
%ADD17R,0.1250X0.1250*%
%ADD18R,0.0591X0.0512*%
%ADD19C,0.0160*%
%ADD20R,0.0396X0.0396*%
D10*
X000680Y001930D02*
X000680Y008680D01*
X000682Y008748D01*
X000687Y008815D01*
X000696Y008882D01*
X000709Y008949D01*
X000726Y009014D01*
X000745Y009079D01*
X000769Y009143D01*
X000796Y009205D01*
X000826Y009266D01*
X000859Y009324D01*
X000895Y009381D01*
X000935Y009436D01*
X000977Y009489D01*
X001023Y009540D01*
X001070Y009587D01*
X001121Y009633D01*
X001174Y009675D01*
X001229Y009715D01*
X001286Y009751D01*
X001344Y009784D01*
X001405Y009814D01*
X001467Y009841D01*
X001531Y009865D01*
X001596Y009884D01*
X001661Y009901D01*
X001728Y009914D01*
X001795Y009923D01*
X001862Y009928D01*
X001930Y009930D01*
X008680Y009930D01*
X008748Y009928D01*
X008815Y009923D01*
X008882Y009914D01*
X008949Y009901D01*
X009014Y009884D01*
X009079Y009865D01*
X009143Y009841D01*
X009205Y009814D01*
X009266Y009784D01*
X009324Y009751D01*
X009381Y009715D01*
X009436Y009675D01*
X009489Y009633D01*
X009540Y009587D01*
X009587Y009540D01*
X009633Y009489D01*
X009675Y009436D01*
X009715Y009381D01*
X009751Y009324D01*
X009784Y009266D01*
X009814Y009205D01*
X009841Y009143D01*
X009865Y009079D01*
X009884Y009014D01*
X009901Y008949D01*
X009914Y008882D01*
X009923Y008815D01*
X009928Y008748D01*
X009930Y008680D01*
X009930Y001930D01*
X009928Y001862D01*
X009923Y001795D01*
X009914Y001728D01*
X009901Y001661D01*
X009884Y001596D01*
X009865Y001531D01*
X009841Y001467D01*
X009814Y001405D01*
X009784Y001344D01*
X009751Y001286D01*
X009715Y001229D01*
X009675Y001174D01*
X009633Y001121D01*
X009587Y001070D01*
X009540Y001023D01*
X009489Y000977D01*
X009436Y000935D01*
X009381Y000895D01*
X009324Y000859D01*
X009266Y000826D01*
X009205Y000796D01*
X009143Y000769D01*
X009079Y000745D01*
X009014Y000726D01*
X008949Y000709D01*
X008882Y000696D01*
X008815Y000687D01*
X008748Y000682D01*
X008680Y000680D01*
X001930Y000680D01*
X001862Y000682D01*
X001795Y000687D01*
X001728Y000696D01*
X001661Y000709D01*
X001596Y000726D01*
X001531Y000745D01*
X001467Y000769D01*
X001405Y000796D01*
X001344Y000826D01*
X001286Y000859D01*
X001229Y000895D01*
X001174Y000935D01*
X001121Y000977D01*
X001070Y001023D01*
X001023Y001070D01*
X000977Y001121D01*
X000935Y001174D01*
X000895Y001229D01*
X000859Y001286D01*
X000826Y001344D01*
X000796Y001405D01*
X000769Y001467D01*
X000745Y001531D01*
X000726Y001596D01*
X000709Y001661D01*
X000696Y001728D01*
X000687Y001795D01*
X000682Y001862D01*
X000680Y001930D01*
X001305Y001930D02*
X001307Y001980D01*
X001313Y002029D01*
X001323Y002078D01*
X001336Y002125D01*
X001354Y002172D01*
X001375Y002217D01*
X001399Y002260D01*
X001427Y002301D01*
X001458Y002340D01*
X001492Y002376D01*
X001529Y002410D01*
X001569Y002440D01*
X001610Y002467D01*
X001654Y002491D01*
X001699Y002511D01*
X001746Y002527D01*
X001794Y002540D01*
X001843Y002549D01*
X001893Y002554D01*
X001942Y002555D01*
X001992Y002552D01*
X002041Y002545D01*
X002090Y002534D01*
X002137Y002520D01*
X002183Y002501D01*
X002228Y002479D01*
X002271Y002454D01*
X002311Y002425D01*
X002349Y002393D01*
X002385Y002359D01*
X002418Y002321D01*
X002447Y002281D01*
X002473Y002239D01*
X002496Y002195D01*
X002515Y002149D01*
X002531Y002102D01*
X002543Y002053D01*
X002551Y002004D01*
X002555Y001955D01*
X002555Y001905D01*
X002551Y001856D01*
X002543Y001807D01*
X002531Y001758D01*
X002515Y001711D01*
X002496Y001665D01*
X002473Y001621D01*
X002447Y001579D01*
X002418Y001539D01*
X002385Y001501D01*
X002349Y001467D01*
X002311Y001435D01*
X002271Y001406D01*
X002228Y001381D01*
X002183Y001359D01*
X002137Y001340D01*
X002090Y001326D01*
X002041Y001315D01*
X001992Y001308D01*
X001942Y001305D01*
X001893Y001306D01*
X001843Y001311D01*
X001794Y001320D01*
X001746Y001333D01*
X001699Y001349D01*
X001654Y001369D01*
X001610Y001393D01*
X001569Y001420D01*
X001529Y001450D01*
X001492Y001484D01*
X001458Y001520D01*
X001427Y001559D01*
X001399Y001600D01*
X001375Y001643D01*
X001354Y001688D01*
X001336Y001735D01*
X001323Y001782D01*
X001313Y001831D01*
X001307Y001880D01*
X001305Y001930D01*
X008055Y001930D02*
X008057Y001980D01*
X008063Y002029D01*
X008073Y002078D01*
X008086Y002125D01*
X008104Y002172D01*
X008125Y002217D01*
X008149Y002260D01*
X008177Y002301D01*
X008208Y002340D01*
X008242Y002376D01*
X008279Y002410D01*
X008319Y002440D01*
X008360Y002467D01*
X008404Y002491D01*
X008449Y002511D01*
X008496Y002527D01*
X008544Y002540D01*
X008593Y002549D01*
X008643Y002554D01*
X008692Y002555D01*
X008742Y002552D01*
X008791Y002545D01*
X008840Y002534D01*
X008887Y002520D01*
X008933Y002501D01*
X008978Y002479D01*
X009021Y002454D01*
X009061Y002425D01*
X009099Y002393D01*
X009135Y002359D01*
X009168Y002321D01*
X009197Y002281D01*
X009223Y002239D01*
X009246Y002195D01*
X009265Y002149D01*
X009281Y002102D01*
X009293Y002053D01*
X009301Y002004D01*
X009305Y001955D01*
X009305Y001905D01*
X009301Y001856D01*
X009293Y001807D01*
X009281Y001758D01*
X009265Y001711D01*
X009246Y001665D01*
X009223Y001621D01*
X009197Y001579D01*
X009168Y001539D01*
X009135Y001501D01*
X009099Y001467D01*
X009061Y001435D01*
X009021Y001406D01*
X008978Y001381D01*
X008933Y001359D01*
X008887Y001340D01*
X008840Y001326D01*
X008791Y001315D01*
X008742Y001308D01*
X008692Y001305D01*
X008643Y001306D01*
X008593Y001311D01*
X008544Y001320D01*
X008496Y001333D01*
X008449Y001349D01*
X008404Y001369D01*
X008360Y001393D01*
X008319Y001420D01*
X008279Y001450D01*
X008242Y001484D01*
X008208Y001520D01*
X008177Y001559D01*
X008149Y001600D01*
X008125Y001643D01*
X008104Y001688D01*
X008086Y001735D01*
X008073Y001782D01*
X008063Y001831D01*
X008057Y001880D01*
X008055Y001930D01*
X008055Y008680D02*
X008057Y008730D01*
X008063Y008779D01*
X008073Y008828D01*
X008086Y008875D01*
X008104Y008922D01*
X008125Y008967D01*
X008149Y009010D01*
X008177Y009051D01*
X008208Y009090D01*
X008242Y009126D01*
X008279Y009160D01*
X008319Y009190D01*
X008360Y009217D01*
X008404Y009241D01*
X008449Y009261D01*
X008496Y009277D01*
X008544Y009290D01*
X008593Y009299D01*
X008643Y009304D01*
X008692Y009305D01*
X008742Y009302D01*
X008791Y009295D01*
X008840Y009284D01*
X008887Y009270D01*
X008933Y009251D01*
X008978Y009229D01*
X009021Y009204D01*
X009061Y009175D01*
X009099Y009143D01*
X009135Y009109D01*
X009168Y009071D01*
X009197Y009031D01*
X009223Y008989D01*
X009246Y008945D01*
X009265Y008899D01*
X009281Y008852D01*
X009293Y008803D01*
X009301Y008754D01*
X009305Y008705D01*
X009305Y008655D01*
X009301Y008606D01*
X009293Y008557D01*
X009281Y008508D01*
X009265Y008461D01*
X009246Y008415D01*
X009223Y008371D01*
X009197Y008329D01*
X009168Y008289D01*
X009135Y008251D01*
X009099Y008217D01*
X009061Y008185D01*
X009021Y008156D01*
X008978Y008131D01*
X008933Y008109D01*
X008887Y008090D01*
X008840Y008076D01*
X008791Y008065D01*
X008742Y008058D01*
X008692Y008055D01*
X008643Y008056D01*
X008593Y008061D01*
X008544Y008070D01*
X008496Y008083D01*
X008449Y008099D01*
X008404Y008119D01*
X008360Y008143D01*
X008319Y008170D01*
X008279Y008200D01*
X008242Y008234D01*
X008208Y008270D01*
X008177Y008309D01*
X008149Y008350D01*
X008125Y008393D01*
X008104Y008438D01*
X008086Y008485D01*
X008073Y008532D01*
X008063Y008581D01*
X008057Y008630D01*
X008055Y008680D01*
D11*
X008680Y003805D03*
D12*
X008680Y004805D03*
X008680Y005805D03*
X008680Y006805D03*
X001930Y006805D03*
X001930Y007805D03*
X001930Y005805D03*
X001930Y004805D03*
X001930Y003805D03*
D13*
X002930Y008080D03*
X002930Y008680D03*
X002930Y009280D03*
X005930Y009280D03*
X005930Y008680D03*
X005930Y008080D03*
D14*
X005755Y007305D03*
X005755Y006905D03*
X005755Y006505D03*
X006655Y006505D03*
X006655Y006905D03*
X006655Y007305D03*
D15*
X006930Y008305D03*
X006930Y009305D03*
D16*
X004555Y005305D03*
D17*
X004555Y008405D03*
X004555Y002205D03*
D18*
X006305Y004970D03*
X006305Y005640D03*
D19*
X006720Y005805D01*
X007055Y005805D01*
X007555Y005305D01*
X008055Y004805D01*
X008680Y004805D01*
X007930Y004055D01*
X002680Y004055D01*
X001930Y004805D01*
X001305Y005430D01*
X001305Y008680D01*
X001930Y009305D01*
X003305Y009305D01*
X005780Y009305D01*
X005930Y009280D01*
X005455Y009065D02*
X005455Y008984D01*
X005459Y008980D01*
X005455Y008976D01*
X005455Y008393D01*
X005447Y008379D01*
X005435Y008334D01*
X005435Y008115D01*
X005895Y008115D01*
X005895Y008045D01*
X005965Y008045D01*
X005965Y008115D01*
X006425Y008115D01*
X006425Y008334D01*
X006413Y008379D01*
X006405Y008393D01*
X006405Y008565D01*
X006600Y008565D01*
X006576Y008541D01*
X006513Y008388D01*
X006513Y008222D01*
X006576Y008069D01*
X006694Y007951D01*
X006847Y007888D01*
X007013Y007888D01*
X007166Y007951D01*
X007284Y008069D01*
X007347Y008222D01*
X007347Y008388D01*
X007323Y008447D01*
X007598Y008447D01*
X007650Y008253D01*
X007796Y008002D01*
X008002Y007796D01*
X008219Y007670D01*
X008132Y007670D01*
X008044Y007633D01*
X007977Y007566D01*
X007956Y007545D01*
X007016Y007545D01*
X006971Y007590D01*
X006339Y007590D01*
X006245Y007496D01*
X006245Y007114D01*
X006245Y007113D01*
X006237Y007099D01*
X006225Y007054D01*
X006225Y006905D01*
X006655Y006905D01*
X006630Y006930D01*
X006305Y006930D01*
X006180Y007055D01*
X006180Y007680D01*
X005930Y007930D01*
X005930Y008080D01*
X005965Y008045D02*
X005965Y007670D01*
X006269Y007670D01*
X006314Y007682D01*
X006356Y007706D01*
X006389Y007739D01*
X006413Y007781D01*
X006425Y007826D01*
X006425Y008045D01*
X005965Y008045D01*
X005895Y008045D02*
X005895Y007670D01*
X005591Y007670D01*
X005546Y007682D01*
X005504Y007706D01*
X005471Y007739D01*
X005447Y007781D01*
X005435Y007826D01*
X005435Y008045D01*
X005895Y008045D01*
X005895Y007971D02*
X005965Y007971D01*
X005965Y007813D02*
X005895Y007813D01*
X005691Y007633D02*
X005603Y007670D01*
X005296Y007670D01*
X005340Y007714D01*
X005340Y009065D01*
X005455Y009065D01*
X005455Y008922D02*
X005340Y008922D01*
X005340Y008764D02*
X005455Y008764D01*
X005455Y008605D02*
X005340Y008605D01*
X005340Y008447D02*
X005455Y008447D01*
X005435Y008288D02*
X005340Y008288D01*
X005340Y008130D02*
X005435Y008130D01*
X005435Y007971D02*
X005340Y007971D01*
X005340Y007813D02*
X005439Y007813D01*
X005641Y007654D02*
X008094Y007654D01*
X007985Y007813D02*
X006421Y007813D01*
X006425Y007971D02*
X006674Y007971D01*
X006551Y008130D02*
X006425Y008130D01*
X006425Y008288D02*
X006513Y008288D01*
X006537Y008447D02*
X006405Y008447D01*
X006055Y008805D02*
X007430Y008805D01*
X007323Y008447D02*
X007599Y008447D01*
X007641Y008288D02*
X007347Y008288D01*
X007309Y008130D02*
X007722Y008130D01*
X007826Y007971D02*
X007186Y007971D01*
X006655Y007305D02*
X008055Y007305D01*
X008180Y007430D01*
X009305Y007430D01*
X008680Y006805D02*
X009305Y006180D01*
X009305Y003305D01*
X009180Y003180D01*
X008180Y003180D01*
X007805Y003555D01*
X003930Y003555D01*
X004288Y003795D02*
X004288Y003815D01*
X007978Y003815D01*
X008066Y003852D01*
X008130Y003916D01*
X008130Y003825D01*
X008660Y003825D01*
X008660Y003785D01*
X008130Y003785D01*
X008130Y003569D01*
X008008Y003691D01*
X007941Y003758D01*
X007853Y003795D01*
X004288Y003795D01*
X004288Y003315D02*
X007706Y003315D01*
X008044Y002977D01*
X008132Y002940D01*
X008219Y002940D01*
X008002Y002814D01*
X007796Y002608D01*
X007650Y002357D01*
X007575Y002075D01*
X007575Y001785D01*
X007650Y001503D01*
X007796Y001252D01*
X007887Y001160D01*
X002723Y001160D01*
X002814Y001252D01*
X002960Y001503D01*
X003035Y001785D01*
X003035Y002075D01*
X002960Y002357D01*
X002814Y002608D01*
X002608Y002814D01*
X002357Y002960D01*
X002075Y003035D01*
X001785Y003035D01*
X001503Y002960D01*
X001252Y002814D01*
X001160Y002723D01*
X001160Y005236D01*
X001425Y004971D01*
X001400Y004910D01*
X001400Y004700D01*
X001481Y004505D01*
X001630Y004356D01*
X001724Y004316D01*
X001719Y004315D01*
X001642Y004275D01*
X001572Y004225D01*
X001510Y004163D01*
X001460Y004093D01*
X001420Y004016D01*
X001394Y003934D01*
X001380Y003848D01*
X001380Y003825D01*
X001910Y003825D01*
X001910Y003785D01*
X001950Y003785D01*
X001950Y003825D01*
X002480Y003825D01*
X002480Y003848D01*
X002467Y003928D01*
X002544Y003852D01*
X002632Y003815D01*
X003572Y003815D01*
X003572Y003291D01*
X003666Y003197D01*
X004194Y003197D01*
X004288Y003291D01*
X004288Y003315D01*
X004213Y003216D02*
X007805Y003216D01*
X007963Y003058D02*
X001160Y003058D01*
X001160Y002899D02*
X001398Y002899D01*
X001178Y002741D02*
X001160Y002741D01*
X001160Y003216D02*
X003647Y003216D01*
X003572Y003375D02*
X002273Y003375D01*
X002288Y003385D02*
X002350Y003447D01*
X002400Y003517D01*
X002440Y003594D01*
X002466Y003676D01*
X002480Y003762D01*
X002480Y003785D01*
X001950Y003785D01*
X001950Y003255D01*
X001973Y003255D01*
X002059Y003269D01*
X002141Y003295D01*
X002218Y003335D01*
X002288Y003385D01*
X002409Y003533D02*
X003572Y003533D01*
X003572Y003692D02*
X002469Y003692D01*
X002480Y003850D02*
X002548Y003850D01*
X002779Y004295D02*
X002435Y004639D01*
X002460Y004700D01*
X002460Y004910D01*
X002379Y005105D01*
X002230Y005254D01*
X002108Y005305D01*
X002230Y005356D01*
X002379Y005505D01*
X002460Y005700D01*
X002460Y005910D01*
X002379Y006105D01*
X002230Y006254D01*
X002108Y006305D01*
X002230Y006356D01*
X002379Y006505D01*
X002404Y006565D01*
X002478Y006565D01*
X002566Y006602D01*
X002633Y006669D01*
X003154Y007190D01*
X003447Y007190D01*
X003447Y006791D01*
X003541Y006697D01*
X003830Y006697D01*
X003907Y006665D01*
X005345Y006665D01*
X005345Y006314D01*
X005408Y006251D01*
X005404Y006253D01*
X005359Y006265D01*
X004635Y006265D01*
X004635Y005385D01*
X005515Y005385D01*
X005515Y006109D01*
X005503Y006154D01*
X005479Y006196D01*
X005455Y006220D01*
X005676Y006220D01*
X005892Y006004D01*
X005850Y005962D01*
X005850Y005317D01*
X005853Y005314D01*
X005842Y005296D01*
X005830Y005250D01*
X005830Y005018D01*
X006257Y005018D01*
X006257Y004922D01*
X006353Y004922D01*
X006353Y004534D01*
X006624Y004534D01*
X006670Y004547D01*
X006711Y004570D01*
X006744Y004604D01*
X006768Y004645D01*
X006780Y004691D01*
X006780Y004922D01*
X006353Y004922D01*
X006353Y005018D01*
X006780Y005018D01*
X006780Y005250D01*
X006768Y005296D01*
X006757Y005314D01*
X006760Y005317D01*
X006760Y005548D01*
X006766Y005562D01*
X006768Y005565D01*
X006956Y005565D01*
X007197Y005324D01*
X007197Y005041D01*
X007291Y004947D01*
X007574Y004947D01*
X007852Y004669D01*
X007919Y004602D01*
X008007Y004565D01*
X008101Y004565D01*
X007831Y004295D01*
X002779Y004295D01*
X002749Y004326D02*
X007861Y004326D01*
X008020Y004484D02*
X005510Y004484D01*
X005515Y004501D02*
X005515Y005225D01*
X004635Y005225D01*
X004635Y005385D01*
X004475Y005385D01*
X004475Y006265D01*
X003751Y006265D01*
X003706Y006253D01*
X003664Y006229D01*
X003631Y006196D01*
X003607Y006154D01*
X003595Y006109D01*
X003595Y005385D01*
X004475Y005385D01*
X004475Y005225D01*
X004635Y005225D01*
X004635Y004345D01*
X005359Y004345D01*
X005404Y004357D01*
X005446Y004381D01*
X005479Y004414D01*
X005503Y004456D01*
X005515Y004501D01*
X005515Y004643D02*
X005843Y004643D01*
X005842Y004645D02*
X005866Y004604D01*
X005899Y004570D01*
X005940Y004547D01*
X005986Y004534D01*
X006257Y004534D01*
X006257Y004922D01*
X005830Y004922D01*
X005830Y004691D01*
X005842Y004645D01*
X005830Y004801D02*
X005515Y004801D01*
X005515Y004960D02*
X006257Y004960D01*
X006305Y004970D02*
X005390Y004970D01*
X005055Y005305D01*
X004635Y005277D02*
X005837Y005277D01*
X005830Y005118D02*
X005515Y005118D01*
X005515Y005435D02*
X005850Y005435D01*
X005850Y005594D02*
X005515Y005594D01*
X005515Y005752D02*
X005850Y005752D01*
X005850Y005911D02*
X005515Y005911D01*
X005515Y006069D02*
X005827Y006069D01*
X005805Y006430D02*
X005805Y006455D01*
X005755Y006505D01*
X005805Y006430D02*
X006555Y005680D01*
X006305Y005640D01*
X006676Y006046D02*
X006667Y006056D01*
X006519Y006056D01*
X006354Y006220D01*
X006610Y006220D01*
X006682Y006190D01*
X007072Y006190D01*
X007072Y006166D01*
X007166Y006072D01*
X007694Y006072D01*
X007788Y006166D01*
X007788Y006694D01*
X007694Y006788D01*
X007166Y006788D01*
X007072Y006694D01*
X007072Y006670D01*
X007065Y006670D01*
X007065Y006696D01*
X007065Y006697D01*
X007073Y006711D01*
X007085Y006756D01*
X007085Y006905D01*
X007085Y007054D01*
X007082Y007065D01*
X008103Y007065D01*
X008191Y007102D01*
X008279Y007190D01*
X008315Y007190D01*
X008231Y007105D01*
X008150Y006910D01*
X008150Y006700D01*
X008231Y006505D01*
X008380Y006356D01*
X008502Y006305D01*
X008380Y006254D01*
X008231Y006105D01*
X008150Y005910D01*
X008150Y005700D01*
X008231Y005505D01*
X008380Y005356D01*
X008502Y005305D01*
X008380Y005254D01*
X008231Y005105D01*
X008206Y005045D01*
X008154Y005045D01*
X007913Y005286D01*
X007913Y005569D01*
X007819Y005663D01*
X007536Y005663D01*
X007191Y006008D01*
X007103Y006045D01*
X006722Y006045D01*
X006676Y006046D01*
X006505Y006069D02*
X008216Y006069D01*
X008353Y006228D02*
X007788Y006228D01*
X007788Y006386D02*
X008349Y006386D01*
X008214Y006545D02*
X007788Y006545D01*
X007779Y006703D02*
X008150Y006703D01*
X008150Y006862D02*
X007085Y006862D01*
X007085Y006905D02*
X006655Y006905D01*
X006655Y006905D01*
X006655Y007020D01*
X006655Y007020D01*
X006655Y006905D01*
X007085Y006905D01*
X007085Y007020D02*
X008195Y007020D01*
X008268Y007179D02*
X008304Y007179D01*
X007430Y006430D02*
X006730Y006430D01*
X006655Y006505D01*
X006655Y006790D02*
X006655Y006905D01*
X006655Y006905D01*
X006655Y006790D01*
X006655Y006790D01*
X006655Y006862D02*
X006655Y006862D01*
X006655Y006905D02*
X006655Y006905D01*
X006655Y006905D01*
X006225Y006905D01*
X006225Y006756D01*
X006237Y006711D01*
X006245Y006697D01*
X006245Y006696D01*
X006245Y006329D01*
X006165Y006409D01*
X006165Y006696D01*
X006156Y006705D01*
X006165Y006714D01*
X006165Y007096D01*
X006156Y007105D01*
X006165Y007114D01*
X006165Y007496D01*
X006071Y007590D01*
X005734Y007590D01*
X005691Y007633D01*
X005555Y007430D02*
X003055Y007430D01*
X002430Y006805D01*
X001930Y006805D01*
X002306Y007179D02*
X002464Y007179D01*
X002379Y007105D02*
X002383Y007097D01*
X002919Y007633D01*
X003007Y007670D01*
X003814Y007670D01*
X003770Y007714D01*
X003770Y008322D01*
X003425Y008322D01*
X003425Y008115D01*
X002965Y008115D01*
X002965Y008045D01*
X003425Y008045D01*
X003425Y007826D01*
X003413Y007781D01*
X003389Y007739D01*
X003356Y007706D01*
X003314Y007682D01*
X003269Y007670D01*
X002965Y007670D01*
X002965Y008045D01*
X002895Y008045D01*
X002435Y008045D01*
X002435Y007971D01*
X002435Y007971D01*
X002379Y008105D01*
X002230Y008254D01*
X002035Y008335D01*
X001825Y008335D01*
X001630Y008254D01*
X001545Y008170D01*
X001545Y008581D01*
X002029Y009065D01*
X002455Y009065D01*
X002455Y008984D01*
X002459Y008980D01*
X002455Y008976D01*
X002455Y008393D01*
X002447Y008379D01*
X002435Y008334D01*
X002435Y008115D01*
X002895Y008115D01*
X002895Y008045D01*
X002895Y007670D01*
X002591Y007670D01*
X002546Y007682D01*
X002504Y007706D01*
X002471Y007739D01*
X002460Y007758D01*
X002460Y007700D01*
X002379Y007505D01*
X002230Y007356D01*
X002108Y007305D01*
X002230Y007254D01*
X002379Y007105D01*
X002185Y007337D02*
X002623Y007337D01*
X002781Y007496D02*
X002370Y007496D01*
X002441Y007654D02*
X002969Y007654D01*
X002965Y007813D02*
X002895Y007813D01*
X002895Y007971D02*
X002965Y007971D01*
X002905Y008055D02*
X002930Y008080D01*
X002905Y008055D02*
X002680Y008055D01*
X002080Y008655D01*
X002080Y008680D01*
X002055Y008680D01*
X001886Y008922D02*
X002455Y008922D01*
X002455Y008764D02*
X001728Y008764D01*
X001569Y008605D02*
X002455Y008605D01*
X002455Y008447D02*
X001545Y008447D01*
X001545Y008288D02*
X001711Y008288D01*
X002149Y008288D02*
X002435Y008288D01*
X002435Y008130D02*
X002355Y008130D01*
X002930Y008680D02*
X003555Y008680D01*
X003425Y008288D02*
X003770Y008288D01*
X003770Y008130D02*
X003425Y008130D01*
X003425Y007971D02*
X003770Y007971D01*
X003770Y007813D02*
X003421Y007813D01*
X003447Y007179D02*
X003143Y007179D01*
X002984Y007020D02*
X003447Y007020D01*
X003447Y006862D02*
X002826Y006862D01*
X002667Y006703D02*
X003534Y006703D01*
X003805Y007055D02*
X003955Y006905D01*
X005755Y006905D01*
X005755Y007305D02*
X005680Y007305D01*
X005555Y007430D01*
X006165Y007496D02*
X006245Y007496D01*
X006245Y007337D02*
X006165Y007337D01*
X006165Y007179D02*
X006245Y007179D01*
X006225Y007020D02*
X006165Y007020D01*
X006165Y006862D02*
X006225Y006862D01*
X006242Y006703D02*
X006158Y006703D01*
X006165Y006545D02*
X006245Y006545D01*
X006245Y006386D02*
X006188Y006386D01*
X005345Y006386D02*
X002261Y006386D01*
X002396Y006545D02*
X005345Y006545D01*
X004635Y006228D02*
X004475Y006228D01*
X004475Y006069D02*
X004635Y006069D01*
X004635Y005911D02*
X004475Y005911D01*
X004475Y005752D02*
X004635Y005752D01*
X004635Y005594D02*
X004475Y005594D01*
X004475Y005435D02*
X004635Y005435D01*
X004475Y005277D02*
X002177Y005277D01*
X002310Y005435D02*
X003595Y005435D01*
X003595Y005594D02*
X002416Y005594D01*
X002460Y005752D02*
X003595Y005752D01*
X003595Y005911D02*
X002460Y005911D01*
X002394Y006069D02*
X003595Y006069D01*
X003663Y006228D02*
X002257Y006228D01*
X002367Y005118D02*
X003595Y005118D01*
X003595Y005225D02*
X003595Y004501D01*
X003607Y004456D01*
X003631Y004414D01*
X003664Y004381D01*
X003706Y004357D01*
X003751Y004345D01*
X004475Y004345D01*
X004475Y005225D01*
X003595Y005225D01*
X003595Y004960D02*
X002440Y004960D01*
X002460Y004801D02*
X003595Y004801D01*
X003595Y004643D02*
X002436Y004643D01*
X002590Y004484D02*
X003600Y004484D01*
X004475Y004484D02*
X004635Y004484D01*
X004635Y004643D02*
X004475Y004643D01*
X004475Y004801D02*
X004635Y004801D01*
X004635Y004960D02*
X004475Y004960D01*
X004475Y005118D02*
X004635Y005118D01*
X006257Y004801D02*
X006353Y004801D01*
X006353Y004960D02*
X007278Y004960D01*
X007197Y005118D02*
X006780Y005118D01*
X006773Y005277D02*
X007197Y005277D01*
X007086Y005435D02*
X006760Y005435D01*
X007289Y005911D02*
X008150Y005911D01*
X008150Y005752D02*
X007447Y005752D01*
X007889Y005594D02*
X008194Y005594D01*
X008300Y005435D02*
X007913Y005435D01*
X007923Y005277D02*
X008433Y005277D01*
X008243Y005118D02*
X008081Y005118D01*
X007720Y004801D02*
X006780Y004801D01*
X006767Y004643D02*
X007878Y004643D01*
X007852Y004669D02*
X007852Y004669D01*
X008062Y003850D02*
X008130Y003850D01*
X008130Y003692D02*
X008008Y003692D01*
X008148Y002899D02*
X005337Y002899D01*
X005340Y002896D02*
X005246Y002990D01*
X003864Y002990D01*
X003770Y002896D01*
X003770Y001514D01*
X003864Y001420D01*
X005246Y001420D01*
X005340Y001514D01*
X005340Y002896D01*
X005340Y002741D02*
X007928Y002741D01*
X007780Y002582D02*
X005340Y002582D01*
X005340Y002424D02*
X007689Y002424D01*
X007626Y002265D02*
X005340Y002265D01*
X005340Y002107D02*
X007583Y002107D01*
X007575Y001948D02*
X005340Y001948D01*
X005340Y001790D02*
X007575Y001790D01*
X007616Y001631D02*
X005340Y001631D01*
X005299Y001473D02*
X007668Y001473D01*
X007760Y001314D02*
X002850Y001314D01*
X002942Y001473D02*
X003811Y001473D01*
X003770Y001631D02*
X002994Y001631D01*
X003035Y001790D02*
X003770Y001790D01*
X003770Y001948D02*
X003035Y001948D01*
X003027Y002107D02*
X003770Y002107D01*
X003770Y002265D02*
X002984Y002265D01*
X002921Y002424D02*
X003770Y002424D01*
X003770Y002582D02*
X002830Y002582D01*
X002682Y002741D02*
X003770Y002741D01*
X003773Y002899D02*
X002462Y002899D01*
X001910Y003255D02*
X001910Y003785D01*
X001380Y003785D01*
X001380Y003762D01*
X001394Y003676D01*
X001420Y003594D01*
X001460Y003517D01*
X001510Y003447D01*
X001572Y003385D01*
X001642Y003335D01*
X001719Y003295D01*
X001801Y003269D01*
X001887Y003255D01*
X001910Y003255D01*
X001910Y003375D02*
X001950Y003375D01*
X001950Y003533D02*
X001910Y003533D01*
X001910Y003692D02*
X001950Y003692D01*
X001587Y003375D02*
X001160Y003375D01*
X001160Y003533D02*
X001451Y003533D01*
X001391Y003692D02*
X001160Y003692D01*
X001160Y003850D02*
X001380Y003850D01*
X001418Y004009D02*
X001160Y004009D01*
X001160Y004167D02*
X001514Y004167D01*
X001703Y004326D02*
X001160Y004326D01*
X001160Y004484D02*
X001501Y004484D01*
X001424Y004643D02*
X001160Y004643D01*
X001160Y004801D02*
X001400Y004801D01*
X001420Y004960D02*
X001160Y004960D01*
X001160Y005118D02*
X001278Y005118D01*
X004180Y008055D02*
X004205Y008055D01*
X004555Y008405D01*
X004905Y008055D01*
X004930Y008055D01*
X004180Y008805D01*
X004180Y008055D02*
X004930Y008805D01*
X005930Y008680D02*
X006055Y008805D01*
X007068Y006703D02*
X007081Y006703D01*
X006353Y004643D02*
X006257Y004643D01*
X003305Y009305D02*
X002905Y009405D01*
X002930Y009280D01*
D20*
X003555Y008680D03*
X004180Y008055D03*
X004930Y008055D03*
X003805Y007055D03*
X003430Y006430D03*
X005055Y005305D03*
X003930Y003555D03*
X003430Y001930D03*
X007180Y001930D03*
X007555Y005305D03*
X007430Y006430D03*
X007680Y007680D03*
X007430Y008805D03*
X009305Y007430D03*
X002055Y008680D03*
M02*
