G75*
G70*
%OFA0B0*%
%FSLAX24Y24*%
%IPPOS*%
%LPD*%
%AMOC8*
5,1,8,0,0,1.08239X$1,22.5*
%
%ADD10C,0.0000*%
%ADD11R,0.0740X0.0740*%
%ADD12C,0.0740*%
%ADD13R,0.0630X0.0460*%
%ADD14R,0.0500X0.0250*%
%ADD15C,0.0472*%
%ADD16R,0.1560X0.1560*%
%ADD17R,0.1250X0.1250*%
%ADD18R,0.0591X0.0512*%
%ADD19C,0.0160*%
%ADD20R,0.0356X0.0356*%
D10*
X000680Y001930D02*
X000680Y008680D01*
X000682Y008748D01*
X000687Y008815D01*
X000696Y008882D01*
X000709Y008949D01*
X000726Y009014D01*
X000745Y009079D01*
X000769Y009143D01*
X000796Y009205D01*
X000826Y009266D01*
X000859Y009324D01*
X000895Y009381D01*
X000935Y009436D01*
X000977Y009489D01*
X001023Y009540D01*
X001070Y009587D01*
X001121Y009633D01*
X001174Y009675D01*
X001229Y009715D01*
X001286Y009751D01*
X001344Y009784D01*
X001405Y009814D01*
X001467Y009841D01*
X001531Y009865D01*
X001596Y009884D01*
X001661Y009901D01*
X001728Y009914D01*
X001795Y009923D01*
X001862Y009928D01*
X001930Y009930D01*
X008680Y009930D01*
X008748Y009928D01*
X008815Y009923D01*
X008882Y009914D01*
X008949Y009901D01*
X009014Y009884D01*
X009079Y009865D01*
X009143Y009841D01*
X009205Y009814D01*
X009266Y009784D01*
X009324Y009751D01*
X009381Y009715D01*
X009436Y009675D01*
X009489Y009633D01*
X009540Y009587D01*
X009587Y009540D01*
X009633Y009489D01*
X009675Y009436D01*
X009715Y009381D01*
X009751Y009324D01*
X009784Y009266D01*
X009814Y009205D01*
X009841Y009143D01*
X009865Y009079D01*
X009884Y009014D01*
X009901Y008949D01*
X009914Y008882D01*
X009923Y008815D01*
X009928Y008748D01*
X009930Y008680D01*
X009930Y001930D01*
X009928Y001862D01*
X009923Y001795D01*
X009914Y001728D01*
X009901Y001661D01*
X009884Y001596D01*
X009865Y001531D01*
X009841Y001467D01*
X009814Y001405D01*
X009784Y001344D01*
X009751Y001286D01*
X009715Y001229D01*
X009675Y001174D01*
X009633Y001121D01*
X009587Y001070D01*
X009540Y001023D01*
X009489Y000977D01*
X009436Y000935D01*
X009381Y000895D01*
X009324Y000859D01*
X009266Y000826D01*
X009205Y000796D01*
X009143Y000769D01*
X009079Y000745D01*
X009014Y000726D01*
X008949Y000709D01*
X008882Y000696D01*
X008815Y000687D01*
X008748Y000682D01*
X008680Y000680D01*
X001930Y000680D01*
X001862Y000682D01*
X001795Y000687D01*
X001728Y000696D01*
X001661Y000709D01*
X001596Y000726D01*
X001531Y000745D01*
X001467Y000769D01*
X001405Y000796D01*
X001344Y000826D01*
X001286Y000859D01*
X001229Y000895D01*
X001174Y000935D01*
X001121Y000977D01*
X001070Y001023D01*
X001023Y001070D01*
X000977Y001121D01*
X000935Y001174D01*
X000895Y001229D01*
X000859Y001286D01*
X000826Y001344D01*
X000796Y001405D01*
X000769Y001467D01*
X000745Y001531D01*
X000726Y001596D01*
X000709Y001661D01*
X000696Y001728D01*
X000687Y001795D01*
X000682Y001862D01*
X000680Y001930D01*
X001305Y001930D02*
X001307Y001980D01*
X001313Y002029D01*
X001323Y002078D01*
X001336Y002125D01*
X001354Y002172D01*
X001375Y002217D01*
X001399Y002260D01*
X001427Y002301D01*
X001458Y002340D01*
X001492Y002376D01*
X001529Y002410D01*
X001569Y002440D01*
X001610Y002467D01*
X001654Y002491D01*
X001699Y002511D01*
X001746Y002527D01*
X001794Y002540D01*
X001843Y002549D01*
X001893Y002554D01*
X001942Y002555D01*
X001992Y002552D01*
X002041Y002545D01*
X002090Y002534D01*
X002137Y002520D01*
X002183Y002501D01*
X002228Y002479D01*
X002271Y002454D01*
X002311Y002425D01*
X002349Y002393D01*
X002385Y002359D01*
X002418Y002321D01*
X002447Y002281D01*
X002473Y002239D01*
X002496Y002195D01*
X002515Y002149D01*
X002531Y002102D01*
X002543Y002053D01*
X002551Y002004D01*
X002555Y001955D01*
X002555Y001905D01*
X002551Y001856D01*
X002543Y001807D01*
X002531Y001758D01*
X002515Y001711D01*
X002496Y001665D01*
X002473Y001621D01*
X002447Y001579D01*
X002418Y001539D01*
X002385Y001501D01*
X002349Y001467D01*
X002311Y001435D01*
X002271Y001406D01*
X002228Y001381D01*
X002183Y001359D01*
X002137Y001340D01*
X002090Y001326D01*
X002041Y001315D01*
X001992Y001308D01*
X001942Y001305D01*
X001893Y001306D01*
X001843Y001311D01*
X001794Y001320D01*
X001746Y001333D01*
X001699Y001349D01*
X001654Y001369D01*
X001610Y001393D01*
X001569Y001420D01*
X001529Y001450D01*
X001492Y001484D01*
X001458Y001520D01*
X001427Y001559D01*
X001399Y001600D01*
X001375Y001643D01*
X001354Y001688D01*
X001336Y001735D01*
X001323Y001782D01*
X001313Y001831D01*
X001307Y001880D01*
X001305Y001930D01*
X008055Y001930D02*
X008057Y001980D01*
X008063Y002029D01*
X008073Y002078D01*
X008086Y002125D01*
X008104Y002172D01*
X008125Y002217D01*
X008149Y002260D01*
X008177Y002301D01*
X008208Y002340D01*
X008242Y002376D01*
X008279Y002410D01*
X008319Y002440D01*
X008360Y002467D01*
X008404Y002491D01*
X008449Y002511D01*
X008496Y002527D01*
X008544Y002540D01*
X008593Y002549D01*
X008643Y002554D01*
X008692Y002555D01*
X008742Y002552D01*
X008791Y002545D01*
X008840Y002534D01*
X008887Y002520D01*
X008933Y002501D01*
X008978Y002479D01*
X009021Y002454D01*
X009061Y002425D01*
X009099Y002393D01*
X009135Y002359D01*
X009168Y002321D01*
X009197Y002281D01*
X009223Y002239D01*
X009246Y002195D01*
X009265Y002149D01*
X009281Y002102D01*
X009293Y002053D01*
X009301Y002004D01*
X009305Y001955D01*
X009305Y001905D01*
X009301Y001856D01*
X009293Y001807D01*
X009281Y001758D01*
X009265Y001711D01*
X009246Y001665D01*
X009223Y001621D01*
X009197Y001579D01*
X009168Y001539D01*
X009135Y001501D01*
X009099Y001467D01*
X009061Y001435D01*
X009021Y001406D01*
X008978Y001381D01*
X008933Y001359D01*
X008887Y001340D01*
X008840Y001326D01*
X008791Y001315D01*
X008742Y001308D01*
X008692Y001305D01*
X008643Y001306D01*
X008593Y001311D01*
X008544Y001320D01*
X008496Y001333D01*
X008449Y001349D01*
X008404Y001369D01*
X008360Y001393D01*
X008319Y001420D01*
X008279Y001450D01*
X008242Y001484D01*
X008208Y001520D01*
X008177Y001559D01*
X008149Y001600D01*
X008125Y001643D01*
X008104Y001688D01*
X008086Y001735D01*
X008073Y001782D01*
X008063Y001831D01*
X008057Y001880D01*
X008055Y001930D01*
X008055Y008680D02*
X008057Y008730D01*
X008063Y008779D01*
X008073Y008828D01*
X008086Y008875D01*
X008104Y008922D01*
X008125Y008967D01*
X008149Y009010D01*
X008177Y009051D01*
X008208Y009090D01*
X008242Y009126D01*
X008279Y009160D01*
X008319Y009190D01*
X008360Y009217D01*
X008404Y009241D01*
X008449Y009261D01*
X008496Y009277D01*
X008544Y009290D01*
X008593Y009299D01*
X008643Y009304D01*
X008692Y009305D01*
X008742Y009302D01*
X008791Y009295D01*
X008840Y009284D01*
X008887Y009270D01*
X008933Y009251D01*
X008978Y009229D01*
X009021Y009204D01*
X009061Y009175D01*
X009099Y009143D01*
X009135Y009109D01*
X009168Y009071D01*
X009197Y009031D01*
X009223Y008989D01*
X009246Y008945D01*
X009265Y008899D01*
X009281Y008852D01*
X009293Y008803D01*
X009301Y008754D01*
X009305Y008705D01*
X009305Y008655D01*
X009301Y008606D01*
X009293Y008557D01*
X009281Y008508D01*
X009265Y008461D01*
X009246Y008415D01*
X009223Y008371D01*
X009197Y008329D01*
X009168Y008289D01*
X009135Y008251D01*
X009099Y008217D01*
X009061Y008185D01*
X009021Y008156D01*
X008978Y008131D01*
X008933Y008109D01*
X008887Y008090D01*
X008840Y008076D01*
X008791Y008065D01*
X008742Y008058D01*
X008692Y008055D01*
X008643Y008056D01*
X008593Y008061D01*
X008544Y008070D01*
X008496Y008083D01*
X008449Y008099D01*
X008404Y008119D01*
X008360Y008143D01*
X008319Y008170D01*
X008279Y008200D01*
X008242Y008234D01*
X008208Y008270D01*
X008177Y008309D01*
X008149Y008350D01*
X008125Y008393D01*
X008104Y008438D01*
X008086Y008485D01*
X008073Y008532D01*
X008063Y008581D01*
X008057Y008630D01*
X008055Y008680D01*
D11*
X008680Y003805D03*
D12*
X008680Y004805D03*
X008680Y005805D03*
X008680Y006805D03*
X001930Y006805D03*
X001930Y007805D03*
X001930Y005805D03*
X001930Y004805D03*
X001930Y003805D03*
D13*
X002930Y008080D03*
X002930Y008680D03*
X002930Y009280D03*
X006055Y009280D03*
X006055Y008680D03*
X006055Y008080D03*
D14*
X005755Y007305D03*
X005755Y006905D03*
X005755Y006505D03*
X006655Y006505D03*
X006655Y006905D03*
X006655Y007305D03*
D15*
X007055Y008305D03*
X007055Y009305D03*
D16*
X004555Y005305D03*
D17*
X004555Y008405D03*
X004555Y002205D03*
D18*
X006305Y004970D03*
X006305Y005640D03*
D19*
X006720Y005805D01*
X007055Y005805D01*
X007555Y005305D01*
X008055Y004805D01*
X008680Y004805D01*
X007930Y004055D01*
X002680Y004055D01*
X001930Y004805D01*
X001305Y005430D01*
X001305Y008930D01*
X001680Y009305D01*
X003305Y009305D01*
X005780Y009305D01*
X006055Y009280D01*
X006428Y009650D02*
X005682Y009650D01*
X005600Y009568D01*
X005600Y009525D01*
X003385Y009525D01*
X003385Y009568D01*
X003303Y009650D01*
X002557Y009650D01*
X002475Y009568D01*
X002475Y009525D01*
X001589Y009525D01*
X001214Y009150D01*
X001214Y009150D01*
X001085Y009021D01*
X001085Y005339D01*
X001449Y004975D01*
X001420Y004906D01*
X001420Y004704D01*
X001498Y004516D01*
X001641Y004373D01*
X001754Y004326D01*
X001719Y004315D01*
X001642Y004275D01*
X001572Y004225D01*
X001510Y004163D01*
X001460Y004093D01*
X001420Y004016D01*
X001394Y003934D01*
X001380Y003848D01*
X001380Y003825D01*
X001910Y003825D01*
X001910Y003785D01*
X001950Y003785D01*
X001950Y003825D01*
X002480Y003825D01*
X002480Y003848D01*
X002466Y003934D01*
X002455Y003969D01*
X002589Y003835D01*
X003656Y003835D01*
X003612Y003791D01*
X003612Y003319D01*
X003694Y003237D01*
X004166Y003237D01*
X004248Y003319D01*
X004248Y003335D01*
X007714Y003335D01*
X008089Y002960D01*
X008321Y002960D01*
X008260Y002944D01*
X008012Y002800D01*
X007810Y002598D01*
X007666Y002350D01*
X007592Y002073D01*
X007592Y001787D01*
X007666Y001510D01*
X007810Y001262D01*
X008012Y001060D01*
X008260Y000916D01*
X008470Y000860D01*
X002140Y000860D01*
X002350Y000916D01*
X002598Y001060D01*
X002800Y001262D01*
X002944Y001510D01*
X003018Y001787D01*
X003018Y002073D01*
X002944Y002350D01*
X002800Y002598D01*
X002598Y002800D01*
X002350Y002944D01*
X002073Y003018D01*
X001787Y003018D01*
X001510Y002944D01*
X001262Y002800D01*
X001060Y002598D01*
X000916Y002350D01*
X000860Y002140D01*
X000860Y008680D01*
X000869Y008820D01*
X000941Y009089D01*
X001081Y009331D01*
X001279Y009529D01*
X001521Y009669D01*
X001790Y009741D01*
X001930Y009750D01*
X008470Y009750D01*
X008260Y009694D01*
X008012Y009550D01*
X007810Y009348D01*
X007675Y009114D01*
X007666Y009123D01*
X007387Y009123D01*
X007431Y009230D01*
X007431Y009380D01*
X007374Y009518D01*
X007268Y009624D01*
X007130Y009681D01*
X006980Y009681D01*
X006842Y009624D01*
X006736Y009518D01*
X006679Y009380D01*
X006679Y009230D01*
X006736Y009092D01*
X006803Y009025D01*
X006510Y009025D01*
X006510Y009568D01*
X006428Y009650D01*
X006510Y009556D02*
X006774Y009556D01*
X006686Y009398D02*
X006510Y009398D01*
X006510Y009239D02*
X006679Y009239D01*
X006747Y009081D02*
X006510Y009081D01*
X006055Y008805D02*
X006055Y008680D01*
X006055Y008805D02*
X007430Y008805D01*
X007387Y008487D02*
X007606Y008487D01*
X007666Y008260D01*
X007810Y008012D01*
X008012Y007810D01*
X008260Y007666D01*
X008321Y007650D01*
X008089Y007650D01*
X007964Y007525D01*
X007008Y007525D01*
X006963Y007570D01*
X006347Y007570D01*
X006265Y007488D01*
X006265Y007145D01*
X006261Y007141D01*
X006237Y007099D01*
X006225Y007054D01*
X006225Y006905D01*
X006655Y006905D01*
X006630Y006930D01*
X006305Y006930D01*
X006180Y007055D01*
X006180Y007680D01*
X005930Y007930D01*
X006055Y008080D01*
X006090Y008115D02*
X006550Y008115D01*
X006550Y008334D01*
X006538Y008379D01*
X006514Y008421D01*
X006510Y008425D01*
X006510Y008585D01*
X006803Y008585D01*
X006736Y008518D01*
X006679Y008380D01*
X006679Y008230D01*
X006736Y008092D01*
X006842Y007986D01*
X006980Y007929D01*
X007130Y007929D01*
X007268Y007986D01*
X007374Y008092D01*
X007431Y008230D01*
X007431Y008380D01*
X007387Y008487D01*
X007404Y008447D02*
X007616Y008447D01*
X007659Y008288D02*
X007431Y008288D01*
X007390Y008130D02*
X007742Y008130D01*
X007851Y007971D02*
X007232Y007971D01*
X006878Y007971D02*
X006550Y007971D01*
X006550Y008045D02*
X006090Y008045D01*
X006090Y008115D01*
X006090Y008045D02*
X006020Y008045D01*
X006020Y007670D01*
X005716Y007670D01*
X005671Y007682D01*
X005629Y007706D01*
X005596Y007739D01*
X005572Y007781D01*
X005560Y007826D01*
X005560Y008045D01*
X006020Y008045D01*
X006020Y008115D01*
X005560Y008115D01*
X005560Y008334D01*
X005572Y008379D01*
X005596Y008421D01*
X005600Y008425D01*
X005600Y008968D01*
X005612Y008980D01*
X005600Y008992D01*
X005600Y009085D01*
X005320Y009085D01*
X005320Y007722D01*
X005248Y007650D01*
X005646Y007650D01*
X005726Y007570D01*
X006063Y007570D01*
X006145Y007488D01*
X006145Y007122D01*
X006128Y007105D01*
X006145Y007088D01*
X006145Y006722D01*
X006128Y006705D01*
X006145Y006688D01*
X006145Y006401D01*
X006511Y006036D01*
X006658Y006036D01*
X006669Y006025D01*
X006678Y006025D01*
X006724Y006043D01*
X006766Y006025D01*
X007146Y006025D01*
X007548Y005623D01*
X007791Y005623D01*
X007873Y005541D01*
X007873Y005298D01*
X008146Y005025D01*
X008219Y005025D01*
X008248Y005094D01*
X008391Y005237D01*
X008554Y005305D01*
X008391Y005373D01*
X008248Y005516D01*
X008170Y005704D01*
X008170Y005906D01*
X008248Y006094D01*
X008391Y006237D01*
X008554Y006305D01*
X008391Y006373D01*
X008248Y006516D01*
X008170Y006704D01*
X008170Y006906D01*
X008248Y007094D01*
X008364Y007210D01*
X008271Y007210D01*
X008146Y007085D01*
X007077Y007085D01*
X007085Y007054D01*
X007085Y006905D01*
X006655Y006905D01*
X006655Y006905D01*
X006655Y006905D01*
X006655Y007040D01*
X006655Y007040D01*
X006655Y006905D01*
X007085Y006905D01*
X007085Y006756D01*
X007073Y006711D01*
X007049Y006669D01*
X007045Y006665D01*
X007045Y006650D01*
X007112Y006650D01*
X007112Y006666D01*
X007194Y006748D01*
X007666Y006748D01*
X007748Y006666D01*
X007748Y006194D01*
X007666Y006112D01*
X007194Y006112D01*
X007112Y006194D01*
X007112Y006210D01*
X006639Y006210D01*
X006609Y006240D01*
X006347Y006240D01*
X006265Y006322D01*
X006265Y006665D01*
X006261Y006669D01*
X006237Y006711D01*
X006225Y006756D01*
X006225Y006905D01*
X006655Y006905D01*
X006655Y006905D01*
X006655Y006770D01*
X006655Y006770D01*
X006655Y006905D01*
X006655Y006905D01*
X006655Y006862D02*
X006655Y006862D01*
X006655Y007020D02*
X006655Y007020D01*
X006655Y007305D02*
X008055Y007305D01*
X008180Y007430D01*
X009305Y007430D01*
X008680Y006805D02*
X009305Y006180D01*
X009305Y003305D01*
X009180Y003180D01*
X008180Y003180D01*
X007805Y003555D01*
X003930Y003555D01*
X003612Y003533D02*
X002409Y003533D01*
X002400Y003517D02*
X002440Y003594D01*
X002466Y003676D01*
X002480Y003762D01*
X002480Y003785D01*
X001950Y003785D01*
X001950Y003255D01*
X001973Y003255D01*
X002059Y003269D01*
X002141Y003295D01*
X002218Y003335D01*
X002288Y003385D01*
X002350Y003447D01*
X002400Y003517D01*
X002469Y003692D02*
X003612Y003692D01*
X003612Y003375D02*
X002273Y003375D01*
X001950Y003375D02*
X001910Y003375D01*
X001910Y003255D02*
X001887Y003255D01*
X001801Y003269D01*
X001719Y003295D01*
X001642Y003335D01*
X001572Y003385D01*
X001510Y003447D01*
X001460Y003517D01*
X001420Y003594D01*
X001394Y003676D01*
X001380Y003762D01*
X001380Y003785D01*
X001910Y003785D01*
X001910Y003255D01*
X001910Y003533D02*
X001950Y003533D01*
X001950Y003692D02*
X001910Y003692D01*
X001587Y003375D02*
X000860Y003375D01*
X000860Y003216D02*
X007833Y003216D01*
X007991Y003058D02*
X000860Y003058D01*
X000860Y002899D02*
X001433Y002899D01*
X001202Y002741D02*
X000860Y002741D01*
X000860Y002582D02*
X001050Y002582D01*
X000959Y002424D02*
X000860Y002424D01*
X000860Y002265D02*
X000894Y002265D01*
X000860Y003533D02*
X001451Y003533D01*
X001391Y003692D02*
X000860Y003692D01*
X000860Y003850D02*
X001380Y003850D01*
X001418Y004009D02*
X000860Y004009D01*
X000860Y004167D02*
X001514Y004167D01*
X001752Y004326D02*
X000860Y004326D01*
X000860Y004484D02*
X001530Y004484D01*
X001445Y004643D02*
X000860Y004643D01*
X000860Y004801D02*
X001420Y004801D01*
X001442Y004960D02*
X000860Y004960D01*
X000860Y005118D02*
X001306Y005118D01*
X001147Y005277D02*
X000860Y005277D01*
X000860Y005435D02*
X001085Y005435D01*
X001085Y005594D02*
X000860Y005594D01*
X000860Y005752D02*
X001085Y005752D01*
X001085Y005911D02*
X000860Y005911D01*
X000860Y006069D02*
X001085Y006069D01*
X001085Y006228D02*
X000860Y006228D01*
X000860Y006386D02*
X001085Y006386D01*
X001085Y006545D02*
X000860Y006545D01*
X000860Y006703D02*
X001085Y006703D01*
X001085Y006862D02*
X000860Y006862D01*
X000860Y007020D02*
X001085Y007020D01*
X001085Y007179D02*
X000860Y007179D01*
X000860Y007337D02*
X001085Y007337D01*
X001085Y007496D02*
X000860Y007496D01*
X000860Y007654D02*
X001085Y007654D01*
X001085Y007813D02*
X000860Y007813D01*
X000860Y007971D02*
X001085Y007971D01*
X001085Y008130D02*
X000860Y008130D01*
X000860Y008288D02*
X001085Y008288D01*
X001085Y008447D02*
X000860Y008447D01*
X000860Y008605D02*
X001085Y008605D01*
X001085Y008764D02*
X000865Y008764D01*
X000897Y008922D02*
X001085Y008922D01*
X001144Y009081D02*
X000939Y009081D01*
X001028Y009239D02*
X001303Y009239D01*
X001147Y009398D02*
X001461Y009398D01*
X001326Y009556D02*
X002475Y009556D01*
X002905Y009405D02*
X002930Y009280D01*
X002905Y009405D02*
X003305Y009305D01*
X003385Y009556D02*
X005600Y009556D01*
X005600Y009081D02*
X005320Y009081D01*
X005320Y008922D02*
X005600Y008922D01*
X005600Y008764D02*
X005320Y008764D01*
X005320Y008605D02*
X005600Y008605D01*
X005600Y008447D02*
X005320Y008447D01*
X005320Y008288D02*
X005560Y008288D01*
X005560Y008130D02*
X005320Y008130D01*
X005320Y007971D02*
X005560Y007971D01*
X005564Y007813D02*
X005320Y007813D01*
X005252Y007654D02*
X008306Y007654D01*
X008009Y007813D02*
X006546Y007813D01*
X006550Y007826D02*
X006550Y008045D01*
X006550Y008130D02*
X006720Y008130D01*
X006679Y008288D02*
X006550Y008288D01*
X006510Y008447D02*
X006706Y008447D01*
X006550Y007826D02*
X006538Y007781D01*
X006514Y007739D01*
X006481Y007706D01*
X006439Y007682D01*
X006394Y007670D01*
X006090Y007670D01*
X006090Y008045D01*
X006090Y007971D02*
X006020Y007971D01*
X006020Y007813D02*
X006090Y007813D01*
X006137Y007496D02*
X006273Y007496D01*
X006265Y007337D02*
X006145Y007337D01*
X006145Y007179D02*
X006265Y007179D01*
X006225Y007020D02*
X006145Y007020D01*
X006145Y006862D02*
X006225Y006862D01*
X006242Y006703D02*
X006130Y006703D01*
X006145Y006545D02*
X006265Y006545D01*
X006265Y006386D02*
X006160Y006386D01*
X006319Y006228D02*
X006621Y006228D01*
X006477Y006069D02*
X008237Y006069D01*
X008381Y006228D02*
X007748Y006228D01*
X007748Y006386D02*
X008378Y006386D01*
X008236Y006545D02*
X007748Y006545D01*
X007711Y006703D02*
X008170Y006703D01*
X008170Y006862D02*
X007085Y006862D01*
X007068Y006703D02*
X007149Y006703D01*
X007085Y007020D02*
X008217Y007020D01*
X008240Y007179D02*
X008332Y007179D01*
X007430Y006430D02*
X006730Y006430D01*
X006655Y006505D01*
X007261Y005911D02*
X008172Y005911D01*
X008170Y005752D02*
X007419Y005752D01*
X007114Y005435D02*
X006740Y005435D01*
X006740Y005341D02*
X006740Y005554D01*
X006771Y005585D01*
X006964Y005585D01*
X007237Y005312D01*
X007237Y005069D01*
X007319Y004987D01*
X007562Y004987D01*
X007835Y004714D01*
X007835Y004714D01*
X007964Y004585D01*
X008149Y004585D01*
X007839Y004275D01*
X002771Y004275D01*
X002411Y004635D01*
X002440Y004704D01*
X002440Y004906D01*
X002362Y005094D01*
X002219Y005237D01*
X002056Y005305D01*
X002219Y005373D01*
X002362Y005516D01*
X002440Y005704D01*
X002440Y005906D01*
X002362Y006094D01*
X002219Y006237D01*
X002056Y006305D01*
X002219Y006373D01*
X002362Y006516D01*
X002391Y006585D01*
X002521Y006585D01*
X002650Y006714D01*
X003146Y007210D01*
X003487Y007210D01*
X003487Y006819D01*
X003569Y006737D01*
X003812Y006737D01*
X003864Y006685D01*
X005365Y006685D01*
X005365Y006322D01*
X005447Y006240D01*
X005684Y006240D01*
X005714Y006210D01*
X005920Y006004D01*
X005870Y005954D01*
X005870Y005341D01*
X005866Y005337D01*
X005842Y005296D01*
X005830Y005250D01*
X005830Y005018D01*
X006257Y005018D01*
X006257Y004922D01*
X006353Y004922D01*
X006353Y004534D01*
X006624Y004534D01*
X006670Y004547D01*
X006711Y004570D01*
X006744Y004604D01*
X006768Y004645D01*
X006780Y004691D01*
X006780Y004922D01*
X006353Y004922D01*
X006353Y005018D01*
X006780Y005018D01*
X006780Y005250D01*
X006768Y005296D01*
X006744Y005337D01*
X006740Y005341D01*
X006773Y005277D02*
X007237Y005277D01*
X007237Y005118D02*
X006780Y005118D01*
X006780Y004801D02*
X007748Y004801D01*
X007906Y004643D02*
X006767Y004643D01*
X006353Y004643D02*
X006257Y004643D01*
X006257Y004534D02*
X006257Y004922D01*
X005830Y004922D01*
X005830Y004691D01*
X005842Y004645D01*
X005866Y004604D01*
X005899Y004570D01*
X005940Y004547D01*
X005986Y004534D01*
X006257Y004534D01*
X006257Y004801D02*
X006353Y004801D01*
X006353Y004960D02*
X007589Y004960D01*
X007895Y005277D02*
X008486Y005277D01*
X008329Y005435D02*
X007873Y005435D01*
X007821Y005594D02*
X008216Y005594D01*
X008272Y005118D02*
X008053Y005118D01*
X008048Y004484D02*
X005510Y004484D01*
X005515Y004501D02*
X005515Y005225D01*
X004635Y005225D01*
X004635Y005385D01*
X004475Y005385D01*
X004475Y006265D01*
X003751Y006265D01*
X003706Y006253D01*
X003664Y006229D01*
X003631Y006196D01*
X003607Y006154D01*
X003595Y006109D01*
X003595Y005385D01*
X004475Y005385D01*
X004475Y005225D01*
X004635Y005225D01*
X004635Y004345D01*
X005359Y004345D01*
X005404Y004357D01*
X005446Y004381D01*
X005479Y004414D01*
X005503Y004456D01*
X005515Y004501D01*
X005515Y004643D02*
X005843Y004643D01*
X005830Y004801D02*
X005515Y004801D01*
X005515Y004960D02*
X006257Y004960D01*
X006305Y004970D02*
X005390Y004970D01*
X005055Y005305D01*
X004635Y005277D02*
X005837Y005277D01*
X005830Y005118D02*
X005515Y005118D01*
X005515Y005385D02*
X005515Y006109D01*
X005503Y006154D01*
X005479Y006196D01*
X005446Y006229D01*
X005404Y006253D01*
X005359Y006265D01*
X004635Y006265D01*
X004635Y005385D01*
X005515Y005385D01*
X005515Y005435D02*
X005870Y005435D01*
X005870Y005594D02*
X005515Y005594D01*
X005515Y005752D02*
X005870Y005752D01*
X005870Y005911D02*
X005515Y005911D01*
X005515Y006069D02*
X005855Y006069D01*
X005696Y006228D02*
X005447Y006228D01*
X005365Y006386D02*
X002232Y006386D01*
X002374Y006545D02*
X005365Y006545D01*
X005755Y006505D02*
X005805Y006455D01*
X005805Y006430D01*
X006555Y005680D01*
X006305Y005640D01*
X005755Y006905D02*
X003955Y006905D01*
X003805Y007055D01*
X003487Y007020D02*
X002956Y007020D01*
X002798Y006862D02*
X003487Y006862D01*
X003487Y007179D02*
X003115Y007179D01*
X003055Y007430D02*
X002430Y006805D01*
X001930Y006805D01*
X002278Y007179D02*
X002492Y007179D01*
X002362Y007094D02*
X002376Y007062D01*
X002964Y007650D01*
X003862Y007650D01*
X003790Y007722D01*
X003790Y008362D01*
X003417Y008362D01*
X003425Y008334D01*
X003425Y008115D01*
X002965Y008115D01*
X002965Y008045D01*
X003425Y008045D01*
X003425Y007826D01*
X003413Y007781D01*
X003389Y007739D01*
X003356Y007706D01*
X003314Y007682D01*
X003269Y007670D01*
X002965Y007670D01*
X002965Y008045D01*
X002895Y008045D01*
X002895Y007670D01*
X002591Y007670D01*
X002546Y007682D01*
X002504Y007706D01*
X002471Y007739D01*
X002447Y007781D01*
X002440Y007808D01*
X002440Y007704D01*
X002362Y007516D01*
X002219Y007373D01*
X002056Y007305D01*
X002219Y007237D01*
X002362Y007094D01*
X002133Y007337D02*
X002651Y007337D01*
X002809Y007496D02*
X002342Y007496D01*
X002419Y007654D02*
X003858Y007654D01*
X003790Y007813D02*
X003421Y007813D01*
X003425Y007971D02*
X003790Y007971D01*
X003790Y008130D02*
X003425Y008130D01*
X003425Y008288D02*
X003790Y008288D01*
X003555Y008680D02*
X002930Y008680D01*
X002475Y008605D02*
X001525Y008605D01*
X001525Y008764D02*
X002475Y008764D01*
X002475Y008922D02*
X001608Y008922D01*
X001525Y008839D02*
X001771Y009085D01*
X002475Y009085D01*
X002475Y008992D01*
X002487Y008980D01*
X002475Y008968D01*
X002475Y008425D01*
X002471Y008421D01*
X002447Y008379D01*
X002435Y008334D01*
X002435Y008115D01*
X002895Y008115D01*
X002895Y008045D01*
X002435Y008045D01*
X002435Y007919D01*
X002362Y008094D01*
X002219Y008237D01*
X002031Y008315D01*
X001829Y008315D01*
X001641Y008237D01*
X001525Y008121D01*
X001525Y008839D01*
X001767Y009081D02*
X002475Y009081D01*
X001930Y008805D02*
X002680Y008055D01*
X002905Y008055D01*
X002930Y008080D01*
X002895Y007971D02*
X002965Y007971D01*
X002965Y007813D02*
X002895Y007813D01*
X003055Y007430D02*
X005555Y007430D01*
X005680Y007305D01*
X005755Y007305D01*
X004930Y008055D02*
X004905Y008055D01*
X004555Y008405D01*
X004205Y008055D01*
X004180Y008055D01*
X004930Y008805D01*
X004180Y008805D02*
X004930Y008055D01*
X003846Y006703D02*
X002639Y006703D01*
X002229Y006228D02*
X003663Y006228D01*
X003595Y006069D02*
X002373Y006069D01*
X002438Y005911D02*
X003595Y005911D01*
X003595Y005752D02*
X002440Y005752D01*
X002394Y005594D02*
X003595Y005594D01*
X003595Y005435D02*
X002281Y005435D01*
X002124Y005277D02*
X004475Y005277D01*
X004475Y005225D02*
X003595Y005225D01*
X003595Y004501D01*
X003607Y004456D01*
X003631Y004414D01*
X003664Y004381D01*
X003706Y004357D01*
X003751Y004345D01*
X004475Y004345D01*
X004475Y005225D01*
X004475Y005118D02*
X004635Y005118D01*
X004635Y004960D02*
X004475Y004960D01*
X004475Y004801D02*
X004635Y004801D01*
X004635Y004643D02*
X004475Y004643D01*
X004475Y004484D02*
X004635Y004484D01*
X004204Y003835D02*
X008021Y003835D01*
X008130Y003944D01*
X008130Y003825D01*
X008660Y003825D01*
X008660Y003785D01*
X008130Y003785D01*
X008130Y003541D01*
X008025Y003646D01*
X007896Y003775D01*
X004248Y003775D01*
X004248Y003791D01*
X004204Y003835D01*
X003600Y004484D02*
X002562Y004484D01*
X002415Y004643D02*
X003595Y004643D01*
X003595Y004801D02*
X002440Y004801D01*
X002418Y004960D02*
X003595Y004960D01*
X003595Y005118D02*
X002338Y005118D01*
X002721Y004326D02*
X007889Y004326D01*
X008036Y003850D02*
X008130Y003850D01*
X008130Y003692D02*
X007980Y003692D01*
X008183Y002899D02*
X005309Y002899D01*
X005320Y002888D02*
X005238Y002970D01*
X003872Y002970D01*
X003790Y002888D01*
X003790Y001522D01*
X003872Y001440D01*
X005238Y001440D01*
X005320Y001522D01*
X005320Y002888D01*
X005320Y002741D02*
X007952Y002741D01*
X007800Y002582D02*
X005320Y002582D01*
X005320Y002424D02*
X007709Y002424D01*
X007644Y002265D02*
X005320Y002265D01*
X005320Y002107D02*
X007601Y002107D01*
X007592Y001948D02*
X005320Y001948D01*
X005320Y001790D02*
X007592Y001790D01*
X007634Y001631D02*
X005320Y001631D01*
X005270Y001473D02*
X007688Y001473D01*
X007780Y001314D02*
X002830Y001314D01*
X002922Y001473D02*
X003840Y001473D01*
X003790Y001631D02*
X002976Y001631D01*
X003018Y001790D02*
X003790Y001790D01*
X003790Y001948D02*
X003018Y001948D01*
X003009Y002107D02*
X003790Y002107D01*
X003790Y002265D02*
X002966Y002265D01*
X002901Y002424D02*
X003790Y002424D01*
X003790Y002582D02*
X002810Y002582D01*
X002658Y002741D02*
X003790Y002741D01*
X003801Y002899D02*
X002427Y002899D01*
X002480Y003850D02*
X002574Y003850D01*
X004475Y005435D02*
X004635Y005435D01*
X004635Y005594D02*
X004475Y005594D01*
X004475Y005752D02*
X004635Y005752D01*
X004635Y005911D02*
X004475Y005911D01*
X004475Y006069D02*
X004635Y006069D01*
X004635Y006228D02*
X004475Y006228D01*
X002435Y007971D02*
X002413Y007971D01*
X002435Y008130D02*
X002327Y008130D01*
X002435Y008288D02*
X002097Y008288D01*
X001763Y008288D02*
X001525Y008288D01*
X001525Y008447D02*
X002475Y008447D01*
X001930Y008805D02*
X001805Y008805D01*
X001533Y008130D02*
X001525Y008130D01*
X001692Y009715D02*
X008338Y009715D01*
X008022Y009556D02*
X007336Y009556D01*
X007424Y009398D02*
X007859Y009398D01*
X007747Y009239D02*
X007431Y009239D01*
X007916Y001156D02*
X002694Y001156D01*
X002490Y000997D02*
X008120Y000997D01*
D20*
X007180Y001930D03*
X003930Y003555D03*
X003430Y001930D03*
X005055Y005305D03*
X003430Y006430D03*
X003805Y007055D03*
X004180Y008055D03*
X003555Y008680D03*
X004930Y008055D03*
X007430Y008805D03*
X007680Y007680D03*
X007430Y006430D03*
X007555Y005305D03*
X009305Y007430D03*
X001805Y008805D03*
M02*
