%
M48
M72
T01C0.0236
T02C0.0315
T03C0.0400
T04C0.1250
%
T01
X3430Y1930
X3930Y3555
X5055Y5305
X3430Y6430
X3805Y7055
X4180Y8055
X3555Y8680
X4930Y8055
X7430Y8805
X7680Y7680
X7430Y6430
X7555Y5305
X9305Y7430
X7180Y1930
X1805Y8805
T02
X7055Y8305
X7055Y9305
T03
X8680Y6805
X8680Y5805
X8680Y4805
X8680Y3805
X1930Y3805
X1930Y4805
X1930Y5805
X1930Y6805
X1930Y7805
T04
X1930Y1930
X8680Y1930
X8680Y8680
M30
