G75*
G70*
%OFA0B0*%
%FSLAX24Y24*%
%IPPOS*%
%LPD*%
%AMOC8*
5,1,8,0,0,1.08239X$1,22.5*
%
%ADD10C,0.0000*%
%ADD11R,0.0740X0.0740*%
%ADD12C,0.0740*%
%ADD13R,0.0236X0.0610*%
%ADD14C,0.0472*%
%ADD15R,0.0591X0.0512*%
%ADD16C,0.0160*%
%ADD17R,0.0356X0.0356*%
D10*
X000680Y001930D02*
X000680Y008680D01*
X000682Y008748D01*
X000687Y008815D01*
X000696Y008882D01*
X000709Y008949D01*
X000726Y009014D01*
X000745Y009079D01*
X000769Y009143D01*
X000796Y009205D01*
X000826Y009266D01*
X000859Y009324D01*
X000895Y009381D01*
X000935Y009436D01*
X000977Y009489D01*
X001023Y009540D01*
X001070Y009587D01*
X001121Y009633D01*
X001174Y009675D01*
X001229Y009715D01*
X001286Y009751D01*
X001344Y009784D01*
X001405Y009814D01*
X001467Y009841D01*
X001531Y009865D01*
X001596Y009884D01*
X001661Y009901D01*
X001728Y009914D01*
X001795Y009923D01*
X001862Y009928D01*
X001930Y009930D01*
X008680Y009930D01*
X008748Y009928D01*
X008815Y009923D01*
X008882Y009914D01*
X008949Y009901D01*
X009014Y009884D01*
X009079Y009865D01*
X009143Y009841D01*
X009205Y009814D01*
X009266Y009784D01*
X009324Y009751D01*
X009381Y009715D01*
X009436Y009675D01*
X009489Y009633D01*
X009540Y009587D01*
X009587Y009540D01*
X009633Y009489D01*
X009675Y009436D01*
X009715Y009381D01*
X009751Y009324D01*
X009784Y009266D01*
X009814Y009205D01*
X009841Y009143D01*
X009865Y009079D01*
X009884Y009014D01*
X009901Y008949D01*
X009914Y008882D01*
X009923Y008815D01*
X009928Y008748D01*
X009930Y008680D01*
X009930Y001930D01*
X009928Y001862D01*
X009923Y001795D01*
X009914Y001728D01*
X009901Y001661D01*
X009884Y001596D01*
X009865Y001531D01*
X009841Y001467D01*
X009814Y001405D01*
X009784Y001344D01*
X009751Y001286D01*
X009715Y001229D01*
X009675Y001174D01*
X009633Y001121D01*
X009587Y001070D01*
X009540Y001023D01*
X009489Y000977D01*
X009436Y000935D01*
X009381Y000895D01*
X009324Y000859D01*
X009266Y000826D01*
X009205Y000796D01*
X009143Y000769D01*
X009079Y000745D01*
X009014Y000726D01*
X008949Y000709D01*
X008882Y000696D01*
X008815Y000687D01*
X008748Y000682D01*
X008680Y000680D01*
X001930Y000680D01*
X001862Y000682D01*
X001795Y000687D01*
X001728Y000696D01*
X001661Y000709D01*
X001596Y000726D01*
X001531Y000745D01*
X001467Y000769D01*
X001405Y000796D01*
X001344Y000826D01*
X001286Y000859D01*
X001229Y000895D01*
X001174Y000935D01*
X001121Y000977D01*
X001070Y001023D01*
X001023Y001070D01*
X000977Y001121D01*
X000935Y001174D01*
X000895Y001229D01*
X000859Y001286D01*
X000826Y001344D01*
X000796Y001405D01*
X000769Y001467D01*
X000745Y001531D01*
X000726Y001596D01*
X000709Y001661D01*
X000696Y001728D01*
X000687Y001795D01*
X000682Y001862D01*
X000680Y001930D01*
X001305Y001930D02*
X001307Y001980D01*
X001313Y002029D01*
X001323Y002078D01*
X001336Y002125D01*
X001354Y002172D01*
X001375Y002217D01*
X001399Y002260D01*
X001427Y002301D01*
X001458Y002340D01*
X001492Y002376D01*
X001529Y002410D01*
X001569Y002440D01*
X001610Y002467D01*
X001654Y002491D01*
X001699Y002511D01*
X001746Y002527D01*
X001794Y002540D01*
X001843Y002549D01*
X001893Y002554D01*
X001942Y002555D01*
X001992Y002552D01*
X002041Y002545D01*
X002090Y002534D01*
X002137Y002520D01*
X002183Y002501D01*
X002228Y002479D01*
X002271Y002454D01*
X002311Y002425D01*
X002349Y002393D01*
X002385Y002359D01*
X002418Y002321D01*
X002447Y002281D01*
X002473Y002239D01*
X002496Y002195D01*
X002515Y002149D01*
X002531Y002102D01*
X002543Y002053D01*
X002551Y002004D01*
X002555Y001955D01*
X002555Y001905D01*
X002551Y001856D01*
X002543Y001807D01*
X002531Y001758D01*
X002515Y001711D01*
X002496Y001665D01*
X002473Y001621D01*
X002447Y001579D01*
X002418Y001539D01*
X002385Y001501D01*
X002349Y001467D01*
X002311Y001435D01*
X002271Y001406D01*
X002228Y001381D01*
X002183Y001359D01*
X002137Y001340D01*
X002090Y001326D01*
X002041Y001315D01*
X001992Y001308D01*
X001942Y001305D01*
X001893Y001306D01*
X001843Y001311D01*
X001794Y001320D01*
X001746Y001333D01*
X001699Y001349D01*
X001654Y001369D01*
X001610Y001393D01*
X001569Y001420D01*
X001529Y001450D01*
X001492Y001484D01*
X001458Y001520D01*
X001427Y001559D01*
X001399Y001600D01*
X001375Y001643D01*
X001354Y001688D01*
X001336Y001735D01*
X001323Y001782D01*
X001313Y001831D01*
X001307Y001880D01*
X001305Y001930D01*
X008055Y001930D02*
X008057Y001980D01*
X008063Y002029D01*
X008073Y002078D01*
X008086Y002125D01*
X008104Y002172D01*
X008125Y002217D01*
X008149Y002260D01*
X008177Y002301D01*
X008208Y002340D01*
X008242Y002376D01*
X008279Y002410D01*
X008319Y002440D01*
X008360Y002467D01*
X008404Y002491D01*
X008449Y002511D01*
X008496Y002527D01*
X008544Y002540D01*
X008593Y002549D01*
X008643Y002554D01*
X008692Y002555D01*
X008742Y002552D01*
X008791Y002545D01*
X008840Y002534D01*
X008887Y002520D01*
X008933Y002501D01*
X008978Y002479D01*
X009021Y002454D01*
X009061Y002425D01*
X009099Y002393D01*
X009135Y002359D01*
X009168Y002321D01*
X009197Y002281D01*
X009223Y002239D01*
X009246Y002195D01*
X009265Y002149D01*
X009281Y002102D01*
X009293Y002053D01*
X009301Y002004D01*
X009305Y001955D01*
X009305Y001905D01*
X009301Y001856D01*
X009293Y001807D01*
X009281Y001758D01*
X009265Y001711D01*
X009246Y001665D01*
X009223Y001621D01*
X009197Y001579D01*
X009168Y001539D01*
X009135Y001501D01*
X009099Y001467D01*
X009061Y001435D01*
X009021Y001406D01*
X008978Y001381D01*
X008933Y001359D01*
X008887Y001340D01*
X008840Y001326D01*
X008791Y001315D01*
X008742Y001308D01*
X008692Y001305D01*
X008643Y001306D01*
X008593Y001311D01*
X008544Y001320D01*
X008496Y001333D01*
X008449Y001349D01*
X008404Y001369D01*
X008360Y001393D01*
X008319Y001420D01*
X008279Y001450D01*
X008242Y001484D01*
X008208Y001520D01*
X008177Y001559D01*
X008149Y001600D01*
X008125Y001643D01*
X008104Y001688D01*
X008086Y001735D01*
X008073Y001782D01*
X008063Y001831D01*
X008057Y001880D01*
X008055Y001930D01*
X008055Y008680D02*
X008057Y008730D01*
X008063Y008779D01*
X008073Y008828D01*
X008086Y008875D01*
X008104Y008922D01*
X008125Y008967D01*
X008149Y009010D01*
X008177Y009051D01*
X008208Y009090D01*
X008242Y009126D01*
X008279Y009160D01*
X008319Y009190D01*
X008360Y009217D01*
X008404Y009241D01*
X008449Y009261D01*
X008496Y009277D01*
X008544Y009290D01*
X008593Y009299D01*
X008643Y009304D01*
X008692Y009305D01*
X008742Y009302D01*
X008791Y009295D01*
X008840Y009284D01*
X008887Y009270D01*
X008933Y009251D01*
X008978Y009229D01*
X009021Y009204D01*
X009061Y009175D01*
X009099Y009143D01*
X009135Y009109D01*
X009168Y009071D01*
X009197Y009031D01*
X009223Y008989D01*
X009246Y008945D01*
X009265Y008899D01*
X009281Y008852D01*
X009293Y008803D01*
X009301Y008754D01*
X009305Y008705D01*
X009305Y008655D01*
X009301Y008606D01*
X009293Y008557D01*
X009281Y008508D01*
X009265Y008461D01*
X009246Y008415D01*
X009223Y008371D01*
X009197Y008329D01*
X009168Y008289D01*
X009135Y008251D01*
X009099Y008217D01*
X009061Y008185D01*
X009021Y008156D01*
X008978Y008131D01*
X008933Y008109D01*
X008887Y008090D01*
X008840Y008076D01*
X008791Y008065D01*
X008742Y008058D01*
X008692Y008055D01*
X008643Y008056D01*
X008593Y008061D01*
X008544Y008070D01*
X008496Y008083D01*
X008449Y008099D01*
X008404Y008119D01*
X008360Y008143D01*
X008319Y008170D01*
X008279Y008200D01*
X008242Y008234D01*
X008208Y008270D01*
X008177Y008309D01*
X008149Y008350D01*
X008125Y008393D01*
X008104Y008438D01*
X008086Y008485D01*
X008073Y008532D01*
X008063Y008581D01*
X008057Y008630D01*
X008055Y008680D01*
D11*
X008680Y003805D03*
D12*
X008680Y004805D03*
X008680Y005805D03*
X008680Y006805D03*
X001930Y006805D03*
X001930Y007805D03*
X001930Y005805D03*
X001930Y004805D03*
X001930Y003805D03*
D13*
X004055Y004238D03*
X004555Y004238D03*
X005055Y004238D03*
X005555Y004238D03*
X005555Y006364D03*
X005055Y006364D03*
X004555Y006364D03*
X004055Y006364D03*
D14*
X007055Y008305D03*
X007055Y009305D03*
D15*
X006555Y005640D03*
X006555Y004970D03*
D16*
X007220Y004970D01*
X007555Y005305D01*
X007821Y005594D02*
X008157Y005594D01*
X008199Y005635D02*
X007873Y005309D01*
X007873Y005541D01*
X007791Y005623D01*
X007319Y005623D01*
X007237Y005541D01*
X007237Y005298D01*
X007129Y005190D01*
X006990Y005190D01*
X006990Y005269D01*
X006994Y005273D01*
X007018Y005314D01*
X007030Y005360D01*
X007030Y005592D01*
X006603Y005592D01*
X006603Y005688D01*
X006507Y005688D01*
X006507Y006076D01*
X006236Y006076D01*
X006190Y006063D01*
X006149Y006040D01*
X006116Y006006D01*
X006092Y005965D01*
X006080Y005919D01*
X006080Y005688D01*
X006507Y005688D01*
X006507Y005592D01*
X006080Y005592D01*
X006080Y005360D01*
X006092Y005314D01*
X006116Y005273D01*
X006120Y005269D01*
X006120Y004656D01*
X006202Y004574D01*
X006263Y004574D01*
X006147Y004458D01*
X005813Y004458D01*
X005813Y004601D01*
X005731Y004683D01*
X005379Y004683D01*
X005305Y004609D01*
X005275Y004639D01*
X005275Y004646D01*
X004400Y005521D01*
X004271Y005650D01*
X003771Y005650D01*
X003150Y006271D01*
X003150Y006896D01*
X003021Y007025D01*
X002411Y007635D01*
X002440Y007704D01*
X002440Y007906D01*
X002362Y008094D01*
X002219Y008237D01*
X002031Y008315D01*
X001829Y008315D01*
X001641Y008237D01*
X001498Y008094D01*
X001420Y007906D01*
X001420Y007704D01*
X001498Y007516D01*
X001641Y007373D01*
X001804Y007305D01*
X001641Y007237D01*
X001498Y007094D01*
X001420Y006906D01*
X001420Y006704D01*
X001498Y006516D01*
X001641Y006373D01*
X001804Y006305D01*
X001641Y006237D01*
X001498Y006094D01*
X001420Y005906D01*
X001420Y005704D01*
X001498Y005516D01*
X001641Y005373D01*
X001804Y005305D01*
X001641Y005237D01*
X001498Y005094D01*
X001420Y004906D01*
X001420Y004704D01*
X001498Y004516D01*
X001641Y004373D01*
X001754Y004326D01*
X001719Y004315D01*
X001642Y004275D01*
X001572Y004225D01*
X001510Y004163D01*
X001460Y004093D01*
X001420Y004016D01*
X001394Y003934D01*
X001380Y003848D01*
X001380Y003825D01*
X001910Y003825D01*
X001910Y003785D01*
X001950Y003785D01*
X001950Y003825D01*
X002480Y003825D01*
X002480Y003848D01*
X002466Y003934D01*
X002440Y004016D01*
X002400Y004093D01*
X002350Y004163D01*
X002288Y004225D01*
X002218Y004275D01*
X002141Y004315D01*
X002106Y004326D01*
X002219Y004373D01*
X002362Y004516D01*
X002440Y004704D01*
X002440Y004906D01*
X002362Y005094D01*
X002219Y005237D01*
X002056Y005305D01*
X002219Y005373D01*
X002260Y005414D01*
X003085Y004589D01*
X003085Y003214D01*
X003214Y003085D01*
X003464Y002835D01*
X004396Y002835D01*
X004525Y002964D01*
X004771Y003210D01*
X006396Y003210D01*
X008225Y005039D01*
X008170Y004906D01*
X008170Y004704D01*
X008248Y004516D01*
X008391Y004373D01*
X008434Y004355D01*
X008286Y004355D01*
X008241Y004343D01*
X008199Y004319D01*
X008166Y004286D01*
X008142Y004244D01*
X008130Y004199D01*
X008130Y003825D01*
X008660Y003825D01*
X008660Y003785D01*
X008700Y003785D01*
X008700Y003825D01*
X009230Y003825D01*
X009230Y004199D01*
X009218Y004244D01*
X009194Y004286D01*
X009161Y004319D01*
X009119Y004343D01*
X009074Y004355D01*
X008926Y004355D01*
X008969Y004373D01*
X009112Y004516D01*
X009190Y004704D01*
X009190Y004906D01*
X009112Y005094D01*
X008969Y005237D01*
X008806Y005305D01*
X008969Y005373D01*
X009112Y005516D01*
X009190Y005704D01*
X009190Y005906D01*
X009161Y005975D01*
X009396Y006210D01*
X009525Y006339D01*
X009525Y007112D01*
X009541Y007112D01*
X009623Y007194D01*
X009623Y007666D01*
X009541Y007748D01*
X009241Y007748D01*
X009348Y007810D01*
X009550Y008012D01*
X009694Y008260D01*
X009750Y008470D01*
X009750Y002109D01*
X009686Y002347D01*
X009544Y002593D01*
X009343Y002794D01*
X009097Y002936D01*
X008822Y003010D01*
X008538Y003010D01*
X008263Y002936D01*
X008017Y002794D01*
X007816Y002593D01*
X007674Y002347D01*
X007600Y002072D01*
X007600Y001788D01*
X007674Y001513D01*
X007816Y001267D01*
X008017Y001066D01*
X008263Y000924D01*
X008500Y000860D01*
X002109Y000860D01*
X002347Y000924D01*
X002593Y001066D01*
X002794Y001267D01*
X002936Y001513D01*
X003010Y001788D01*
X003010Y002072D01*
X002936Y002347D01*
X002794Y002593D01*
X002593Y002794D01*
X002347Y002936D01*
X002072Y003010D01*
X001788Y003010D01*
X001513Y002936D01*
X001267Y002794D01*
X001066Y002593D01*
X000924Y002347D01*
X000860Y002109D01*
X000860Y008680D01*
X000869Y008820D01*
X000941Y009089D01*
X001081Y009331D01*
X001279Y009529D01*
X001521Y009669D01*
X001790Y009741D01*
X001930Y009750D01*
X008470Y009750D01*
X008260Y009694D01*
X008012Y009550D01*
X007810Y009348D01*
X007675Y009114D01*
X007666Y009123D01*
X007387Y009123D01*
X007431Y009230D01*
X007431Y009380D01*
X007374Y009518D01*
X007268Y009624D01*
X007130Y009681D01*
X006980Y009681D01*
X006842Y009624D01*
X006736Y009518D01*
X006679Y009380D01*
X006679Y009240D01*
X004835Y007396D01*
X004835Y006765D01*
X004805Y006735D01*
X004775Y006765D01*
X004775Y007737D01*
X005166Y007737D01*
X005248Y007819D01*
X005248Y008291D01*
X005166Y008373D01*
X004694Y008373D01*
X004612Y008291D01*
X004612Y007934D01*
X004498Y008048D01*
X004498Y008291D01*
X004416Y008373D01*
X003944Y008373D01*
X003862Y008291D01*
X003862Y007819D01*
X003944Y007737D01*
X004187Y007737D01*
X004335Y007589D01*
X004335Y006765D01*
X004329Y006759D01*
X004317Y006780D01*
X004284Y006813D01*
X004243Y006837D01*
X004197Y006849D01*
X004123Y006849D01*
X004123Y007291D01*
X004041Y007373D01*
X003798Y007373D01*
X003775Y007396D01*
X003775Y008362D01*
X003791Y008362D01*
X003873Y008444D01*
X003873Y008916D01*
X003791Y008998D01*
X003319Y008998D01*
X003237Y008916D01*
X003237Y008444D01*
X003319Y008362D01*
X003335Y008362D01*
X003335Y007214D01*
X003464Y007085D01*
X003487Y007062D01*
X003487Y006819D01*
X003569Y006737D01*
X003769Y006737D01*
X003757Y006693D01*
X003757Y006364D01*
X003757Y006035D01*
X003769Y005989D01*
X003793Y005948D01*
X003826Y005915D01*
X003867Y005891D01*
X003913Y005879D01*
X004055Y005879D01*
X004197Y005879D01*
X004243Y005891D01*
X004284Y005915D01*
X004317Y005948D01*
X004329Y005969D01*
X004379Y005919D01*
X004731Y005919D01*
X004805Y005993D01*
X004879Y005919D01*
X005231Y005919D01*
X005305Y005993D01*
X005379Y005919D01*
X005731Y005919D01*
X005813Y006001D01*
X005813Y006727D01*
X005801Y006740D01*
X006990Y007929D01*
X006993Y007929D01*
X006964Y007900D01*
X006835Y007771D01*
X006835Y006714D01*
X007112Y006437D01*
X007112Y006194D01*
X007194Y006112D01*
X007666Y006112D01*
X007748Y006194D01*
X007748Y006666D01*
X007666Y006748D01*
X007423Y006748D01*
X007275Y006896D01*
X007275Y007589D01*
X007769Y008083D01*
X007810Y008012D01*
X008012Y007810D01*
X008260Y007666D01*
X008537Y007592D01*
X008823Y007592D01*
X008987Y007636D01*
X008987Y007219D01*
X008969Y007237D01*
X008781Y007315D01*
X008579Y007315D01*
X008391Y007237D01*
X008248Y007094D01*
X008170Y006906D01*
X008170Y006704D01*
X008248Y006516D01*
X008391Y006373D01*
X008554Y006305D01*
X008391Y006237D01*
X008248Y006094D01*
X008170Y005906D01*
X008170Y005704D01*
X008199Y005635D01*
X008170Y005752D02*
X007030Y005752D01*
X007030Y005688D02*
X007030Y005919D01*
X007018Y005965D01*
X006994Y006006D01*
X006961Y006040D01*
X006920Y006063D01*
X006874Y006076D01*
X006603Y006076D01*
X006603Y005688D01*
X007030Y005688D01*
X007030Y005911D02*
X008172Y005911D01*
X008237Y006069D02*
X006898Y006069D01*
X007112Y006228D02*
X005813Y006228D01*
X005813Y006069D02*
X006212Y006069D01*
X006080Y005911D02*
X004276Y005911D01*
X004055Y005911D02*
X004055Y005911D01*
X004055Y005879D02*
X004055Y006364D01*
X004055Y006364D01*
X004055Y005879D01*
X004055Y006069D02*
X004055Y006069D01*
X004055Y006180D02*
X004055Y006364D01*
X003757Y006364D01*
X004055Y006364D01*
X004055Y006364D01*
X003996Y006430D01*
X003430Y006430D01*
X003194Y006228D02*
X003757Y006228D01*
X003757Y006069D02*
X003352Y006069D01*
X003511Y005911D02*
X003834Y005911D01*
X003669Y005752D02*
X006080Y005752D01*
X006080Y005435D02*
X004486Y005435D01*
X004328Y005594D02*
X006507Y005594D01*
X006555Y005640D02*
X004595Y005640D01*
X004055Y006180D01*
X004055Y006228D02*
X004055Y006228D01*
X003757Y006386D02*
X003150Y006386D01*
X003150Y006545D02*
X003757Y006545D01*
X003760Y006703D02*
X003150Y006703D01*
X003150Y006862D02*
X003487Y006862D01*
X003487Y007020D02*
X003026Y007020D01*
X002868Y007179D02*
X003370Y007179D01*
X003335Y007337D02*
X002709Y007337D01*
X002551Y007496D02*
X003335Y007496D01*
X003335Y007654D02*
X002419Y007654D01*
X002440Y007813D02*
X003335Y007813D01*
X003335Y007971D02*
X002413Y007971D01*
X002327Y008130D02*
X003335Y008130D01*
X003335Y008288D02*
X002097Y008288D01*
X001763Y008288D02*
X000860Y008288D01*
X000860Y008447D02*
X003237Y008447D01*
X003237Y008605D02*
X000860Y008605D01*
X000865Y008764D02*
X003237Y008764D01*
X003243Y008922D02*
X000897Y008922D01*
X000939Y009081D02*
X006519Y009081D01*
X006678Y009239D02*
X001028Y009239D01*
X001147Y009398D02*
X006686Y009398D01*
X006774Y009556D02*
X001326Y009556D01*
X001692Y009715D02*
X008338Y009715D01*
X008022Y009556D02*
X007336Y009556D01*
X007424Y009398D02*
X007859Y009398D01*
X007747Y009239D02*
X007431Y009239D01*
X007055Y009305D02*
X005055Y007305D01*
X005055Y006364D01*
X005555Y006364D02*
X005555Y006805D01*
X007055Y008305D01*
X007430Y008555D02*
X007430Y008805D01*
X007430Y008555D02*
X007555Y008430D01*
X007555Y008180D01*
X007055Y007680D01*
X007055Y006805D01*
X007430Y006430D01*
X007748Y006386D02*
X008378Y006386D01*
X008236Y006545D02*
X007748Y006545D01*
X007711Y006703D02*
X008170Y006703D01*
X008170Y006862D02*
X007310Y006862D01*
X007275Y007020D02*
X008217Y007020D01*
X008332Y007179D02*
X007275Y007179D01*
X007275Y007337D02*
X008987Y007337D01*
X008987Y007496D02*
X007275Y007496D01*
X007340Y007654D02*
X008306Y007654D01*
X008009Y007813D02*
X007499Y007813D01*
X007657Y007971D02*
X007851Y007971D01*
X006876Y007813D02*
X006874Y007813D01*
X006835Y007654D02*
X006715Y007654D01*
X006835Y007496D02*
X006557Y007496D01*
X006398Y007337D02*
X006835Y007337D01*
X006835Y007179D02*
X006240Y007179D01*
X006081Y007020D02*
X006835Y007020D01*
X006835Y006862D02*
X005923Y006862D01*
X005813Y006703D02*
X006846Y006703D01*
X007004Y006545D02*
X005813Y006545D01*
X005813Y006386D02*
X007112Y006386D01*
X006603Y006069D02*
X006507Y006069D01*
X006507Y005911D02*
X006603Y005911D01*
X006603Y005752D02*
X006507Y005752D01*
X006603Y005594D02*
X007289Y005594D01*
X007237Y005435D02*
X007030Y005435D01*
X006996Y005277D02*
X007215Y005277D01*
X007873Y005435D02*
X007999Y005435D01*
X008146Y004960D02*
X008192Y004960D01*
X008170Y004801D02*
X007987Y004801D01*
X007829Y004643D02*
X008195Y004643D01*
X008280Y004484D02*
X007670Y004484D01*
X007512Y004326D02*
X008211Y004326D01*
X008130Y004167D02*
X007353Y004167D01*
X007195Y004009D02*
X008130Y004009D01*
X008130Y003850D02*
X007036Y003850D01*
X006878Y003692D02*
X008130Y003692D01*
X008130Y003785D02*
X008130Y003411D01*
X008142Y003366D01*
X008166Y003324D01*
X008199Y003291D01*
X008241Y003267D01*
X008286Y003255D01*
X008660Y003255D01*
X008660Y003785D01*
X008130Y003785D01*
X008130Y003533D02*
X006719Y003533D01*
X006561Y003375D02*
X008140Y003375D01*
X008198Y002899D02*
X004460Y002899D01*
X004619Y003058D02*
X009750Y003058D01*
X009750Y002899D02*
X009162Y002899D01*
X009397Y002741D02*
X009750Y002741D01*
X009750Y002582D02*
X009551Y002582D01*
X009642Y002424D02*
X009750Y002424D01*
X009750Y002265D02*
X009708Y002265D01*
X009750Y003216D02*
X006402Y003216D01*
X006305Y003430D02*
X008680Y005805D01*
X009305Y006430D01*
X009305Y007430D01*
X009623Y007496D02*
X009750Y007496D01*
X009750Y007337D02*
X009623Y007337D01*
X009608Y007179D02*
X009750Y007179D01*
X009750Y007020D02*
X009525Y007020D01*
X009525Y006862D02*
X009750Y006862D01*
X009750Y006703D02*
X009525Y006703D01*
X009525Y006545D02*
X009750Y006545D01*
X009750Y006386D02*
X009525Y006386D01*
X009414Y006228D02*
X009750Y006228D01*
X009750Y006069D02*
X009255Y006069D01*
X009188Y005911D02*
X009750Y005911D01*
X009750Y005752D02*
X009190Y005752D01*
X009144Y005594D02*
X009750Y005594D01*
X009750Y005435D02*
X009031Y005435D01*
X008874Y005277D02*
X009750Y005277D01*
X009750Y005118D02*
X009088Y005118D01*
X009168Y004960D02*
X009750Y004960D01*
X009750Y004801D02*
X009190Y004801D01*
X009165Y004643D02*
X009750Y004643D01*
X009750Y004484D02*
X009080Y004484D01*
X009149Y004326D02*
X009750Y004326D01*
X009750Y004167D02*
X009230Y004167D01*
X009230Y004009D02*
X009750Y004009D01*
X009750Y003850D02*
X009230Y003850D01*
X009230Y003785D02*
X008700Y003785D01*
X008700Y003255D01*
X009074Y003255D01*
X009119Y003267D01*
X009161Y003291D01*
X009194Y003324D01*
X009218Y003366D01*
X009230Y003411D01*
X009230Y003785D01*
X009230Y003692D02*
X009750Y003692D01*
X009750Y003533D02*
X009230Y003533D01*
X009220Y003375D02*
X009750Y003375D01*
X008700Y003375D02*
X008660Y003375D01*
X008660Y003533D02*
X008700Y003533D01*
X008700Y003692D02*
X008660Y003692D01*
X008680Y003805D02*
X007430Y002555D01*
X003180Y002555D01*
X001930Y003805D01*
X001950Y003785D02*
X001950Y003255D01*
X001973Y003255D01*
X002059Y003269D01*
X002141Y003295D01*
X002218Y003335D01*
X002288Y003385D01*
X002350Y003447D01*
X002400Y003517D01*
X002440Y003594D01*
X002466Y003676D01*
X002480Y003762D01*
X002480Y003785D01*
X001950Y003785D01*
X001910Y003785D02*
X001910Y003255D01*
X001887Y003255D01*
X001801Y003269D01*
X001719Y003295D01*
X001642Y003335D01*
X001572Y003385D01*
X001510Y003447D01*
X001460Y003517D01*
X001420Y003594D01*
X001394Y003676D01*
X001380Y003762D01*
X001380Y003785D01*
X001910Y003785D01*
X001910Y003692D02*
X001950Y003692D01*
X001950Y003533D02*
X001910Y003533D01*
X001910Y003375D02*
X001950Y003375D01*
X002273Y003375D02*
X003085Y003375D01*
X003085Y003216D02*
X000860Y003216D01*
X000860Y003375D02*
X001587Y003375D01*
X001451Y003533D02*
X000860Y003533D01*
X000860Y003692D02*
X001391Y003692D01*
X001380Y003850D02*
X000860Y003850D01*
X000860Y004009D02*
X001418Y004009D01*
X001514Y004167D02*
X000860Y004167D01*
X000860Y004326D02*
X001752Y004326D01*
X001530Y004484D02*
X000860Y004484D01*
X000860Y004643D02*
X001445Y004643D01*
X001420Y004801D02*
X000860Y004801D01*
X000860Y004960D02*
X001442Y004960D01*
X001522Y005118D02*
X000860Y005118D01*
X000860Y005277D02*
X001736Y005277D01*
X001579Y005435D02*
X000860Y005435D01*
X000860Y005594D02*
X001466Y005594D01*
X001420Y005752D02*
X000860Y005752D01*
X000860Y005911D02*
X001422Y005911D01*
X001487Y006069D02*
X000860Y006069D01*
X000860Y006228D02*
X001631Y006228D01*
X001628Y006386D02*
X000860Y006386D01*
X000860Y006545D02*
X001486Y006545D01*
X001420Y006703D02*
X000860Y006703D01*
X000860Y006862D02*
X001420Y006862D01*
X001467Y007020D02*
X000860Y007020D01*
X000860Y007179D02*
X001582Y007179D01*
X001727Y007337D02*
X000860Y007337D01*
X000860Y007496D02*
X001518Y007496D01*
X001441Y007654D02*
X000860Y007654D01*
X000860Y007813D02*
X001420Y007813D01*
X001447Y007971D02*
X000860Y007971D01*
X000860Y008130D02*
X001533Y008130D01*
X001930Y007805D02*
X002930Y006805D01*
X002930Y006180D01*
X003680Y005430D01*
X004180Y005430D01*
X005055Y004555D01*
X005055Y004238D01*
X005275Y004643D02*
X005338Y004643D01*
X005120Y004801D02*
X006120Y004801D01*
X006120Y004960D02*
X004962Y004960D01*
X004803Y005118D02*
X006120Y005118D01*
X006114Y005277D02*
X004645Y005277D01*
X004055Y004493D02*
X004055Y004238D01*
X004055Y003680D01*
X003930Y003555D01*
X003555Y003055D02*
X003305Y003305D01*
X003305Y004680D01*
X002180Y005805D01*
X001930Y005805D01*
X002124Y005277D02*
X002397Y005277D01*
X002338Y005118D02*
X002556Y005118D01*
X002418Y004960D02*
X002714Y004960D01*
X002873Y004801D02*
X002440Y004801D01*
X002415Y004643D02*
X003031Y004643D01*
X003085Y004484D02*
X002330Y004484D01*
X002108Y004326D02*
X003085Y004326D01*
X003085Y004167D02*
X002346Y004167D01*
X002442Y004009D02*
X003085Y004009D01*
X003085Y003850D02*
X002480Y003850D01*
X002469Y003692D02*
X003085Y003692D01*
X003085Y003533D02*
X002409Y003533D01*
X002412Y002899D02*
X003400Y002899D01*
X003555Y003055D02*
X004305Y003055D01*
X004555Y003305D01*
X004555Y003680D01*
X004805Y003430D01*
X006305Y003430D01*
X006238Y004238D02*
X005555Y004238D01*
X005813Y004484D02*
X006173Y004484D01*
X006134Y004643D02*
X005772Y004643D01*
X006238Y004238D02*
X006555Y004555D01*
X006555Y004970D01*
X007748Y006228D02*
X008381Y006228D01*
X009623Y007654D02*
X009750Y007654D01*
X009750Y007813D02*
X009351Y007813D01*
X009509Y007971D02*
X009750Y007971D01*
X009750Y008130D02*
X009618Y008130D01*
X009701Y008288D02*
X009750Y008288D01*
X009744Y008447D02*
X009750Y008447D01*
X006361Y008922D02*
X003867Y008922D01*
X003873Y008764D02*
X006202Y008764D01*
X006044Y008605D02*
X003873Y008605D01*
X003873Y008447D02*
X005885Y008447D01*
X005727Y008288D02*
X005248Y008288D01*
X005248Y008130D02*
X005568Y008130D01*
X005410Y007971D02*
X005248Y007971D01*
X005242Y007813D02*
X005251Y007813D01*
X005093Y007654D02*
X004775Y007654D01*
X004775Y007496D02*
X004934Y007496D01*
X004835Y007337D02*
X004775Y007337D01*
X004775Y007179D02*
X004835Y007179D01*
X004835Y007020D02*
X004775Y007020D01*
X004775Y006862D02*
X004835Y006862D01*
X004335Y006862D02*
X004123Y006862D01*
X004123Y007020D02*
X004335Y007020D01*
X004335Y007179D02*
X004123Y007179D01*
X004077Y007337D02*
X004335Y007337D01*
X004335Y007496D02*
X003775Y007496D01*
X003775Y007654D02*
X004270Y007654D01*
X004555Y007680D02*
X004180Y008055D01*
X004498Y008130D02*
X004612Y008130D01*
X004612Y007971D02*
X004575Y007971D01*
X004555Y007680D02*
X004555Y006364D01*
X003805Y007055D02*
X003555Y007305D01*
X003555Y008680D01*
X003775Y008288D02*
X003862Y008288D01*
X003862Y008130D02*
X003775Y008130D01*
X003775Y007971D02*
X003862Y007971D01*
X003868Y007813D02*
X003775Y007813D01*
X004498Y008288D02*
X004612Y008288D01*
X002555Y006680D02*
X002430Y006805D01*
X001930Y006805D01*
X002555Y006680D02*
X002555Y005993D01*
X004055Y004493D01*
X004555Y004238D02*
X004555Y003680D01*
X003241Y003058D02*
X000860Y003058D01*
X000860Y002899D02*
X001448Y002899D01*
X001213Y002741D02*
X000860Y002741D01*
X000860Y002582D02*
X001059Y002582D01*
X000968Y002424D02*
X000860Y002424D01*
X000860Y002265D02*
X000902Y002265D01*
X002474Y000997D02*
X008136Y000997D01*
X007927Y001156D02*
X002683Y001156D01*
X002821Y001314D02*
X007789Y001314D01*
X007697Y001473D02*
X002913Y001473D01*
X002968Y001631D02*
X007642Y001631D01*
X007600Y001790D02*
X003010Y001790D01*
X003010Y001948D02*
X007600Y001948D01*
X007609Y002107D02*
X003001Y002107D01*
X002958Y002265D02*
X007652Y002265D01*
X007718Y002424D02*
X002892Y002424D01*
X002801Y002582D02*
X007809Y002582D01*
X007963Y002741D02*
X002647Y002741D01*
D17*
X003430Y001930D03*
X003930Y003555D03*
X005055Y005305D03*
X003430Y006430D03*
X003805Y007055D03*
X004180Y008055D03*
X003555Y008680D03*
X004930Y008055D03*
X007430Y008805D03*
X007680Y007680D03*
X007430Y006430D03*
X007555Y005305D03*
X009305Y007430D03*
X007180Y001930D03*
X001805Y008805D03*
M02*
