G75*
G70*
%OFA0B0*%
%FSLAX24Y24*%
%IPPOS*%
%LPD*%
%AMOC8*
5,1,8,0,0,1.08239X$1,22.5*
%
%ADD10C,0.0000*%
%ADD11C,0.0060*%
%ADD12C,0.0120*%
%ADD13R,0.0110X0.0005*%
%ADD14R,0.0210X0.0005*%
%ADD15R,0.0280X0.0005*%
%ADD16R,0.0325X0.0005*%
%ADD17R,0.0365X0.0005*%
%ADD18R,0.0410X0.0005*%
%ADD19R,0.0440X0.0005*%
%ADD20R,0.0470X0.0005*%
%ADD21R,0.0505X0.0005*%
%ADD22R,0.0530X0.0005*%
%ADD23R,0.0555X0.0005*%
%ADD24R,0.0580X0.0005*%
%ADD25R,0.0600X0.0005*%
%ADD26R,0.0625X0.0005*%
%ADD27R,0.0645X0.0005*%
%ADD28R,0.0665X0.0005*%
%ADD29R,0.0685X0.0005*%
%ADD30R,0.0705X0.0005*%
%ADD31R,0.0715X0.0005*%
%ADD32R,0.0735X0.0005*%
%ADD33R,0.0755X0.0005*%
%ADD34R,0.0090X0.0005*%
%ADD35R,0.0770X0.0005*%
%ADD36R,0.0190X0.0005*%
%ADD37R,0.0355X0.0005*%
%ADD38R,0.0360X0.0005*%
%ADD39R,0.0260X0.0005*%
%ADD40R,0.0315X0.0005*%
%ADD41R,0.0320X0.0005*%
%ADD42R,0.0295X0.0005*%
%ADD43R,0.0275X0.0005*%
%ADD44R,0.0400X0.0005*%
%ADD45R,0.0265X0.0005*%
%ADD46R,0.0435X0.0005*%
%ADD47R,0.0255X0.0005*%
%ADD48R,0.0465X0.0005*%
%ADD49R,0.0245X0.0005*%
%ADD50R,0.0495X0.0005*%
%ADD51R,0.0235X0.0005*%
%ADD52R,0.0525X0.0005*%
%ADD53R,0.0230X0.0005*%
%ADD54R,0.0240X0.0005*%
%ADD55R,0.0545X0.0005*%
%ADD56R,0.0820X0.0005*%
%ADD57R,0.0220X0.0005*%
%ADD58R,0.0025X0.0005*%
%ADD59R,0.0795X0.0005*%
%ADD60R,0.0215X0.0005*%
%ADD61R,0.0035X0.0005*%
%ADD62R,0.0040X0.0005*%
%ADD63R,0.0800X0.0005*%
%ADD64R,0.0205X0.0005*%
%ADD65R,0.0050X0.0005*%
%ADD66R,0.0805X0.0005*%
%ADD67R,0.0165X0.0005*%
%ADD68R,0.0055X0.0005*%
%ADD69R,0.0200X0.0005*%
%ADD70R,0.0060X0.0005*%
%ADD71R,0.0300X0.0005*%
%ADD72R,0.0195X0.0005*%
%ADD73R,0.0065X0.0005*%
%ADD74R,0.0345X0.0005*%
%ADD75R,0.0070X0.0005*%
%ADD76R,0.0385X0.0005*%
%ADD77R,0.0080X0.0005*%
%ADD78R,0.0425X0.0005*%
%ADD79R,0.0185X0.0005*%
%ADD80R,0.0085X0.0005*%
%ADD81R,0.0635X0.0005*%
%ADD82R,0.0810X0.0005*%
%ADD83R,0.0095X0.0005*%
%ADD84R,0.0335X0.0005*%
%ADD85R,0.0655X0.0005*%
%ADD86R,0.0105X0.0005*%
%ADD87R,0.0290X0.0005*%
%ADD88R,0.0660X0.0005*%
%ADD89R,0.0115X0.0005*%
%ADD90R,0.0285X0.0005*%
%ADD91R,0.0120X0.0005*%
%ADD92R,0.0270X0.0005*%
%ADD93R,0.0675X0.0005*%
%ADD94R,0.0130X0.0005*%
%ADD95R,0.0680X0.0005*%
%ADD96R,0.0135X0.0005*%
%ADD97R,0.0250X0.0005*%
%ADD98R,0.0140X0.0005*%
%ADD99R,0.0180X0.0005*%
%ADD100R,0.0695X0.0005*%
%ADD101R,0.0150X0.0005*%
%ADD102R,0.0160X0.0005*%
%ADD103R,0.0155X0.0005*%
%ADD104R,0.0145X0.0005*%
%ADD105R,0.0700X0.0005*%
%ADD106R,0.0225X0.0005*%
%ADD107R,0.0170X0.0005*%
%ADD108R,0.0100X0.0005*%
%ADD109R,0.0075X0.0005*%
%ADD110R,0.0720X0.0005*%
%ADD111R,0.0725X0.0005*%
%ADD112R,0.0340X0.0005*%
%ADD113R,0.0305X0.0005*%
%ADD114R,0.0175X0.0005*%
%ADD115R,0.0005X0.0005*%
%ADD116R,0.0010X0.0005*%
%ADD117R,0.0015X0.0005*%
%ADD118R,0.0020X0.0005*%
%ADD119R,0.0030X0.0005*%
%ADD120R,0.0125X0.0005*%
%ADD121R,0.0045X0.0005*%
%ADD122R,0.0370X0.0005*%
%ADD123R,0.0375X0.0005*%
%ADD124R,0.0350X0.0005*%
%ADD125R,0.0330X0.0005*%
%ADD126R,0.0485X0.0005*%
%ADD127R,0.0480X0.0005*%
%ADD128R,0.0460X0.0005*%
%ADD129R,0.0445X0.0005*%
%ADD130R,0.0310X0.0005*%
%ADD131R,0.0380X0.0005*%
%ADD132R,0.0415X0.0005*%
%ADD133R,0.0450X0.0005*%
%ADD134R,0.0490X0.0005*%
%ADD135R,0.0965X0.0005*%
%ADD136R,0.0975X0.0005*%
%ADD137R,0.0980X0.0005*%
%ADD138R,0.0990X0.0005*%
%ADD139R,0.1005X0.0005*%
%ADD140R,0.0615X0.0005*%
%ADD141R,0.0640X0.0005*%
%ADD142R,0.0605X0.0005*%
%ADD143R,0.0620X0.0005*%
%ADD144R,0.0590X0.0005*%
%ADD145R,0.0570X0.0005*%
%ADD146R,0.0540X0.0005*%
%ADD147R,0.0515X0.0005*%
%ADD148R,0.0565X0.0005*%
%ADD149R,0.0535X0.0005*%
%ADD150R,0.0395X0.0005*%
%ADD151R,0.0520X0.0005*%
%ADD152R,0.0500X0.0005*%
%ADD153R,0.0430X0.0005*%
%ADD154C,0.0080*%
%ADD155C,0.0050*%
%ADD156C,0.0100*%
%ADD157C,0.0025*%
D10*
X000680Y001930D02*
X000680Y008680D01*
X000682Y008748D01*
X000687Y008815D01*
X000696Y008882D01*
X000709Y008949D01*
X000726Y009014D01*
X000745Y009079D01*
X000769Y009143D01*
X000796Y009205D01*
X000826Y009266D01*
X000859Y009324D01*
X000895Y009381D01*
X000935Y009436D01*
X000977Y009489D01*
X001023Y009540D01*
X001070Y009587D01*
X001121Y009633D01*
X001174Y009675D01*
X001229Y009715D01*
X001286Y009751D01*
X001344Y009784D01*
X001405Y009814D01*
X001467Y009841D01*
X001531Y009865D01*
X001596Y009884D01*
X001661Y009901D01*
X001728Y009914D01*
X001795Y009923D01*
X001862Y009928D01*
X001930Y009930D01*
X008680Y009930D01*
X008748Y009928D01*
X008815Y009923D01*
X008882Y009914D01*
X008949Y009901D01*
X009014Y009884D01*
X009079Y009865D01*
X009143Y009841D01*
X009205Y009814D01*
X009266Y009784D01*
X009324Y009751D01*
X009381Y009715D01*
X009436Y009675D01*
X009489Y009633D01*
X009540Y009587D01*
X009587Y009540D01*
X009633Y009489D01*
X009675Y009436D01*
X009715Y009381D01*
X009751Y009324D01*
X009784Y009266D01*
X009814Y009205D01*
X009841Y009143D01*
X009865Y009079D01*
X009884Y009014D01*
X009901Y008949D01*
X009914Y008882D01*
X009923Y008815D01*
X009928Y008748D01*
X009930Y008680D01*
X009930Y001930D01*
X009928Y001862D01*
X009923Y001795D01*
X009914Y001728D01*
X009901Y001661D01*
X009884Y001596D01*
X009865Y001531D01*
X009841Y001467D01*
X009814Y001405D01*
X009784Y001344D01*
X009751Y001286D01*
X009715Y001229D01*
X009675Y001174D01*
X009633Y001121D01*
X009587Y001070D01*
X009540Y001023D01*
X009489Y000977D01*
X009436Y000935D01*
X009381Y000895D01*
X009324Y000859D01*
X009266Y000826D01*
X009205Y000796D01*
X009143Y000769D01*
X009079Y000745D01*
X009014Y000726D01*
X008949Y000709D01*
X008882Y000696D01*
X008815Y000687D01*
X008748Y000682D01*
X008680Y000680D01*
X001930Y000680D01*
X001862Y000682D01*
X001795Y000687D01*
X001728Y000696D01*
X001661Y000709D01*
X001596Y000726D01*
X001531Y000745D01*
X001467Y000769D01*
X001405Y000796D01*
X001344Y000826D01*
X001286Y000859D01*
X001229Y000895D01*
X001174Y000935D01*
X001121Y000977D01*
X001070Y001023D01*
X001023Y001070D01*
X000977Y001121D01*
X000935Y001174D01*
X000895Y001229D01*
X000859Y001286D01*
X000826Y001344D01*
X000796Y001405D01*
X000769Y001467D01*
X000745Y001531D01*
X000726Y001596D01*
X000709Y001661D01*
X000696Y001728D01*
X000687Y001795D01*
X000682Y001862D01*
X000680Y001930D01*
X001305Y001930D02*
X001307Y001980D01*
X001313Y002029D01*
X001323Y002078D01*
X001336Y002125D01*
X001354Y002172D01*
X001375Y002217D01*
X001399Y002260D01*
X001427Y002301D01*
X001458Y002340D01*
X001492Y002376D01*
X001529Y002410D01*
X001569Y002440D01*
X001610Y002467D01*
X001654Y002491D01*
X001699Y002511D01*
X001746Y002527D01*
X001794Y002540D01*
X001843Y002549D01*
X001893Y002554D01*
X001942Y002555D01*
X001992Y002552D01*
X002041Y002545D01*
X002090Y002534D01*
X002137Y002520D01*
X002183Y002501D01*
X002228Y002479D01*
X002271Y002454D01*
X002311Y002425D01*
X002349Y002393D01*
X002385Y002359D01*
X002418Y002321D01*
X002447Y002281D01*
X002473Y002239D01*
X002496Y002195D01*
X002515Y002149D01*
X002531Y002102D01*
X002543Y002053D01*
X002551Y002004D01*
X002555Y001955D01*
X002555Y001905D01*
X002551Y001856D01*
X002543Y001807D01*
X002531Y001758D01*
X002515Y001711D01*
X002496Y001665D01*
X002473Y001621D01*
X002447Y001579D01*
X002418Y001539D01*
X002385Y001501D01*
X002349Y001467D01*
X002311Y001435D01*
X002271Y001406D01*
X002228Y001381D01*
X002183Y001359D01*
X002137Y001340D01*
X002090Y001326D01*
X002041Y001315D01*
X001992Y001308D01*
X001942Y001305D01*
X001893Y001306D01*
X001843Y001311D01*
X001794Y001320D01*
X001746Y001333D01*
X001699Y001349D01*
X001654Y001369D01*
X001610Y001393D01*
X001569Y001420D01*
X001529Y001450D01*
X001492Y001484D01*
X001458Y001520D01*
X001427Y001559D01*
X001399Y001600D01*
X001375Y001643D01*
X001354Y001688D01*
X001336Y001735D01*
X001323Y001782D01*
X001313Y001831D01*
X001307Y001880D01*
X001305Y001930D01*
X008055Y001930D02*
X008057Y001980D01*
X008063Y002029D01*
X008073Y002078D01*
X008086Y002125D01*
X008104Y002172D01*
X008125Y002217D01*
X008149Y002260D01*
X008177Y002301D01*
X008208Y002340D01*
X008242Y002376D01*
X008279Y002410D01*
X008319Y002440D01*
X008360Y002467D01*
X008404Y002491D01*
X008449Y002511D01*
X008496Y002527D01*
X008544Y002540D01*
X008593Y002549D01*
X008643Y002554D01*
X008692Y002555D01*
X008742Y002552D01*
X008791Y002545D01*
X008840Y002534D01*
X008887Y002520D01*
X008933Y002501D01*
X008978Y002479D01*
X009021Y002454D01*
X009061Y002425D01*
X009099Y002393D01*
X009135Y002359D01*
X009168Y002321D01*
X009197Y002281D01*
X009223Y002239D01*
X009246Y002195D01*
X009265Y002149D01*
X009281Y002102D01*
X009293Y002053D01*
X009301Y002004D01*
X009305Y001955D01*
X009305Y001905D01*
X009301Y001856D01*
X009293Y001807D01*
X009281Y001758D01*
X009265Y001711D01*
X009246Y001665D01*
X009223Y001621D01*
X009197Y001579D01*
X009168Y001539D01*
X009135Y001501D01*
X009099Y001467D01*
X009061Y001435D01*
X009021Y001406D01*
X008978Y001381D01*
X008933Y001359D01*
X008887Y001340D01*
X008840Y001326D01*
X008791Y001315D01*
X008742Y001308D01*
X008692Y001305D01*
X008643Y001306D01*
X008593Y001311D01*
X008544Y001320D01*
X008496Y001333D01*
X008449Y001349D01*
X008404Y001369D01*
X008360Y001393D01*
X008319Y001420D01*
X008279Y001450D01*
X008242Y001484D01*
X008208Y001520D01*
X008177Y001559D01*
X008149Y001600D01*
X008125Y001643D01*
X008104Y001688D01*
X008086Y001735D01*
X008073Y001782D01*
X008063Y001831D01*
X008057Y001880D01*
X008055Y001930D01*
X008055Y008680D02*
X008057Y008730D01*
X008063Y008779D01*
X008073Y008828D01*
X008086Y008875D01*
X008104Y008922D01*
X008125Y008967D01*
X008149Y009010D01*
X008177Y009051D01*
X008208Y009090D01*
X008242Y009126D01*
X008279Y009160D01*
X008319Y009190D01*
X008360Y009217D01*
X008404Y009241D01*
X008449Y009261D01*
X008496Y009277D01*
X008544Y009290D01*
X008593Y009299D01*
X008643Y009304D01*
X008692Y009305D01*
X008742Y009302D01*
X008791Y009295D01*
X008840Y009284D01*
X008887Y009270D01*
X008933Y009251D01*
X008978Y009229D01*
X009021Y009204D01*
X009061Y009175D01*
X009099Y009143D01*
X009135Y009109D01*
X009168Y009071D01*
X009197Y009031D01*
X009223Y008989D01*
X009246Y008945D01*
X009265Y008899D01*
X009281Y008852D01*
X009293Y008803D01*
X009301Y008754D01*
X009305Y008705D01*
X009305Y008655D01*
X009301Y008606D01*
X009293Y008557D01*
X009281Y008508D01*
X009265Y008461D01*
X009246Y008415D01*
X009223Y008371D01*
X009197Y008329D01*
X009168Y008289D01*
X009135Y008251D01*
X009099Y008217D01*
X009061Y008185D01*
X009021Y008156D01*
X008978Y008131D01*
X008933Y008109D01*
X008887Y008090D01*
X008840Y008076D01*
X008791Y008065D01*
X008742Y008058D01*
X008692Y008055D01*
X008643Y008056D01*
X008593Y008061D01*
X008544Y008070D01*
X008496Y008083D01*
X008449Y008099D01*
X008404Y008119D01*
X008360Y008143D01*
X008319Y008170D01*
X008279Y008200D01*
X008242Y008234D01*
X008208Y008270D01*
X008177Y008309D01*
X008149Y008350D01*
X008125Y008393D01*
X008104Y008438D01*
X008086Y008485D01*
X008073Y008532D01*
X008063Y008581D01*
X008057Y008630D01*
X008055Y008680D01*
D11*
X006681Y008588D02*
X006307Y008588D01*
X006307Y009022D02*
X006681Y009022D01*
X003548Y008050D02*
X003548Y007710D01*
X003435Y007823D01*
X003322Y007710D01*
X003322Y008050D01*
X003180Y007994D02*
X003180Y007767D01*
X003123Y007710D01*
X003010Y007710D01*
X002953Y007767D01*
X002953Y007994D01*
X003010Y008050D01*
X003123Y008050D01*
X003180Y007994D01*
X003067Y007823D02*
X003180Y007710D01*
X002812Y007767D02*
X002755Y007710D01*
X002642Y007710D01*
X002585Y007767D01*
X002642Y007880D02*
X002755Y007880D01*
X002812Y007823D01*
X002812Y007767D01*
X002642Y007880D02*
X002585Y007937D01*
X002585Y007994D01*
X002642Y008050D01*
X002755Y008050D01*
X002812Y007994D01*
X002755Y007050D02*
X002642Y007050D01*
X002585Y006994D01*
X002585Y006937D01*
X002642Y006880D01*
X002755Y006880D01*
X002812Y006823D01*
X002812Y006767D01*
X002755Y006710D01*
X002642Y006710D01*
X002585Y006767D01*
X002812Y006994D02*
X002755Y007050D01*
X002953Y007050D02*
X003123Y007050D01*
X003180Y006994D01*
X003180Y006767D01*
X003123Y006710D01*
X002953Y006710D01*
X002953Y007050D01*
X003322Y006937D02*
X003322Y006710D01*
X003322Y006880D02*
X003548Y006880D01*
X003548Y006937D02*
X003548Y006710D01*
X003548Y006937D02*
X003435Y007050D01*
X003322Y006937D01*
X003322Y005925D02*
X003322Y005585D01*
X003548Y005585D01*
X003180Y005642D02*
X003123Y005585D01*
X003010Y005585D01*
X002953Y005642D01*
X002953Y005869D01*
X003010Y005925D01*
X003123Y005925D01*
X003180Y005869D01*
X002812Y005869D02*
X002755Y005925D01*
X002642Y005925D01*
X002585Y005869D01*
X002585Y005812D01*
X002642Y005755D01*
X002755Y005755D01*
X002812Y005698D01*
X002812Y005642D01*
X002755Y005585D01*
X002642Y005585D01*
X002585Y005642D01*
X002585Y004925D02*
X002585Y004698D01*
X002698Y004585D01*
X002812Y004698D01*
X002812Y004925D01*
X002953Y004869D02*
X002953Y004642D01*
X003010Y004585D01*
X003123Y004585D01*
X003180Y004642D01*
X003322Y004642D02*
X003322Y004869D01*
X003378Y004925D01*
X003492Y004925D01*
X003548Y004869D01*
X003548Y004642D02*
X003492Y004585D01*
X003378Y004585D01*
X003322Y004642D01*
X003180Y004869D02*
X003123Y004925D01*
X003010Y004925D01*
X002953Y004869D01*
X002953Y003925D02*
X003180Y003585D01*
X003180Y003925D01*
X003322Y003925D02*
X003492Y003925D01*
X003548Y003869D01*
X003548Y003642D01*
X003492Y003585D01*
X003322Y003585D01*
X003322Y003925D01*
X002953Y003925D02*
X002953Y003585D01*
X002812Y003642D02*
X002812Y003755D01*
X002698Y003755D01*
X002585Y003642D02*
X002642Y003585D01*
X002755Y003585D01*
X002812Y003642D01*
X002812Y003869D02*
X002755Y003925D01*
X002642Y003925D01*
X002585Y003869D01*
X002585Y003642D01*
D12*
X001930Y002805D02*
X001872Y002803D01*
X001813Y002797D01*
X001756Y002787D01*
X001699Y002774D01*
X001643Y002757D01*
X001588Y002736D01*
X001535Y002711D01*
X001484Y002683D01*
X001435Y002651D01*
X001388Y002617D01*
X001343Y002579D01*
X001301Y002538D01*
X001262Y002495D01*
X001226Y002449D01*
X001192Y002401D01*
X001163Y002351D01*
X001136Y002298D01*
X001113Y002244D01*
X001094Y002189D01*
X001079Y002133D01*
X001067Y002076D01*
X001059Y002018D01*
X001055Y001959D01*
X001055Y001901D01*
X001059Y001842D01*
X001067Y001784D01*
X001079Y001727D01*
X001094Y001671D01*
X001113Y001616D01*
X001136Y001562D01*
X001163Y001509D01*
X001192Y001459D01*
X001226Y001411D01*
X001262Y001365D01*
X001301Y001322D01*
X001343Y001281D01*
X001388Y001243D01*
X001435Y001209D01*
X001484Y001177D01*
X001535Y001149D01*
X001588Y001124D01*
X001643Y001103D01*
X001699Y001086D01*
X001756Y001073D01*
X001813Y001063D01*
X001872Y001057D01*
X001930Y001055D01*
X001988Y001057D01*
X002047Y001063D01*
X002104Y001073D01*
X002161Y001086D01*
X002217Y001103D01*
X002272Y001124D01*
X002325Y001149D01*
X002376Y001177D01*
X002425Y001209D01*
X002472Y001243D01*
X002517Y001281D01*
X002559Y001322D01*
X002598Y001365D01*
X002634Y001411D01*
X002668Y001459D01*
X002697Y001509D01*
X002724Y001562D01*
X002747Y001616D01*
X002766Y001671D01*
X002781Y001727D01*
X002793Y001784D01*
X002801Y001842D01*
X002805Y001901D01*
X002805Y001959D01*
X002801Y002018D01*
X002793Y002076D01*
X002781Y002133D01*
X002766Y002189D01*
X002747Y002244D01*
X002724Y002298D01*
X002697Y002351D01*
X002668Y002401D01*
X002634Y002449D01*
X002598Y002495D01*
X002559Y002538D01*
X002517Y002579D01*
X002472Y002617D01*
X002425Y002651D01*
X002376Y002683D01*
X002325Y002711D01*
X002272Y002736D01*
X002217Y002757D01*
X002161Y002774D01*
X002104Y002787D01*
X002047Y002797D01*
X001988Y002803D01*
X001930Y002805D01*
X008680Y002805D02*
X008622Y002803D01*
X008563Y002797D01*
X008506Y002787D01*
X008449Y002774D01*
X008393Y002757D01*
X008338Y002736D01*
X008285Y002711D01*
X008234Y002683D01*
X008185Y002651D01*
X008138Y002617D01*
X008093Y002579D01*
X008051Y002538D01*
X008012Y002495D01*
X007976Y002449D01*
X007942Y002401D01*
X007913Y002351D01*
X007886Y002298D01*
X007863Y002244D01*
X007844Y002189D01*
X007829Y002133D01*
X007817Y002076D01*
X007809Y002018D01*
X007805Y001959D01*
X007805Y001901D01*
X007809Y001842D01*
X007817Y001784D01*
X007829Y001727D01*
X007844Y001671D01*
X007863Y001616D01*
X007886Y001562D01*
X007913Y001509D01*
X007942Y001459D01*
X007976Y001411D01*
X008012Y001365D01*
X008051Y001322D01*
X008093Y001281D01*
X008138Y001243D01*
X008185Y001209D01*
X008234Y001177D01*
X008285Y001149D01*
X008338Y001124D01*
X008393Y001103D01*
X008449Y001086D01*
X008506Y001073D01*
X008563Y001063D01*
X008622Y001057D01*
X008680Y001055D01*
X008738Y001057D01*
X008797Y001063D01*
X008854Y001073D01*
X008911Y001086D01*
X008967Y001103D01*
X009022Y001124D01*
X009075Y001149D01*
X009126Y001177D01*
X009175Y001209D01*
X009222Y001243D01*
X009267Y001281D01*
X009309Y001322D01*
X009348Y001365D01*
X009384Y001411D01*
X009418Y001459D01*
X009447Y001509D01*
X009474Y001562D01*
X009497Y001616D01*
X009516Y001671D01*
X009531Y001727D01*
X009543Y001784D01*
X009551Y001842D01*
X009555Y001901D01*
X009555Y001959D01*
X009551Y002018D01*
X009543Y002076D01*
X009531Y002133D01*
X009516Y002189D01*
X009497Y002244D01*
X009474Y002298D01*
X009447Y002351D01*
X009418Y002401D01*
X009384Y002449D01*
X009348Y002495D01*
X009309Y002538D01*
X009267Y002579D01*
X009222Y002617D01*
X009175Y002651D01*
X009126Y002683D01*
X009075Y002711D01*
X009022Y002736D01*
X008967Y002757D01*
X008911Y002774D01*
X008854Y002787D01*
X008797Y002797D01*
X008738Y002803D01*
X008680Y002805D01*
X008680Y007805D02*
X008622Y007807D01*
X008563Y007813D01*
X008506Y007823D01*
X008449Y007836D01*
X008393Y007853D01*
X008338Y007874D01*
X008285Y007899D01*
X008234Y007927D01*
X008185Y007959D01*
X008138Y007993D01*
X008093Y008031D01*
X008051Y008072D01*
X008012Y008115D01*
X007976Y008161D01*
X007942Y008209D01*
X007913Y008259D01*
X007886Y008312D01*
X007863Y008366D01*
X007844Y008421D01*
X007829Y008477D01*
X007817Y008534D01*
X007809Y008592D01*
X007805Y008651D01*
X007805Y008709D01*
X007809Y008768D01*
X007817Y008826D01*
X007829Y008883D01*
X007844Y008939D01*
X007863Y008994D01*
X007886Y009048D01*
X007913Y009101D01*
X007942Y009151D01*
X007976Y009199D01*
X008012Y009245D01*
X008051Y009288D01*
X008093Y009329D01*
X008138Y009367D01*
X008185Y009401D01*
X008234Y009433D01*
X008285Y009461D01*
X008338Y009486D01*
X008393Y009507D01*
X008449Y009524D01*
X008506Y009537D01*
X008563Y009547D01*
X008622Y009553D01*
X008680Y009555D01*
X008738Y009553D01*
X008797Y009547D01*
X008854Y009537D01*
X008911Y009524D01*
X008967Y009507D01*
X009022Y009486D01*
X009075Y009461D01*
X009126Y009433D01*
X009175Y009401D01*
X009222Y009367D01*
X009267Y009329D01*
X009309Y009288D01*
X009348Y009245D01*
X009384Y009199D01*
X009418Y009151D01*
X009447Y009101D01*
X009474Y009048D01*
X009497Y008994D01*
X009516Y008939D01*
X009531Y008883D01*
X009543Y008826D01*
X009551Y008768D01*
X009555Y008709D01*
X009555Y008651D01*
X009551Y008592D01*
X009543Y008534D01*
X009531Y008477D01*
X009516Y008421D01*
X009497Y008366D01*
X009474Y008312D01*
X009447Y008259D01*
X009418Y008209D01*
X009384Y008161D01*
X009348Y008115D01*
X009309Y008072D01*
X009267Y008031D01*
X009222Y007993D01*
X009175Y007959D01*
X009126Y007927D01*
X009075Y007899D01*
X009022Y007874D01*
X008967Y007853D01*
X008911Y007836D01*
X008854Y007823D01*
X008797Y007813D01*
X008738Y007807D01*
X008680Y007805D01*
D13*
X005244Y002901D03*
X005244Y002896D03*
X005089Y002336D03*
X005089Y002331D03*
X004929Y002356D03*
X004929Y002361D03*
X004869Y001886D03*
X004899Y001691D03*
X005274Y001791D03*
X005289Y001781D03*
X005294Y001776D03*
X005304Y001771D03*
X005309Y001766D03*
X005319Y001761D03*
X005324Y001756D03*
X005329Y001751D03*
X005339Y001746D03*
X005344Y001741D03*
X005359Y001731D03*
X005374Y001721D03*
X005379Y001716D03*
X005394Y001706D03*
X005439Y001676D03*
X005454Y001666D03*
X005459Y001661D03*
X005464Y001656D03*
X005479Y001646D03*
X005374Y001371D03*
X005494Y002021D03*
X005614Y002176D03*
X005614Y002181D03*
X005619Y002186D03*
X005619Y002191D03*
D14*
X005014Y001541D03*
X005374Y001376D03*
X004284Y001721D03*
X004029Y002241D03*
X004024Y002246D03*
X004024Y002786D03*
X004964Y003291D03*
X005374Y003096D03*
X006279Y002826D03*
X006564Y002676D03*
X006479Y001646D03*
D15*
X005649Y001496D03*
X005374Y001381D03*
X006314Y002806D03*
X004964Y003286D03*
X004119Y002836D03*
D16*
X004966Y003281D03*
X005386Y003126D03*
X006346Y001586D03*
X005376Y001386D03*
D17*
X005376Y001391D03*
X006371Y002761D03*
D18*
X005374Y001396D03*
X004279Y002891D03*
D19*
X004269Y002881D03*
X005374Y001401D03*
D20*
X005374Y001406D03*
X004259Y002866D03*
D21*
X004976Y003251D03*
X005376Y001411D03*
D22*
X005374Y001416D03*
D23*
X005376Y001421D03*
X005001Y003231D03*
D24*
X005019Y003216D03*
X005374Y001426D03*
D25*
X005374Y001431D03*
X005029Y003206D03*
D26*
X005376Y001436D03*
D27*
X005376Y001441D03*
X004731Y001586D03*
D28*
X004701Y001601D03*
X005376Y001446D03*
D29*
X005376Y001451D03*
X004676Y001616D03*
D30*
X004646Y001636D03*
X005376Y001456D03*
D31*
X005376Y001461D03*
X004641Y001641D03*
X004636Y001646D03*
D32*
X005376Y001466D03*
D33*
X005376Y001471D03*
D34*
X005559Y001581D03*
X005494Y001996D03*
X005629Y002226D03*
X005634Y002236D03*
X005634Y002241D03*
X005089Y002356D03*
X004924Y002331D03*
X004869Y001861D03*
X004904Y001696D03*
X006109Y001471D03*
X005249Y002926D03*
D35*
X005374Y001476D03*
D36*
X005294Y001806D03*
X006109Y001476D03*
X006584Y002131D03*
X006589Y002136D03*
X006594Y002146D03*
X006599Y002151D03*
X006604Y002156D03*
X006609Y002161D03*
X006614Y002636D03*
X006609Y002641D03*
X006604Y002646D03*
X006269Y002831D03*
X006144Y003051D03*
X006139Y003056D03*
X006134Y003061D03*
X004154Y002146D03*
X003994Y002271D03*
X003989Y002276D03*
X003989Y002756D03*
X003994Y002761D03*
X004239Y001756D03*
X004244Y001751D03*
D37*
X005161Y001481D03*
X006111Y001491D03*
X006356Y002771D03*
D38*
X006364Y002766D03*
X006414Y002736D03*
X005179Y003186D03*
X004299Y002911D03*
X004179Y002851D03*
X005589Y001481D03*
D39*
X006109Y001481D03*
X006409Y001606D03*
X006304Y002811D03*
X006024Y003131D03*
X005379Y003111D03*
X004354Y001681D03*
D40*
X005131Y001486D03*
X005621Y001486D03*
X005211Y003181D03*
D41*
X004154Y002846D03*
X006109Y001486D03*
X006444Y002731D03*
X006334Y002791D03*
D42*
X006321Y002801D03*
X006461Y002726D03*
X005636Y001491D03*
X005116Y001491D03*
X004136Y002841D03*
D43*
X004331Y002936D03*
X005301Y001831D03*
X005101Y001496D03*
X004846Y001661D03*
X004371Y001676D03*
D44*
X004284Y002896D03*
X006109Y001496D03*
D45*
X005846Y001596D03*
X005666Y001501D03*
X005311Y001821D03*
X005086Y001501D03*
X004106Y002831D03*
X006491Y002716D03*
D46*
X006111Y001501D03*
D47*
X005676Y001506D03*
X005311Y001816D03*
X005076Y001506D03*
X004346Y001686D03*
X004096Y002826D03*
X006501Y002711D03*
D48*
X006111Y001506D03*
X004951Y003266D03*
D49*
X006046Y003121D03*
X006511Y002706D03*
X005686Y001511D03*
X005066Y001511D03*
X004336Y001691D03*
X004121Y002181D03*
X004116Y002186D03*
X004081Y002211D03*
D50*
X006111Y001511D03*
D51*
X005696Y001516D03*
X005056Y001516D03*
X004651Y001556D03*
X004316Y001701D03*
X004131Y002171D03*
X004126Y002176D03*
X004066Y002811D03*
X006056Y003116D03*
X006531Y002696D03*
D52*
X006111Y001516D03*
D53*
X006439Y001621D03*
X006449Y001626D03*
X006539Y002691D03*
X006289Y002821D03*
X006064Y003111D03*
X005049Y001521D03*
X005039Y001526D03*
X004064Y002221D03*
X004054Y002226D03*
X004054Y002806D03*
D54*
X004074Y002816D03*
X004074Y002216D03*
X004324Y001696D03*
X005314Y001836D03*
X005704Y001521D03*
X005839Y001601D03*
X006429Y001616D03*
X006524Y002701D03*
X005379Y003106D03*
D55*
X004996Y003236D03*
X006111Y001521D03*
D56*
X005989Y001526D03*
D57*
X006464Y001636D03*
X006549Y002686D03*
X006079Y003101D03*
X006074Y003106D03*
X005029Y001531D03*
X004299Y001711D03*
X004039Y002796D03*
D58*
X004906Y002246D03*
X004906Y002241D03*
X005081Y002421D03*
X005481Y001896D03*
X005481Y001891D03*
X005586Y001531D03*
X004861Y001791D03*
X005681Y002391D03*
X005681Y002396D03*
X005261Y003011D03*
X005261Y003016D03*
D59*
X006011Y001531D03*
X006021Y001536D03*
D60*
X005831Y001606D03*
X005326Y001841D03*
X005021Y001536D03*
X004291Y001716D03*
X004141Y002161D03*
X004036Y002236D03*
X004031Y002791D03*
X006086Y003096D03*
X006556Y002681D03*
X006471Y001641D03*
D61*
X005671Y002361D03*
X005676Y002371D03*
X005676Y002376D03*
X005081Y002411D03*
X005081Y002416D03*
X004906Y002256D03*
X004906Y001706D03*
X005581Y001536D03*
X005256Y002996D03*
D62*
X005259Y002991D03*
X005084Y002406D03*
X004909Y002266D03*
X004909Y002261D03*
X004864Y001811D03*
X004864Y001806D03*
X005484Y001916D03*
X005484Y001921D03*
X005809Y001651D03*
X005579Y001541D03*
X005669Y002351D03*
X005669Y002356D03*
X005674Y002366D03*
D63*
X006059Y001556D03*
X006049Y001551D03*
X006029Y001541D03*
D64*
X006486Y001651D03*
X006491Y001656D03*
X006571Y002671D03*
X006101Y003086D03*
X006096Y003091D03*
X005001Y001551D03*
X005006Y001546D03*
X004276Y001726D03*
X004146Y002156D03*
X004016Y002251D03*
X004016Y002781D03*
D65*
X004914Y002281D03*
X005084Y002396D03*
X004864Y001826D03*
X004864Y001821D03*
X004864Y001816D03*
X005579Y001546D03*
X005664Y002331D03*
X005664Y002336D03*
X005254Y002976D03*
D66*
X006081Y001571D03*
X006076Y001566D03*
X006066Y001561D03*
X006041Y001546D03*
X006091Y001576D03*
D67*
X006571Y001736D03*
X006576Y001741D03*
X006576Y001746D03*
X006581Y001751D03*
X006586Y002076D03*
X006581Y002086D03*
X006576Y002091D03*
X006576Y002096D03*
X006571Y002106D03*
X006571Y002111D03*
X006671Y002231D03*
X006676Y002236D03*
X006681Y002246D03*
X006676Y002561D03*
X006671Y002571D03*
X006666Y002576D03*
X006256Y002836D03*
X006201Y002981D03*
X006196Y002986D03*
X006196Y002991D03*
X006191Y002996D03*
X006186Y003001D03*
X005526Y001631D03*
X004651Y001551D03*
X004186Y001816D03*
X004181Y001821D03*
X004181Y001826D03*
X004176Y001831D03*
X004171Y001841D03*
X004161Y002136D03*
X003936Y002331D03*
X003931Y002341D03*
X003926Y002346D03*
X003921Y002351D03*
X003916Y002361D03*
X003916Y002671D03*
X003921Y002681D03*
X003926Y002686D03*
X003931Y002691D03*
X003936Y002701D03*
D68*
X004771Y003126D03*
X004771Y003131D03*
X004766Y003156D03*
X004766Y003161D03*
X004776Y003101D03*
X004776Y003096D03*
X004781Y003071D03*
X004786Y003041D03*
X004791Y003011D03*
X004796Y002981D03*
X004746Y003281D03*
X004746Y003286D03*
X005256Y002971D03*
X005086Y002391D03*
X004911Y002286D03*
X005486Y001941D03*
X005486Y001936D03*
X005656Y002311D03*
X005656Y002316D03*
X005661Y002321D03*
X005661Y002326D03*
X005576Y001551D03*
D69*
X005829Y001611D03*
X006499Y001661D03*
X006584Y002661D03*
X006579Y002666D03*
X006109Y003081D03*
X004834Y003186D03*
X004364Y002951D03*
X004009Y002776D03*
X004004Y002771D03*
X004004Y002261D03*
X004009Y002256D03*
X004149Y002151D03*
X004264Y001736D03*
X004269Y001731D03*
X004874Y001671D03*
X004994Y001556D03*
D70*
X004864Y001831D03*
X004864Y001836D03*
X004824Y001941D03*
X004814Y001966D03*
X004804Y001991D03*
X004794Y002016D03*
X004769Y002081D03*
X004759Y002106D03*
X004749Y002131D03*
X004739Y002156D03*
X004714Y002221D03*
X004704Y002246D03*
X004694Y002271D03*
X004684Y002296D03*
X004659Y002361D03*
X004649Y002386D03*
X004639Y002411D03*
X004629Y002436D03*
X004594Y002526D03*
X004584Y002551D03*
X004574Y002576D03*
X004564Y002601D03*
X004539Y002666D03*
X004529Y002691D03*
X004519Y002716D03*
X004509Y002741D03*
X004499Y002766D03*
X004489Y002791D03*
X004484Y002806D03*
X004474Y002831D03*
X004809Y002896D03*
X004809Y002901D03*
X004809Y002906D03*
X004809Y002911D03*
X004809Y002916D03*
X004809Y002921D03*
X004804Y002926D03*
X004804Y002931D03*
X004804Y002936D03*
X004804Y002941D03*
X004804Y002946D03*
X004804Y002951D03*
X004799Y002956D03*
X004799Y002961D03*
X004799Y002966D03*
X004799Y002971D03*
X004799Y002976D03*
X004794Y002986D03*
X004794Y002991D03*
X004794Y002996D03*
X004794Y003001D03*
X004794Y003006D03*
X004789Y003016D03*
X004789Y003021D03*
X004789Y003026D03*
X004789Y003031D03*
X004789Y003036D03*
X004784Y003046D03*
X004784Y003051D03*
X004784Y003056D03*
X004784Y003061D03*
X004784Y003066D03*
X004779Y003076D03*
X004779Y003081D03*
X004779Y003086D03*
X004779Y003091D03*
X004774Y003106D03*
X004774Y003111D03*
X004774Y003116D03*
X004774Y003121D03*
X004769Y003136D03*
X004769Y003141D03*
X004769Y003146D03*
X004769Y003151D03*
X004744Y003291D03*
X004744Y003296D03*
X004814Y002891D03*
X004814Y002886D03*
X004814Y002881D03*
X004814Y002876D03*
X004814Y002871D03*
X004814Y002866D03*
X004819Y002856D03*
X004819Y002851D03*
X004819Y002846D03*
X004819Y002841D03*
X004819Y002836D03*
X004824Y002826D03*
X004824Y002821D03*
X004824Y002816D03*
X004824Y002811D03*
X004829Y002801D03*
X004829Y002796D03*
X004829Y002791D03*
X004829Y002786D03*
X004829Y002781D03*
X004834Y002771D03*
X004834Y002766D03*
X004834Y002761D03*
X004834Y002756D03*
X004834Y002751D03*
X004839Y002741D03*
X004839Y002736D03*
X004839Y002731D03*
X004839Y002726D03*
X004839Y002721D03*
X004844Y002711D03*
X004844Y002706D03*
X004844Y002701D03*
X004844Y002696D03*
X004849Y002686D03*
X004849Y002681D03*
X004849Y002676D03*
X004849Y002671D03*
X004849Y002666D03*
X004854Y002656D03*
X004854Y002651D03*
X004854Y002646D03*
X004854Y002641D03*
X004854Y002636D03*
X004859Y002626D03*
X004859Y002621D03*
X004859Y002616D03*
X004859Y002611D03*
X004859Y002606D03*
X004864Y002596D03*
X004864Y002591D03*
X004864Y002586D03*
X004864Y002581D03*
X004864Y002576D03*
X004869Y002566D03*
X004869Y002561D03*
X004869Y002556D03*
X004869Y002551D03*
X004874Y002541D03*
X004874Y002536D03*
X004874Y002531D03*
X004874Y002526D03*
X004874Y002521D03*
X004879Y002511D03*
X004879Y002506D03*
X004879Y002501D03*
X004879Y002496D03*
X004879Y002491D03*
X004884Y002481D03*
X004884Y002476D03*
X004884Y002471D03*
X004884Y002466D03*
X004884Y002461D03*
X004889Y002451D03*
X004889Y002446D03*
X004889Y002441D03*
X004889Y002436D03*
X004894Y002426D03*
X004894Y002421D03*
X004894Y002416D03*
X004894Y002411D03*
X004894Y002406D03*
X004914Y002291D03*
X005034Y002251D03*
X005024Y002226D03*
X005014Y002201D03*
X005044Y002276D03*
X005084Y002386D03*
X005369Y002461D03*
X005374Y002441D03*
X005379Y002421D03*
X005384Y002396D03*
X005389Y002376D03*
X005394Y002356D03*
X005399Y002331D03*
X005404Y002311D03*
X005409Y002291D03*
X005414Y002266D03*
X005419Y002246D03*
X005424Y002226D03*
X005429Y002201D03*
X005434Y002181D03*
X005439Y002161D03*
X005444Y002136D03*
X005449Y002121D03*
X005449Y002116D03*
X005454Y002106D03*
X005454Y002101D03*
X005454Y002096D03*
X005459Y002081D03*
X005459Y002076D03*
X005459Y002071D03*
X005464Y002061D03*
X005464Y002056D03*
X005489Y001951D03*
X005489Y001946D03*
X005609Y001911D03*
X005609Y001906D03*
X005609Y001901D03*
X005609Y001896D03*
X005604Y001886D03*
X005604Y001881D03*
X005604Y001876D03*
X005604Y001871D03*
X005604Y001866D03*
X005604Y001861D03*
X005604Y001856D03*
X005604Y001851D03*
X005604Y001846D03*
X005599Y001841D03*
X005599Y001836D03*
X005599Y001831D03*
X005599Y001826D03*
X005599Y001821D03*
X005599Y001816D03*
X005599Y001811D03*
X005599Y001806D03*
X005599Y001801D03*
X005599Y001796D03*
X005594Y001791D03*
X005594Y001786D03*
X005594Y001781D03*
X005594Y001776D03*
X005594Y001771D03*
X005594Y001766D03*
X005594Y001761D03*
X005594Y001756D03*
X005594Y001751D03*
X005594Y001746D03*
X005589Y001741D03*
X005589Y001736D03*
X005589Y001731D03*
X005589Y001726D03*
X005589Y001721D03*
X005589Y001716D03*
X005589Y001711D03*
X005589Y001706D03*
X005589Y001701D03*
X005589Y001696D03*
X005584Y001691D03*
X005584Y001686D03*
X005584Y001681D03*
X005584Y001676D03*
X005584Y001671D03*
X005584Y001666D03*
X005584Y001661D03*
X005584Y001656D03*
X005584Y001651D03*
X005584Y001646D03*
X005579Y001641D03*
X005574Y001556D03*
X005614Y001946D03*
X005614Y001951D03*
X005614Y001956D03*
X005619Y001996D03*
X005619Y002001D03*
X005624Y002026D03*
X005624Y002031D03*
X005624Y002036D03*
X005624Y002041D03*
X005624Y002046D03*
X005629Y002056D03*
X005629Y002061D03*
X005629Y002066D03*
X005629Y002071D03*
X005629Y002076D03*
X005629Y002081D03*
X005629Y002086D03*
X005629Y002091D03*
X005634Y002101D03*
X005634Y002106D03*
X005634Y002111D03*
X005634Y002116D03*
X005634Y002121D03*
X005634Y002126D03*
X005654Y002301D03*
X005654Y002306D03*
X005364Y002486D03*
X005359Y002506D03*
X005354Y002526D03*
X005349Y002551D03*
X005344Y002571D03*
X005339Y002591D03*
X005334Y002616D03*
X005329Y002636D03*
X005324Y002656D03*
X005319Y002681D03*
X005314Y002701D03*
X005309Y002721D03*
X005304Y002746D03*
X005299Y002766D03*
X005294Y002786D03*
X005289Y002806D03*
X005289Y002811D03*
X005284Y002831D03*
X005279Y002851D03*
X005254Y002961D03*
X005254Y002966D03*
D71*
X005384Y003121D03*
X005729Y003251D03*
X006369Y001591D03*
X004649Y001561D03*
D72*
X004976Y001571D03*
X004981Y001566D03*
X004986Y001561D03*
X004256Y001741D03*
X004251Y001746D03*
X003996Y002266D03*
X004001Y002766D03*
X006116Y003076D03*
X006121Y003071D03*
X006126Y003066D03*
X006591Y002656D03*
X006596Y002651D03*
X006516Y001676D03*
X006511Y001671D03*
X006506Y001666D03*
D73*
X005626Y002051D03*
X005621Y002021D03*
X005621Y002016D03*
X005621Y002011D03*
X005621Y002006D03*
X005616Y001991D03*
X005616Y001986D03*
X005616Y001981D03*
X005616Y001976D03*
X005616Y001971D03*
X005616Y001966D03*
X005616Y001961D03*
X005611Y001941D03*
X005611Y001936D03*
X005611Y001931D03*
X005611Y001926D03*
X005611Y001921D03*
X005611Y001916D03*
X005606Y001891D03*
X005486Y001956D03*
X005531Y002056D03*
X005536Y002066D03*
X005541Y002076D03*
X005546Y002086D03*
X005551Y002096D03*
X005556Y002106D03*
X005561Y002116D03*
X005566Y002126D03*
X005631Y002096D03*
X005461Y002066D03*
X005456Y002086D03*
X005456Y002091D03*
X005451Y002111D03*
X005446Y002126D03*
X005446Y002131D03*
X005441Y002141D03*
X005441Y002146D03*
X005441Y002151D03*
X005441Y002156D03*
X005436Y002166D03*
X005436Y002171D03*
X005436Y002176D03*
X005431Y002186D03*
X005431Y002191D03*
X005431Y002196D03*
X005426Y002206D03*
X005426Y002211D03*
X005426Y002216D03*
X005426Y002221D03*
X005421Y002231D03*
X005421Y002236D03*
X005421Y002241D03*
X005416Y002251D03*
X005416Y002256D03*
X005416Y002261D03*
X005411Y002271D03*
X005411Y002276D03*
X005411Y002281D03*
X005411Y002286D03*
X005406Y002296D03*
X005406Y002301D03*
X005406Y002306D03*
X005401Y002316D03*
X005401Y002321D03*
X005401Y002326D03*
X005396Y002336D03*
X005396Y002341D03*
X005396Y002346D03*
X005396Y002351D03*
X005391Y002361D03*
X005391Y002366D03*
X005391Y002371D03*
X005386Y002381D03*
X005386Y002386D03*
X005386Y002391D03*
X005381Y002401D03*
X005381Y002406D03*
X005381Y002411D03*
X005381Y002416D03*
X005376Y002426D03*
X005376Y002431D03*
X005376Y002436D03*
X005371Y002446D03*
X005371Y002451D03*
X005371Y002456D03*
X005366Y002466D03*
X005366Y002471D03*
X005366Y002476D03*
X005366Y002481D03*
X005361Y002491D03*
X005361Y002496D03*
X005361Y002501D03*
X005356Y002511D03*
X005356Y002516D03*
X005356Y002521D03*
X005351Y002531D03*
X005351Y002536D03*
X005351Y002541D03*
X005351Y002546D03*
X005346Y002556D03*
X005346Y002561D03*
X005346Y002566D03*
X005341Y002576D03*
X005341Y002581D03*
X005341Y002586D03*
X005336Y002596D03*
X005336Y002601D03*
X005336Y002606D03*
X005336Y002611D03*
X005331Y002621D03*
X005331Y002626D03*
X005331Y002631D03*
X005326Y002641D03*
X005326Y002646D03*
X005326Y002651D03*
X005321Y002661D03*
X005321Y002666D03*
X005321Y002671D03*
X005321Y002676D03*
X005316Y002686D03*
X005316Y002691D03*
X005316Y002696D03*
X005311Y002706D03*
X005311Y002711D03*
X005311Y002716D03*
X005306Y002726D03*
X005306Y002731D03*
X005306Y002736D03*
X005306Y002741D03*
X005301Y002751D03*
X005301Y002756D03*
X005301Y002761D03*
X005296Y002771D03*
X005296Y002776D03*
X005296Y002781D03*
X005291Y002791D03*
X005291Y002796D03*
X005291Y002801D03*
X005286Y002816D03*
X005286Y002821D03*
X005286Y002826D03*
X005281Y002836D03*
X005281Y002841D03*
X005281Y002846D03*
X005276Y002856D03*
X005276Y002861D03*
X005276Y002866D03*
X005206Y002866D03*
X005201Y002856D03*
X005196Y002846D03*
X005191Y002836D03*
X005186Y002826D03*
X005181Y002816D03*
X005176Y002806D03*
X005171Y002796D03*
X005166Y002786D03*
X005161Y002776D03*
X005156Y002766D03*
X005151Y002756D03*
X005146Y002746D03*
X005141Y002736D03*
X005136Y002726D03*
X005131Y002716D03*
X005126Y002706D03*
X005121Y002696D03*
X005116Y002686D03*
X005111Y002676D03*
X005106Y002666D03*
X005101Y002661D03*
X005101Y002656D03*
X005096Y002651D03*
X005096Y002646D03*
X005091Y002641D03*
X005091Y002636D03*
X005086Y002631D03*
X005086Y002626D03*
X005081Y002621D03*
X005076Y002611D03*
X005071Y002601D03*
X005066Y002591D03*
X005061Y002581D03*
X005056Y002571D03*
X005051Y002561D03*
X005046Y002551D03*
X005041Y002541D03*
X005036Y002531D03*
X005086Y002381D03*
X005051Y002301D03*
X005051Y002296D03*
X005051Y002291D03*
X005046Y002286D03*
X005046Y002281D03*
X005041Y002271D03*
X005041Y002266D03*
X005036Y002261D03*
X005036Y002256D03*
X005031Y002246D03*
X005031Y002241D03*
X005026Y002236D03*
X005026Y002231D03*
X005021Y002221D03*
X005021Y002216D03*
X005016Y002211D03*
X005016Y002206D03*
X005011Y002196D03*
X005011Y002191D03*
X005006Y002186D03*
X005006Y002181D03*
X005006Y002176D03*
X005001Y002171D03*
X005001Y002166D03*
X004996Y002161D03*
X004996Y002156D03*
X004996Y002151D03*
X004991Y002141D03*
X004986Y002131D03*
X004986Y002126D03*
X004981Y002116D03*
X004976Y002106D03*
X004976Y002101D03*
X004971Y002091D03*
X004966Y002081D03*
X004961Y002071D03*
X004961Y002066D03*
X004956Y002056D03*
X004951Y002046D03*
X004951Y002041D03*
X004946Y002031D03*
X004941Y002021D03*
X004941Y002016D03*
X004936Y002006D03*
X004931Y001996D03*
X004926Y001981D03*
X004921Y001971D03*
X004911Y001946D03*
X004831Y001926D03*
X004826Y001931D03*
X004826Y001936D03*
X004821Y001946D03*
X004821Y001951D03*
X004816Y001956D03*
X004816Y001961D03*
X004811Y001971D03*
X004811Y001976D03*
X004806Y001981D03*
X004806Y001986D03*
X004801Y001996D03*
X004801Y002001D03*
X004796Y002006D03*
X004796Y002011D03*
X004791Y002021D03*
X004791Y002026D03*
X004786Y002031D03*
X004786Y002036D03*
X004786Y002041D03*
X004781Y002046D03*
X004781Y002051D03*
X004776Y002056D03*
X004776Y002061D03*
X004776Y002066D03*
X004771Y002071D03*
X004771Y002076D03*
X004766Y002086D03*
X004766Y002091D03*
X004761Y002096D03*
X004761Y002101D03*
X004756Y002111D03*
X004756Y002116D03*
X004751Y002121D03*
X004751Y002126D03*
X004746Y002136D03*
X004746Y002141D03*
X004741Y002146D03*
X004741Y002151D03*
X004736Y002161D03*
X004736Y002166D03*
X004731Y002171D03*
X004731Y002176D03*
X004731Y002181D03*
X004726Y002186D03*
X004726Y002191D03*
X004721Y002196D03*
X004721Y002201D03*
X004721Y002206D03*
X004716Y002211D03*
X004716Y002216D03*
X004711Y002226D03*
X004711Y002231D03*
X004706Y002236D03*
X004706Y002241D03*
X004701Y002251D03*
X004701Y002256D03*
X004696Y002261D03*
X004696Y002266D03*
X004691Y002276D03*
X004691Y002281D03*
X004686Y002286D03*
X004686Y002291D03*
X004681Y002301D03*
X004681Y002306D03*
X004676Y002311D03*
X004676Y002316D03*
X004676Y002321D03*
X004671Y002326D03*
X004671Y002331D03*
X004666Y002336D03*
X004666Y002341D03*
X004666Y002346D03*
X004661Y002351D03*
X004661Y002356D03*
X004656Y002366D03*
X004656Y002371D03*
X004651Y002376D03*
X004651Y002381D03*
X004646Y002391D03*
X004646Y002396D03*
X004641Y002401D03*
X004641Y002406D03*
X004636Y002416D03*
X004636Y002421D03*
X004631Y002426D03*
X004631Y002431D03*
X004626Y002441D03*
X004626Y002446D03*
X004621Y002451D03*
X004621Y002456D03*
X004621Y002461D03*
X004616Y002466D03*
X004616Y002471D03*
X004611Y002476D03*
X004611Y002481D03*
X004611Y002486D03*
X004606Y002491D03*
X004606Y002496D03*
X004601Y002501D03*
X004601Y002506D03*
X004601Y002511D03*
X004596Y002516D03*
X004596Y002521D03*
X004591Y002531D03*
X004591Y002536D03*
X004586Y002541D03*
X004586Y002546D03*
X004581Y002556D03*
X004581Y002561D03*
X004576Y002566D03*
X004576Y002571D03*
X004571Y002581D03*
X004571Y002586D03*
X004566Y002591D03*
X004566Y002596D03*
X004561Y002606D03*
X004561Y002611D03*
X004556Y002616D03*
X004556Y002621D03*
X004556Y002626D03*
X004551Y002631D03*
X004551Y002636D03*
X004546Y002641D03*
X004546Y002646D03*
X004546Y002651D03*
X004541Y002656D03*
X004541Y002661D03*
X004536Y002671D03*
X004536Y002676D03*
X004531Y002681D03*
X004531Y002686D03*
X004526Y002696D03*
X004526Y002701D03*
X004521Y002706D03*
X004521Y002711D03*
X004516Y002721D03*
X004516Y002726D03*
X004511Y002731D03*
X004511Y002736D03*
X004506Y002746D03*
X004506Y002751D03*
X004501Y002756D03*
X004501Y002761D03*
X004496Y002771D03*
X004496Y002776D03*
X004491Y002781D03*
X004491Y002786D03*
X004486Y002796D03*
X004486Y002801D03*
X004481Y002811D03*
X004481Y002816D03*
X004476Y002821D03*
X004476Y002826D03*
X004471Y002836D03*
X004471Y002841D03*
X004466Y002846D03*
X004421Y002966D03*
X004421Y002971D03*
X004416Y002981D03*
X004411Y002996D03*
X004406Y003006D03*
X004401Y003021D03*
X004396Y003031D03*
X004391Y003046D03*
X004381Y003071D03*
X004371Y003096D03*
X004366Y003111D03*
X004361Y003121D03*
X004356Y003136D03*
X004351Y003146D03*
X004346Y003161D03*
X004341Y003171D03*
X004336Y003186D03*
X004331Y003196D03*
X004326Y003211D03*
X004321Y003221D03*
X004316Y003236D03*
X004311Y003246D03*
X004311Y003251D03*
X004306Y003261D03*
X004301Y003271D03*
X004301Y003276D03*
X004301Y003281D03*
X004296Y003286D03*
X004296Y003291D03*
X004291Y003296D03*
X004816Y002861D03*
X004821Y002831D03*
X004826Y002806D03*
X004831Y002776D03*
X004836Y002746D03*
X004841Y002716D03*
X004846Y002691D03*
X004851Y002661D03*
X004856Y002631D03*
X004861Y002601D03*
X004866Y002571D03*
X004871Y002546D03*
X004876Y002516D03*
X004881Y002486D03*
X004886Y002456D03*
X004891Y002431D03*
X004896Y002401D03*
X004916Y002296D03*
X004901Y001701D03*
X005571Y001561D03*
X005651Y002291D03*
X005651Y002296D03*
X005251Y002951D03*
X005251Y002956D03*
X005366Y003051D03*
D74*
X004651Y001566D03*
D75*
X004864Y001841D03*
X004864Y001846D03*
X004904Y001926D03*
X004904Y001931D03*
X004909Y001936D03*
X004909Y001941D03*
X004914Y001951D03*
X004914Y001956D03*
X004919Y001961D03*
X004919Y001966D03*
X004924Y001976D03*
X004929Y001986D03*
X004929Y001991D03*
X004934Y002001D03*
X004939Y002011D03*
X004944Y002026D03*
X004949Y002036D03*
X004954Y002051D03*
X004959Y002061D03*
X004964Y002076D03*
X004969Y002086D03*
X004974Y002096D03*
X004979Y002111D03*
X004984Y002121D03*
X004989Y002136D03*
X004994Y002146D03*
X004919Y002301D03*
X004919Y002306D03*
X004969Y002401D03*
X004974Y002411D03*
X004979Y002421D03*
X004984Y002426D03*
X004984Y002431D03*
X004989Y002436D03*
X004989Y002441D03*
X004994Y002446D03*
X004994Y002451D03*
X004999Y002456D03*
X004999Y002461D03*
X005004Y002466D03*
X005004Y002471D03*
X005009Y002476D03*
X005009Y002481D03*
X005014Y002486D03*
X005014Y002491D03*
X005019Y002496D03*
X005019Y002501D03*
X005024Y002506D03*
X005024Y002511D03*
X005029Y002516D03*
X005029Y002521D03*
X005034Y002526D03*
X005039Y002536D03*
X005044Y002546D03*
X005049Y002556D03*
X005054Y002566D03*
X005059Y002576D03*
X005064Y002586D03*
X005069Y002596D03*
X005074Y002606D03*
X005079Y002616D03*
X005109Y002671D03*
X005114Y002681D03*
X005119Y002691D03*
X005124Y002701D03*
X005129Y002711D03*
X005134Y002721D03*
X005139Y002731D03*
X005144Y002741D03*
X005149Y002751D03*
X005154Y002761D03*
X005159Y002771D03*
X005164Y002781D03*
X005169Y002791D03*
X005174Y002801D03*
X005179Y002811D03*
X005184Y002821D03*
X005189Y002831D03*
X005194Y002841D03*
X005199Y002851D03*
X005204Y002861D03*
X005084Y002376D03*
X005149Y002261D03*
X005164Y002236D03*
X005179Y002211D03*
X005184Y002201D03*
X005194Y002186D03*
X005199Y002176D03*
X005204Y002166D03*
X005209Y002161D03*
X005214Y002151D03*
X005219Y002141D03*
X005224Y002136D03*
X005229Y002126D03*
X005234Y002116D03*
X005239Y002106D03*
X005244Y002101D03*
X005244Y002096D03*
X005249Y002091D03*
X005249Y002086D03*
X005254Y002081D03*
X005259Y002076D03*
X005259Y002071D03*
X005264Y002066D03*
X005264Y002061D03*
X005269Y002056D03*
X005274Y002051D03*
X005274Y002046D03*
X005279Y002041D03*
X005279Y002036D03*
X005284Y002031D03*
X005289Y002026D03*
X005289Y002021D03*
X005294Y002016D03*
X005294Y002011D03*
X005299Y002006D03*
X005304Y002001D03*
X005304Y001996D03*
X005309Y001991D03*
X005309Y001986D03*
X005314Y001981D03*
X005319Y001976D03*
X005319Y001971D03*
X005324Y001966D03*
X005324Y001961D03*
X005329Y001956D03*
X005334Y001951D03*
X005334Y001946D03*
X005339Y001941D03*
X005339Y001936D03*
X005344Y001931D03*
X005349Y001926D03*
X005349Y001921D03*
X005354Y001916D03*
X005354Y001911D03*
X005359Y001906D03*
X005364Y001901D03*
X005364Y001896D03*
X005369Y001891D03*
X005369Y001886D03*
X005374Y001881D03*
X005379Y001876D03*
X005379Y001871D03*
X005384Y001866D03*
X005489Y001961D03*
X005489Y001966D03*
X005534Y002061D03*
X005539Y002071D03*
X005544Y002081D03*
X005549Y002091D03*
X005554Y002101D03*
X005559Y002111D03*
X005564Y002121D03*
X005649Y002286D03*
X005569Y001566D03*
X004419Y002976D03*
X004414Y002986D03*
X004414Y002991D03*
X004409Y003001D03*
X004404Y003011D03*
X004404Y003016D03*
X004399Y003026D03*
X004394Y003036D03*
X004394Y003041D03*
X004389Y003051D03*
X004389Y003056D03*
X004384Y003061D03*
X004384Y003066D03*
X004379Y003076D03*
X004379Y003081D03*
X004374Y003086D03*
X004374Y003091D03*
X004369Y003101D03*
X004369Y003106D03*
X004364Y003116D03*
X004359Y003126D03*
X004359Y003131D03*
X004354Y003141D03*
X004349Y003151D03*
X004349Y003156D03*
X004344Y003166D03*
X004339Y003176D03*
X004339Y003181D03*
X004334Y003191D03*
X004329Y003201D03*
X004329Y003206D03*
X004324Y003216D03*
X004319Y003226D03*
X004319Y003231D03*
X004314Y003241D03*
X004309Y003256D03*
X004304Y003266D03*
D76*
X004286Y002901D03*
X004651Y001571D03*
D77*
X004864Y001856D03*
X004919Y002311D03*
X004919Y002316D03*
X005379Y001861D03*
X005564Y001571D03*
X005639Y002256D03*
X005639Y002261D03*
X005249Y002936D03*
X005249Y002941D03*
D78*
X005731Y003236D03*
X004276Y002886D03*
X004651Y001576D03*
D79*
X004971Y001576D03*
X004236Y001761D03*
X004231Y001766D03*
X003981Y002281D03*
X003976Y002286D03*
X003971Y002291D03*
X003971Y002741D03*
X003976Y002746D03*
X003981Y002751D03*
X005371Y003091D03*
X006621Y002631D03*
X006626Y002626D03*
X006631Y002181D03*
X006626Y002176D03*
X006621Y002171D03*
X006616Y002166D03*
X006591Y002141D03*
X006581Y002126D03*
X006531Y001691D03*
X006526Y001686D03*
X006521Y001681D03*
D80*
X005636Y002246D03*
X005636Y002251D03*
X005491Y001991D03*
X005491Y001986D03*
X005491Y001981D03*
X005561Y001576D03*
X004921Y002321D03*
X004921Y002326D03*
X005086Y002361D03*
X005246Y002931D03*
X005366Y003056D03*
D81*
X004741Y001581D03*
D82*
X006099Y001581D03*
D83*
X005556Y001586D03*
X005491Y002001D03*
X005626Y002216D03*
X005626Y002221D03*
X005631Y002231D03*
X005086Y002351D03*
X004926Y002336D03*
X004866Y001866D03*
X005246Y002916D03*
X005246Y002921D03*
X004781Y003171D03*
D84*
X006346Y002781D03*
X005866Y001586D03*
D85*
X004716Y001591D03*
D86*
X004866Y001881D03*
X004926Y002346D03*
X004926Y002351D03*
X005246Y002906D03*
X005246Y002911D03*
X004966Y003296D03*
X004406Y002961D03*
X005496Y002016D03*
X005621Y002196D03*
X005621Y002201D03*
X005351Y001736D03*
X005366Y001726D03*
X005386Y001711D03*
X005401Y001701D03*
X005406Y001696D03*
X005416Y001691D03*
X005471Y001651D03*
X005486Y001641D03*
X005551Y001591D03*
D87*
X005854Y001591D03*
X004384Y001671D03*
X004324Y002931D03*
D88*
X004709Y001596D03*
X005729Y003191D03*
D89*
X004931Y002366D03*
X004866Y001891D03*
X005281Y001786D03*
X005366Y001856D03*
X005426Y001686D03*
X005431Y001681D03*
X005446Y001671D03*
X005551Y001596D03*
X005811Y001636D03*
X005496Y002026D03*
X005496Y002031D03*
X005496Y002036D03*
X005611Y002166D03*
X005611Y002171D03*
D90*
X006381Y001596D03*
X006476Y002721D03*
X005996Y003141D03*
X005381Y003116D03*
D91*
X005369Y003066D03*
X005244Y002891D03*
X005244Y002886D03*
X004794Y003176D03*
X004929Y002371D03*
X005089Y002326D03*
X004869Y001901D03*
X004869Y001896D03*
X005274Y001796D03*
X005499Y002041D03*
X005609Y002156D03*
X005609Y002161D03*
X005549Y001601D03*
D92*
X005304Y001826D03*
X006394Y001601D03*
X006014Y003136D03*
D93*
X004691Y001606D03*
D94*
X004894Y001686D03*
X004869Y001911D03*
X004934Y002386D03*
X004934Y002391D03*
X005239Y002871D03*
X005369Y003071D03*
X005604Y002141D03*
X005599Y002131D03*
X005499Y002051D03*
X005544Y001606D03*
X005814Y001631D03*
D95*
X004684Y001611D03*
X005729Y003186D03*
D96*
X004936Y002396D03*
X005091Y002311D03*
X005091Y002306D03*
X004866Y001916D03*
X005541Y001611D03*
D97*
X006419Y001611D03*
X006299Y002816D03*
X006034Y003126D03*
X005729Y003256D03*
X004339Y002941D03*
X004084Y002821D03*
X004089Y002206D03*
X004099Y002201D03*
X004104Y002196D03*
X004109Y002191D03*
D98*
X004869Y001921D03*
X005539Y001616D03*
D99*
X005824Y001616D03*
X005339Y001846D03*
X004884Y001676D03*
X004224Y001771D03*
X004219Y001776D03*
X004214Y001781D03*
X003969Y002736D03*
X005729Y003261D03*
X006149Y003046D03*
X006154Y003041D03*
X006159Y003036D03*
X006164Y003031D03*
X006629Y002621D03*
X006634Y002616D03*
X006639Y002611D03*
X006634Y002186D03*
X006579Y002121D03*
X006539Y001696D03*
D100*
X004666Y001621D03*
X004661Y001626D03*
D101*
X004889Y001681D03*
X005534Y001621D03*
X006614Y001816D03*
X006619Y001826D03*
X006619Y001831D03*
X006619Y001836D03*
X006624Y001846D03*
X006624Y001851D03*
X006624Y001856D03*
X006629Y001866D03*
X006629Y001871D03*
X006629Y001876D03*
X006629Y001881D03*
X006629Y001886D03*
X006634Y001926D03*
X006634Y001931D03*
X006634Y001936D03*
X006629Y001956D03*
X006629Y001961D03*
X006629Y001966D03*
X006629Y001971D03*
X006629Y001976D03*
X006624Y001981D03*
X006624Y001986D03*
X006624Y001991D03*
X006624Y001996D03*
X006619Y002001D03*
X006619Y002006D03*
X006614Y002021D03*
X006704Y002291D03*
X006709Y002306D03*
X006714Y002316D03*
X006714Y002321D03*
X006714Y002326D03*
X006719Y002336D03*
X006719Y002341D03*
X006719Y002346D03*
X006719Y002351D03*
X006724Y002366D03*
X006724Y002371D03*
X006724Y002376D03*
X006724Y002381D03*
X006724Y002386D03*
X006724Y002391D03*
X006724Y002396D03*
X006724Y002401D03*
X006724Y002406D03*
X006724Y002411D03*
X006724Y002416D03*
X006724Y002421D03*
X006724Y002426D03*
X006724Y002431D03*
X006719Y002451D03*
X006719Y002456D03*
X006719Y002461D03*
X006719Y002466D03*
X006714Y002471D03*
X006714Y002476D03*
X006714Y002481D03*
X006709Y002491D03*
X006709Y002496D03*
X006249Y002841D03*
X006249Y002846D03*
X006249Y002851D03*
X006244Y002866D03*
X006244Y002871D03*
X006244Y002876D03*
X006244Y002881D03*
X006239Y002891D03*
X006239Y002896D03*
X006239Y002901D03*
X006234Y002911D03*
X006229Y002926D03*
X004144Y002091D03*
X004139Y002081D03*
X004139Y002076D03*
X004139Y002071D03*
X004134Y002061D03*
X004134Y002056D03*
X004134Y002051D03*
X004134Y002046D03*
X004129Y002036D03*
X004129Y002031D03*
X004129Y002026D03*
X004129Y002021D03*
X004129Y002016D03*
X004129Y002011D03*
X004129Y002006D03*
X004129Y002001D03*
X004129Y001996D03*
X004129Y001991D03*
X004129Y001986D03*
X004129Y001981D03*
X004129Y001976D03*
X004129Y001971D03*
X004129Y001966D03*
X004129Y001961D03*
X004129Y001956D03*
X004134Y001941D03*
X004134Y001936D03*
X004134Y001931D03*
X004134Y001926D03*
X004139Y001921D03*
X004139Y001916D03*
X004139Y001911D03*
X004144Y001901D03*
X003889Y002421D03*
X003884Y002436D03*
X003884Y002441D03*
X003884Y002446D03*
X003879Y002451D03*
X003879Y002456D03*
X003879Y002461D03*
X003879Y002466D03*
X003874Y002476D03*
X003874Y002481D03*
X003874Y002486D03*
X003874Y002491D03*
X003874Y002496D03*
X003874Y002501D03*
X003874Y002506D03*
X003874Y002511D03*
X003874Y002516D03*
X003874Y002521D03*
X003874Y002526D03*
X003874Y002531D03*
X003874Y002536D03*
X003874Y002541D03*
X003874Y002546D03*
X003874Y002551D03*
X003879Y002566D03*
X003879Y002571D03*
X003879Y002576D03*
X003879Y002581D03*
X003884Y002586D03*
X003884Y002591D03*
X003884Y002596D03*
X003889Y002606D03*
X003889Y002611D03*
D102*
X003899Y002636D03*
X003904Y002646D03*
X003909Y002656D03*
X003914Y002666D03*
X003919Y002676D03*
X003899Y002396D03*
X003904Y002386D03*
X003909Y002376D03*
X003914Y002366D03*
X003919Y002356D03*
X004159Y002126D03*
X004154Y002116D03*
X004159Y001861D03*
X004164Y001851D03*
X004169Y001846D03*
X004174Y001836D03*
X005369Y003081D03*
X006204Y002976D03*
X006209Y002971D03*
X006209Y002966D03*
X006214Y002961D03*
X006214Y002956D03*
X006674Y002566D03*
X006679Y002556D03*
X006684Y002551D03*
X006684Y002546D03*
X006689Y002541D03*
X006694Y002531D03*
X006689Y002261D03*
X006689Y002256D03*
X006684Y002251D03*
X006679Y002241D03*
X006574Y002101D03*
X006584Y002081D03*
X006589Y002071D03*
X006594Y002066D03*
X006599Y002056D03*
X006604Y002046D03*
X006604Y001791D03*
X006599Y001781D03*
X006594Y001771D03*
X006589Y001766D03*
X006589Y001761D03*
X006584Y001756D03*
X005819Y001621D03*
D103*
X005531Y001626D03*
X005281Y001801D03*
X004161Y001856D03*
X004156Y001866D03*
X004156Y001871D03*
X004151Y001876D03*
X004151Y001881D03*
X004146Y001886D03*
X004146Y001891D03*
X004146Y001896D03*
X004141Y001906D03*
X004136Y002066D03*
X004141Y002086D03*
X004146Y002096D03*
X004146Y002101D03*
X004151Y002106D03*
X004151Y002111D03*
X004156Y002121D03*
X004161Y002131D03*
X003911Y002371D03*
X003906Y002381D03*
X003901Y002391D03*
X003896Y002401D03*
X003896Y002406D03*
X003891Y002411D03*
X003891Y002416D03*
X003886Y002426D03*
X003886Y002431D03*
X003886Y002601D03*
X003891Y002616D03*
X003891Y002621D03*
X003896Y002626D03*
X003896Y002631D03*
X003901Y002641D03*
X003906Y002651D03*
X003911Y002661D03*
X006216Y002951D03*
X006221Y002946D03*
X006221Y002941D03*
X006226Y002936D03*
X006226Y002931D03*
X006231Y002921D03*
X006231Y002916D03*
X006236Y002906D03*
X006691Y002536D03*
X006696Y002526D03*
X006696Y002521D03*
X006701Y002516D03*
X006701Y002511D03*
X006706Y002506D03*
X006706Y002501D03*
X006711Y002486D03*
X006716Y002331D03*
X006711Y002311D03*
X006706Y002301D03*
X006706Y002296D03*
X006701Y002286D03*
X006701Y002281D03*
X006696Y002276D03*
X006696Y002271D03*
X006691Y002266D03*
X006596Y002061D03*
X006601Y002051D03*
X006606Y002041D03*
X006606Y002036D03*
X006611Y002031D03*
X006611Y002026D03*
X006616Y002016D03*
X006616Y002011D03*
X006621Y001841D03*
X006616Y001821D03*
X006611Y001811D03*
X006611Y001806D03*
X006606Y001801D03*
X006606Y001796D03*
X006601Y001786D03*
X006596Y001776D03*
D104*
X006626Y001861D03*
X006631Y001891D03*
X006631Y001896D03*
X006631Y001901D03*
X006631Y001906D03*
X006631Y001911D03*
X006631Y001916D03*
X006631Y001921D03*
X006631Y001941D03*
X006631Y001946D03*
X006631Y001951D03*
X006721Y002356D03*
X006721Y002361D03*
X006721Y002436D03*
X006721Y002441D03*
X006721Y002446D03*
X006246Y002856D03*
X006246Y002861D03*
X006241Y002886D03*
X005371Y003076D03*
X004806Y003181D03*
X003876Y002561D03*
X003876Y002556D03*
X003876Y002471D03*
X004131Y002041D03*
X004131Y001951D03*
X004131Y001946D03*
X005351Y001851D03*
X005816Y001626D03*
D105*
X004654Y001631D03*
X005729Y003181D03*
D106*
X005376Y003101D03*
X004351Y002946D03*
X004046Y002801D03*
X004046Y002231D03*
X004136Y002166D03*
X004306Y001706D03*
X004866Y001666D03*
X005301Y001811D03*
X006456Y001631D03*
D107*
X006559Y001721D03*
X006564Y001726D03*
X006569Y001731D03*
X006649Y002201D03*
X006654Y002206D03*
X006659Y002211D03*
X006659Y002216D03*
X006664Y002221D03*
X006669Y002226D03*
X006664Y002581D03*
X006659Y002586D03*
X006654Y002591D03*
X006654Y002596D03*
X006184Y003006D03*
X006179Y003011D03*
X005524Y001636D03*
X004374Y002956D03*
X003949Y002716D03*
X003944Y002711D03*
X003939Y002706D03*
X003934Y002696D03*
X003934Y002336D03*
X003939Y002326D03*
X003944Y002321D03*
X003949Y002316D03*
X004189Y001811D03*
X004194Y001806D03*
X004199Y001801D03*
D108*
X004869Y001871D03*
X004869Y001876D03*
X004924Y002341D03*
X005089Y002341D03*
X005089Y002346D03*
X005494Y002011D03*
X005494Y002006D03*
X005624Y002206D03*
X005624Y002211D03*
X005809Y001641D03*
X005369Y003061D03*
D109*
X005251Y002946D03*
X004771Y003166D03*
X004461Y002851D03*
X004976Y002416D03*
X004971Y002406D03*
X005086Y002371D03*
X005086Y002366D03*
X005126Y002301D03*
X005126Y002296D03*
X005131Y002291D03*
X005136Y002286D03*
X005136Y002281D03*
X005141Y002276D03*
X005141Y002271D03*
X005146Y002266D03*
X005151Y002256D03*
X005156Y002251D03*
X005156Y002246D03*
X005161Y002241D03*
X005166Y002231D03*
X005171Y002226D03*
X005171Y002221D03*
X005176Y002216D03*
X005181Y002206D03*
X005186Y002196D03*
X005191Y002191D03*
X005196Y002181D03*
X005201Y002171D03*
X005211Y002156D03*
X005216Y002146D03*
X005226Y002131D03*
X005231Y002121D03*
X005236Y002111D03*
X005491Y001976D03*
X005491Y001971D03*
X005641Y002266D03*
X005641Y002271D03*
X005646Y002276D03*
X005646Y002281D03*
X005811Y001646D03*
X004866Y001851D03*
D110*
X004629Y001651D03*
D111*
X004621Y001656D03*
D112*
X004424Y001661D03*
X004304Y002916D03*
D113*
X004396Y001666D03*
X005981Y003146D03*
X006326Y002796D03*
D114*
X006176Y003016D03*
X006171Y003021D03*
X006166Y003026D03*
X006641Y002606D03*
X006646Y002601D03*
X006646Y002196D03*
X006641Y002191D03*
X006576Y002116D03*
X006556Y001716D03*
X006551Y001711D03*
X006546Y001706D03*
X006541Y001701D03*
X005371Y003086D03*
X004156Y002141D03*
X003966Y002296D03*
X003961Y002301D03*
X003956Y002306D03*
X003951Y002311D03*
X003951Y002721D03*
X003956Y002726D03*
X003961Y002731D03*
X004201Y001796D03*
X004206Y001791D03*
X004211Y001786D03*
D115*
X004861Y001766D03*
X004901Y002211D03*
X004901Y002216D03*
X005481Y001866D03*
X005696Y002441D03*
X005696Y002446D03*
X005366Y003046D03*
D116*
X005264Y003036D03*
X005264Y003031D03*
X005079Y002441D03*
X005079Y002436D03*
X004904Y002221D03*
X004864Y001771D03*
X005479Y001871D03*
X005479Y001876D03*
X005694Y002431D03*
X005694Y002436D03*
D117*
X005691Y002426D03*
X005691Y002421D03*
X005481Y001886D03*
X005481Y001881D03*
X004901Y002226D03*
X005081Y002431D03*
X005261Y003021D03*
X005261Y003026D03*
X005726Y003266D03*
X004861Y001776D03*
D118*
X004864Y001781D03*
X004864Y001786D03*
X004904Y002231D03*
X004904Y002236D03*
X005079Y002426D03*
X005684Y002406D03*
X005684Y002401D03*
X005689Y002411D03*
X005689Y002416D03*
D119*
X005679Y002386D03*
X005679Y002381D03*
X005484Y001911D03*
X005484Y001906D03*
X005484Y001901D03*
X004909Y002251D03*
X004864Y001801D03*
X004864Y001796D03*
X005259Y003001D03*
X005259Y003006D03*
D120*
X005241Y002881D03*
X005241Y002876D03*
X004931Y002381D03*
X004931Y002376D03*
X005091Y002321D03*
X005091Y002316D03*
X004866Y001906D03*
X005496Y002046D03*
X005601Y002136D03*
X005606Y002146D03*
X005606Y002151D03*
D121*
X005666Y002341D03*
X005666Y002346D03*
X005486Y001931D03*
X005486Y001926D03*
X005081Y002401D03*
X004911Y002276D03*
X004911Y002271D03*
X005256Y002981D03*
X005256Y002986D03*
D122*
X006379Y002756D03*
X006394Y002746D03*
X006404Y002741D03*
D123*
X006386Y002751D03*
X004291Y002906D03*
D124*
X005389Y003131D03*
X005729Y003246D03*
X006354Y002776D03*
D125*
X006339Y002786D03*
X005964Y003151D03*
X004309Y002921D03*
D126*
X004251Y002856D03*
X004961Y003261D03*
D127*
X004254Y002861D03*
D128*
X004264Y002871D03*
X005729Y003231D03*
D129*
X004266Y002876D03*
D130*
X004314Y002926D03*
D131*
X005394Y003136D03*
D132*
X005396Y003141D03*
D133*
X005404Y003146D03*
X004944Y003271D03*
D134*
X005414Y003151D03*
X005729Y003226D03*
D135*
X005636Y003156D03*
D136*
X005626Y003161D03*
D137*
X005614Y003166D03*
D138*
X005599Y003171D03*
D139*
X005581Y003176D03*
D140*
X005041Y003191D03*
X005036Y003196D03*
D141*
X005729Y003196D03*
D142*
X005031Y003201D03*
D143*
X005729Y003201D03*
D144*
X005729Y003206D03*
X005024Y003211D03*
D145*
X005014Y003221D03*
X005729Y003211D03*
D146*
X005729Y003216D03*
D147*
X005731Y003221D03*
D148*
X005006Y003226D03*
D149*
X004991Y003241D03*
D150*
X005731Y003241D03*
D151*
X004984Y003246D03*
D152*
X004969Y003256D03*
D153*
X004934Y003276D03*
D154*
X006087Y004065D02*
X006157Y003995D01*
X006297Y003995D01*
X006367Y004065D01*
X006547Y003995D02*
X006827Y003995D01*
X006687Y003995D02*
X006687Y004415D01*
X006547Y004275D01*
X006367Y004345D02*
X006297Y004415D01*
X006157Y004415D01*
X006087Y004345D01*
X006087Y004065D01*
X005578Y005868D02*
X005580Y005880D01*
X005586Y005892D01*
X005594Y005900D01*
X005606Y005906D01*
X005618Y005908D01*
X005630Y005906D01*
X005642Y005900D01*
X005650Y005892D01*
X005656Y005880D01*
X005658Y005868D01*
X005656Y005856D01*
X005650Y005844D01*
X005642Y005836D01*
X005630Y005830D01*
X005618Y005828D01*
X005606Y005830D01*
X005594Y005836D01*
X005586Y005844D01*
X005580Y005856D01*
X005578Y005868D01*
X002430Y006055D02*
X002430Y005555D01*
X002180Y005305D01*
X002430Y005055D01*
X002430Y004555D01*
X002180Y004305D01*
X002430Y004055D01*
X002430Y003555D01*
X002180Y003305D01*
X001680Y003305D01*
X001430Y003555D01*
X001430Y004055D01*
X001680Y004305D01*
X001430Y004555D01*
X001430Y005055D01*
X001680Y005305D01*
X001430Y005555D01*
X001430Y006055D01*
X001680Y006305D01*
X001430Y006555D01*
X001430Y007055D01*
X001680Y007305D01*
X001430Y007555D01*
X001430Y008055D01*
X001680Y008305D01*
X002180Y008305D01*
X002430Y008055D01*
X002430Y007555D01*
X002180Y007305D01*
X002430Y007055D01*
X002430Y006555D01*
X002180Y006305D01*
X002430Y006055D01*
D155*
X003805Y006055D02*
X005805Y006055D01*
X005805Y004555D01*
X003805Y004555D01*
X003805Y006055D01*
X003893Y004943D02*
X004043Y004943D01*
X004093Y004893D01*
X004093Y004693D01*
X004043Y004643D01*
X003893Y004643D01*
X003893Y004943D01*
X004215Y004893D02*
X004215Y004843D01*
X004265Y004793D01*
X004365Y004793D01*
X004415Y004743D01*
X004415Y004693D01*
X004365Y004643D01*
X004265Y004643D01*
X004215Y004693D01*
X004215Y004893D02*
X004265Y004943D01*
X004365Y004943D01*
X004415Y004893D01*
X004537Y004843D02*
X004637Y004943D01*
X004637Y004643D01*
X004537Y004643D02*
X004737Y004643D01*
X004859Y004693D02*
X004909Y004643D01*
X005009Y004643D01*
X005059Y004693D01*
X005059Y004743D01*
X005009Y004793D01*
X004959Y004793D01*
X005009Y004793D02*
X005059Y004843D01*
X005059Y004893D01*
X005009Y004943D01*
X004909Y004943D01*
X004859Y004893D01*
X005182Y004893D02*
X005182Y004693D01*
X005382Y004893D01*
X005382Y004693D01*
X005332Y004643D01*
X005232Y004643D01*
X005182Y004693D01*
X005182Y004893D02*
X005232Y004943D01*
X005332Y004943D01*
X005382Y004893D01*
X005504Y004943D02*
X005704Y004943D01*
X005704Y004893D01*
X005504Y004693D01*
X005504Y004643D01*
X006303Y008191D02*
X003130Y008191D01*
X003113Y008192D01*
X003096Y008197D01*
X003081Y008204D01*
X003067Y008214D01*
X003055Y008226D01*
X003045Y008240D01*
X003038Y008255D01*
X003033Y008272D01*
X003032Y008289D01*
X003031Y008289D02*
X003031Y009321D01*
X003032Y009321D02*
X003033Y009338D01*
X003038Y009355D01*
X003045Y009370D01*
X003055Y009384D01*
X003067Y009396D01*
X003081Y009406D01*
X003096Y009413D01*
X003113Y009418D01*
X003130Y009419D01*
X006303Y009419D01*
X006303Y008191D01*
D156*
X005283Y008805D02*
X005039Y008805D01*
X005012Y008553D02*
X005012Y009057D01*
X004768Y009057D02*
X004768Y008553D01*
X004571Y008553D01*
X004571Y009057D01*
X004768Y009057D01*
X004342Y009053D02*
X004342Y008805D01*
X004098Y008805D01*
X004342Y008805D02*
X004342Y008557D01*
D157*
X006248Y008258D02*
X006248Y009352D01*
X006250Y009363D01*
X006254Y009373D01*
X006262Y009382D01*
X006271Y009388D01*
X006282Y009391D01*
X006293Y009391D01*
X006248Y008258D02*
X006250Y008247D01*
X006254Y008237D01*
X006261Y008229D01*
X006271Y008223D01*
X006281Y008219D01*
X006292Y008219D01*
M02*
