G75*
G70*
%OFA0B0*%
%FSLAX24Y24*%
%IPPOS*%
%LPD*%
%AMOC8*
5,1,8,0,0,1.08239X$1,22.5*
%
%ADD10C,0.0000*%
%ADD11R,0.0740X0.0740*%
%ADD12C,0.0740*%
%ADD13R,0.0500X0.0250*%
%ADD14R,0.0236X0.0610*%
%ADD15C,0.0472*%
%ADD16R,0.0591X0.0512*%
%ADD17C,0.0160*%
%ADD18R,0.0356X0.0356*%
D10*
X000680Y001930D02*
X000680Y008680D01*
X000682Y008748D01*
X000687Y008815D01*
X000696Y008882D01*
X000709Y008949D01*
X000726Y009014D01*
X000745Y009079D01*
X000769Y009143D01*
X000796Y009205D01*
X000826Y009266D01*
X000859Y009324D01*
X000895Y009381D01*
X000935Y009436D01*
X000977Y009489D01*
X001023Y009540D01*
X001070Y009587D01*
X001121Y009633D01*
X001174Y009675D01*
X001229Y009715D01*
X001286Y009751D01*
X001344Y009784D01*
X001405Y009814D01*
X001467Y009841D01*
X001531Y009865D01*
X001596Y009884D01*
X001661Y009901D01*
X001728Y009914D01*
X001795Y009923D01*
X001862Y009928D01*
X001930Y009930D01*
X008680Y009930D01*
X008748Y009928D01*
X008815Y009923D01*
X008882Y009914D01*
X008949Y009901D01*
X009014Y009884D01*
X009079Y009865D01*
X009143Y009841D01*
X009205Y009814D01*
X009266Y009784D01*
X009324Y009751D01*
X009381Y009715D01*
X009436Y009675D01*
X009489Y009633D01*
X009540Y009587D01*
X009587Y009540D01*
X009633Y009489D01*
X009675Y009436D01*
X009715Y009381D01*
X009751Y009324D01*
X009784Y009266D01*
X009814Y009205D01*
X009841Y009143D01*
X009865Y009079D01*
X009884Y009014D01*
X009901Y008949D01*
X009914Y008882D01*
X009923Y008815D01*
X009928Y008748D01*
X009930Y008680D01*
X009930Y001930D01*
X009928Y001862D01*
X009923Y001795D01*
X009914Y001728D01*
X009901Y001661D01*
X009884Y001596D01*
X009865Y001531D01*
X009841Y001467D01*
X009814Y001405D01*
X009784Y001344D01*
X009751Y001286D01*
X009715Y001229D01*
X009675Y001174D01*
X009633Y001121D01*
X009587Y001070D01*
X009540Y001023D01*
X009489Y000977D01*
X009436Y000935D01*
X009381Y000895D01*
X009324Y000859D01*
X009266Y000826D01*
X009205Y000796D01*
X009143Y000769D01*
X009079Y000745D01*
X009014Y000726D01*
X008949Y000709D01*
X008882Y000696D01*
X008815Y000687D01*
X008748Y000682D01*
X008680Y000680D01*
X001930Y000680D01*
X001862Y000682D01*
X001795Y000687D01*
X001728Y000696D01*
X001661Y000709D01*
X001596Y000726D01*
X001531Y000745D01*
X001467Y000769D01*
X001405Y000796D01*
X001344Y000826D01*
X001286Y000859D01*
X001229Y000895D01*
X001174Y000935D01*
X001121Y000977D01*
X001070Y001023D01*
X001023Y001070D01*
X000977Y001121D01*
X000935Y001174D01*
X000895Y001229D01*
X000859Y001286D01*
X000826Y001344D01*
X000796Y001405D01*
X000769Y001467D01*
X000745Y001531D01*
X000726Y001596D01*
X000709Y001661D01*
X000696Y001728D01*
X000687Y001795D01*
X000682Y001862D01*
X000680Y001930D01*
X001305Y001930D02*
X001307Y001980D01*
X001313Y002029D01*
X001323Y002078D01*
X001336Y002125D01*
X001354Y002172D01*
X001375Y002217D01*
X001399Y002260D01*
X001427Y002301D01*
X001458Y002340D01*
X001492Y002376D01*
X001529Y002410D01*
X001569Y002440D01*
X001610Y002467D01*
X001654Y002491D01*
X001699Y002511D01*
X001746Y002527D01*
X001794Y002540D01*
X001843Y002549D01*
X001893Y002554D01*
X001942Y002555D01*
X001992Y002552D01*
X002041Y002545D01*
X002090Y002534D01*
X002137Y002520D01*
X002183Y002501D01*
X002228Y002479D01*
X002271Y002454D01*
X002311Y002425D01*
X002349Y002393D01*
X002385Y002359D01*
X002418Y002321D01*
X002447Y002281D01*
X002473Y002239D01*
X002496Y002195D01*
X002515Y002149D01*
X002531Y002102D01*
X002543Y002053D01*
X002551Y002004D01*
X002555Y001955D01*
X002555Y001905D01*
X002551Y001856D01*
X002543Y001807D01*
X002531Y001758D01*
X002515Y001711D01*
X002496Y001665D01*
X002473Y001621D01*
X002447Y001579D01*
X002418Y001539D01*
X002385Y001501D01*
X002349Y001467D01*
X002311Y001435D01*
X002271Y001406D01*
X002228Y001381D01*
X002183Y001359D01*
X002137Y001340D01*
X002090Y001326D01*
X002041Y001315D01*
X001992Y001308D01*
X001942Y001305D01*
X001893Y001306D01*
X001843Y001311D01*
X001794Y001320D01*
X001746Y001333D01*
X001699Y001349D01*
X001654Y001369D01*
X001610Y001393D01*
X001569Y001420D01*
X001529Y001450D01*
X001492Y001484D01*
X001458Y001520D01*
X001427Y001559D01*
X001399Y001600D01*
X001375Y001643D01*
X001354Y001688D01*
X001336Y001735D01*
X001323Y001782D01*
X001313Y001831D01*
X001307Y001880D01*
X001305Y001930D01*
X008055Y001930D02*
X008057Y001980D01*
X008063Y002029D01*
X008073Y002078D01*
X008086Y002125D01*
X008104Y002172D01*
X008125Y002217D01*
X008149Y002260D01*
X008177Y002301D01*
X008208Y002340D01*
X008242Y002376D01*
X008279Y002410D01*
X008319Y002440D01*
X008360Y002467D01*
X008404Y002491D01*
X008449Y002511D01*
X008496Y002527D01*
X008544Y002540D01*
X008593Y002549D01*
X008643Y002554D01*
X008692Y002555D01*
X008742Y002552D01*
X008791Y002545D01*
X008840Y002534D01*
X008887Y002520D01*
X008933Y002501D01*
X008978Y002479D01*
X009021Y002454D01*
X009061Y002425D01*
X009099Y002393D01*
X009135Y002359D01*
X009168Y002321D01*
X009197Y002281D01*
X009223Y002239D01*
X009246Y002195D01*
X009265Y002149D01*
X009281Y002102D01*
X009293Y002053D01*
X009301Y002004D01*
X009305Y001955D01*
X009305Y001905D01*
X009301Y001856D01*
X009293Y001807D01*
X009281Y001758D01*
X009265Y001711D01*
X009246Y001665D01*
X009223Y001621D01*
X009197Y001579D01*
X009168Y001539D01*
X009135Y001501D01*
X009099Y001467D01*
X009061Y001435D01*
X009021Y001406D01*
X008978Y001381D01*
X008933Y001359D01*
X008887Y001340D01*
X008840Y001326D01*
X008791Y001315D01*
X008742Y001308D01*
X008692Y001305D01*
X008643Y001306D01*
X008593Y001311D01*
X008544Y001320D01*
X008496Y001333D01*
X008449Y001349D01*
X008404Y001369D01*
X008360Y001393D01*
X008319Y001420D01*
X008279Y001450D01*
X008242Y001484D01*
X008208Y001520D01*
X008177Y001559D01*
X008149Y001600D01*
X008125Y001643D01*
X008104Y001688D01*
X008086Y001735D01*
X008073Y001782D01*
X008063Y001831D01*
X008057Y001880D01*
X008055Y001930D01*
X008055Y008680D02*
X008057Y008730D01*
X008063Y008779D01*
X008073Y008828D01*
X008086Y008875D01*
X008104Y008922D01*
X008125Y008967D01*
X008149Y009010D01*
X008177Y009051D01*
X008208Y009090D01*
X008242Y009126D01*
X008279Y009160D01*
X008319Y009190D01*
X008360Y009217D01*
X008404Y009241D01*
X008449Y009261D01*
X008496Y009277D01*
X008544Y009290D01*
X008593Y009299D01*
X008643Y009304D01*
X008692Y009305D01*
X008742Y009302D01*
X008791Y009295D01*
X008840Y009284D01*
X008887Y009270D01*
X008933Y009251D01*
X008978Y009229D01*
X009021Y009204D01*
X009061Y009175D01*
X009099Y009143D01*
X009135Y009109D01*
X009168Y009071D01*
X009197Y009031D01*
X009223Y008989D01*
X009246Y008945D01*
X009265Y008899D01*
X009281Y008852D01*
X009293Y008803D01*
X009301Y008754D01*
X009305Y008705D01*
X009305Y008655D01*
X009301Y008606D01*
X009293Y008557D01*
X009281Y008508D01*
X009265Y008461D01*
X009246Y008415D01*
X009223Y008371D01*
X009197Y008329D01*
X009168Y008289D01*
X009135Y008251D01*
X009099Y008217D01*
X009061Y008185D01*
X009021Y008156D01*
X008978Y008131D01*
X008933Y008109D01*
X008887Y008090D01*
X008840Y008076D01*
X008791Y008065D01*
X008742Y008058D01*
X008692Y008055D01*
X008643Y008056D01*
X008593Y008061D01*
X008544Y008070D01*
X008496Y008083D01*
X008449Y008099D01*
X008404Y008119D01*
X008360Y008143D01*
X008319Y008170D01*
X008279Y008200D01*
X008242Y008234D01*
X008208Y008270D01*
X008177Y008309D01*
X008149Y008350D01*
X008125Y008393D01*
X008104Y008438D01*
X008086Y008485D01*
X008073Y008532D01*
X008063Y008581D01*
X008057Y008630D01*
X008055Y008680D01*
D11*
X008680Y003805D03*
D12*
X008680Y004805D03*
X008680Y005805D03*
X008680Y006805D03*
X001930Y006805D03*
X001930Y007805D03*
X001930Y005805D03*
X001930Y004805D03*
X001930Y003805D03*
D13*
X005705Y003055D03*
X005705Y002655D03*
X005705Y002255D03*
X006605Y002255D03*
X006605Y002655D03*
X006605Y003055D03*
D14*
X006055Y004988D03*
X005555Y004988D03*
X005055Y004988D03*
X004555Y004988D03*
X004555Y007114D03*
X005055Y007114D03*
X005555Y007114D03*
X006055Y007114D03*
D15*
X007055Y008305D03*
X007055Y009305D03*
D16*
X007055Y006390D03*
X007055Y005720D03*
X004180Y002640D03*
X004180Y001970D03*
D17*
X004228Y001948D02*
X006460Y001948D01*
X006460Y001990D02*
X006460Y001521D01*
X006339Y001400D01*
X003896Y001400D01*
X003775Y001521D01*
X003775Y001570D01*
X003815Y001547D01*
X003861Y001534D01*
X004132Y001534D01*
X004132Y001922D01*
X004228Y001922D01*
X004228Y001534D01*
X004499Y001534D01*
X004545Y001547D01*
X004586Y001570D01*
X004619Y001604D01*
X004643Y001645D01*
X004655Y001691D01*
X004655Y001922D01*
X004228Y001922D01*
X004228Y002018D01*
X004655Y002018D01*
X004655Y002250D01*
X004643Y002296D01*
X004619Y002337D01*
X004615Y002341D01*
X004615Y002862D01*
X004710Y002862D01*
X004710Y002464D01*
X005139Y002035D01*
X005352Y002035D01*
X005397Y001990D01*
X006013Y001990D01*
X006095Y002072D01*
X006095Y002415D01*
X006099Y002419D01*
X006123Y002461D01*
X006135Y002506D01*
X006135Y002655D01*
X006135Y002804D01*
X006123Y002849D01*
X006099Y002891D01*
X006095Y002895D01*
X006095Y003204D01*
X006215Y003084D01*
X006215Y002872D01*
X006232Y002855D01*
X006215Y002838D01*
X006215Y002472D01*
X006232Y002455D01*
X006215Y002438D01*
X006215Y002072D01*
X006297Y001990D01*
X006460Y001990D01*
X006460Y001790D02*
X004655Y001790D01*
X004635Y001631D02*
X006460Y001631D01*
X006411Y001473D02*
X003824Y001473D01*
X003555Y001430D02*
X003805Y001180D01*
X006430Y001180D01*
X006680Y001430D01*
X006680Y002180D01*
X006605Y002255D01*
X007255Y002255D01*
X007805Y002805D01*
X007805Y004430D01*
X008180Y004805D01*
X008680Y004805D01*
X008180Y005305D01*
X008180Y005430D01*
X007805Y005805D01*
X007140Y005805D01*
X007055Y005720D01*
X006970Y005595D01*
X007055Y005680D01*
X007055Y005720D02*
X006448Y004988D01*
X006055Y004988D01*
X006313Y005208D02*
X006313Y005351D01*
X006231Y005433D01*
X005879Y005433D01*
X005805Y005359D01*
X005775Y005389D01*
X005775Y005646D01*
X005646Y005775D01*
X005396Y006025D01*
X005214Y006025D01*
X004646Y006025D01*
X002646Y008025D01*
X002391Y008025D01*
X002362Y008094D01*
X002219Y008237D01*
X002031Y008315D01*
X001829Y008315D01*
X001641Y008237D01*
X001498Y008094D01*
X001420Y007906D01*
X001420Y007704D01*
X001498Y007516D01*
X001641Y007373D01*
X001804Y007305D01*
X001641Y007237D01*
X001498Y007094D01*
X001420Y006906D01*
X001420Y006704D01*
X001498Y006516D01*
X001641Y006373D01*
X001804Y006305D01*
X001641Y006237D01*
X001498Y006094D01*
X001420Y005906D01*
X001420Y005704D01*
X001498Y005516D01*
X001641Y005373D01*
X001804Y005305D01*
X001641Y005237D01*
X001498Y005094D01*
X001420Y004906D01*
X001420Y004704D01*
X001498Y004516D01*
X001641Y004373D01*
X001754Y004326D01*
X001719Y004315D01*
X001642Y004275D01*
X001572Y004225D01*
X001510Y004163D01*
X001460Y004093D01*
X001420Y004016D01*
X001394Y003934D01*
X001380Y003848D01*
X001380Y003825D01*
X001910Y003825D01*
X001910Y003785D01*
X001950Y003785D01*
X001950Y003825D01*
X002480Y003825D01*
X002480Y003848D01*
X002466Y003934D01*
X002455Y003969D01*
X003619Y002805D01*
X003464Y002650D01*
X003335Y002521D01*
X003335Y001339D01*
X003585Y001089D01*
X003714Y000960D01*
X006521Y000960D01*
X006771Y001210D01*
X006900Y001339D01*
X006900Y001990D01*
X006913Y001990D01*
X006958Y002035D01*
X007346Y002035D01*
X007695Y002384D01*
X007674Y002347D01*
X007600Y002072D01*
X007600Y001788D01*
X007674Y001513D01*
X007816Y001267D01*
X008017Y001066D01*
X008263Y000924D01*
X008500Y000860D01*
X002109Y000860D01*
X002347Y000924D01*
X002593Y001066D01*
X002794Y001267D01*
X002936Y001513D01*
X003010Y001788D01*
X003010Y002072D01*
X002936Y002347D01*
X002794Y002593D01*
X002593Y002794D01*
X002347Y002936D01*
X002072Y003010D01*
X001788Y003010D01*
X001513Y002936D01*
X001267Y002794D01*
X001066Y002593D01*
X000924Y002347D01*
X000860Y002109D01*
X000860Y008680D01*
X000869Y008820D01*
X000941Y009089D01*
X001081Y009331D01*
X001279Y009529D01*
X001521Y009669D01*
X001790Y009741D01*
X001930Y009750D01*
X008470Y009750D01*
X008260Y009694D01*
X008012Y009550D01*
X007810Y009348D01*
X007666Y009100D01*
X007592Y008823D01*
X007592Y008537D01*
X007666Y008260D01*
X007810Y008012D01*
X008012Y007810D01*
X008260Y007666D01*
X008537Y007592D01*
X008823Y007592D01*
X009100Y007666D01*
X009348Y007810D01*
X009550Y008012D01*
X009694Y008260D01*
X009750Y008470D01*
X009750Y002109D01*
X009686Y002347D01*
X009544Y002593D01*
X009343Y002794D01*
X009097Y002936D01*
X008822Y003010D01*
X008538Y003010D01*
X008263Y002936D01*
X008025Y002799D01*
X008025Y004339D01*
X008234Y004548D01*
X008248Y004516D01*
X008391Y004373D01*
X008434Y004355D01*
X008286Y004355D01*
X008241Y004343D01*
X008199Y004319D01*
X008166Y004286D01*
X008142Y004244D01*
X008130Y004199D01*
X008130Y003825D01*
X008660Y003825D01*
X008660Y003785D01*
X008700Y003785D01*
X008700Y003825D01*
X009230Y003825D01*
X009230Y004199D01*
X009218Y004244D01*
X009194Y004286D01*
X009161Y004319D01*
X009119Y004343D01*
X009074Y004355D01*
X008926Y004355D01*
X008969Y004373D01*
X009112Y004516D01*
X009190Y004704D01*
X009190Y004906D01*
X009112Y005094D01*
X008969Y005237D01*
X008806Y005305D01*
X008969Y005373D01*
X009112Y005516D01*
X009190Y005704D01*
X009190Y005906D01*
X009112Y006094D01*
X008969Y006237D01*
X008806Y006305D01*
X008969Y006373D01*
X009112Y006516D01*
X009190Y006704D01*
X009190Y006906D01*
X009112Y007094D01*
X008969Y007237D01*
X008781Y007315D01*
X008579Y007315D01*
X008391Y007237D01*
X008248Y007094D01*
X008170Y006906D01*
X008170Y006704D01*
X008248Y006516D01*
X008391Y006373D01*
X008554Y006305D01*
X008391Y006237D01*
X008248Y006094D01*
X008170Y005906D01*
X008170Y005751D01*
X008025Y005896D01*
X007896Y006025D01*
X007495Y006025D01*
X007518Y006064D01*
X007530Y006110D01*
X007530Y006342D01*
X007103Y006342D01*
X007103Y006438D01*
X007007Y006438D01*
X007007Y006826D01*
X006736Y006826D01*
X006690Y006813D01*
X006649Y006790D01*
X006616Y006756D01*
X006592Y006715D01*
X006580Y006669D01*
X006580Y006438D01*
X007007Y006438D01*
X007007Y006342D01*
X006580Y006342D01*
X006580Y006110D01*
X006592Y006064D01*
X006616Y006023D01*
X006620Y006019D01*
X006620Y005540D01*
X006344Y005208D01*
X006313Y005208D01*
X006313Y005277D02*
X006401Y005277D01*
X006533Y005435D02*
X005775Y005435D01*
X005775Y005594D02*
X006620Y005594D01*
X006620Y005752D02*
X005669Y005752D01*
X005511Y005911D02*
X006620Y005911D01*
X006591Y006069D02*
X004602Y006069D01*
X004444Y006228D02*
X006580Y006228D01*
X006580Y006545D02*
X004127Y006545D01*
X003968Y006703D02*
X004290Y006703D01*
X004293Y006698D02*
X004326Y006665D01*
X004367Y006641D01*
X004413Y006629D01*
X004555Y006629D01*
X004697Y006629D01*
X004743Y006641D01*
X004784Y006665D01*
X004817Y006698D01*
X004829Y006719D01*
X004879Y006669D01*
X005231Y006669D01*
X005305Y006743D01*
X005379Y006669D01*
X005731Y006669D01*
X005805Y006743D01*
X005879Y006669D01*
X006231Y006669D01*
X006313Y006751D01*
X006313Y007252D01*
X006990Y007929D01*
X007130Y007929D01*
X007268Y007986D01*
X007374Y008092D01*
X007431Y008230D01*
X007431Y008380D01*
X007374Y008518D01*
X007268Y008624D01*
X007130Y008681D01*
X006980Y008681D01*
X006842Y008624D01*
X006736Y008518D01*
X006679Y008380D01*
X006679Y008240D01*
X005998Y007559D01*
X005879Y007559D01*
X005805Y007485D01*
X005775Y007515D01*
X005775Y007714D01*
X006990Y008929D01*
X007130Y008929D01*
X007268Y008986D01*
X007374Y009092D01*
X007431Y009230D01*
X007431Y009380D01*
X007374Y009518D01*
X007268Y009624D01*
X007130Y009681D01*
X006980Y009681D01*
X006842Y009624D01*
X006736Y009518D01*
X006679Y009380D01*
X006679Y009240D01*
X005464Y008025D01*
X005335Y007896D01*
X005335Y007515D01*
X005305Y007485D01*
X005275Y007515D01*
X005275Y007896D01*
X005123Y008048D01*
X005123Y008291D01*
X005041Y008373D01*
X004569Y008373D01*
X004487Y008291D01*
X004487Y007819D01*
X004569Y007737D01*
X004812Y007737D01*
X004835Y007714D01*
X004835Y007515D01*
X004829Y007509D01*
X004817Y007530D01*
X004784Y007563D01*
X004743Y007587D01*
X004697Y007599D01*
X004555Y007599D01*
X004413Y007599D01*
X004367Y007587D01*
X004326Y007563D01*
X004293Y007530D01*
X004269Y007489D01*
X004257Y007443D01*
X004257Y007114D01*
X004257Y006785D01*
X004269Y006739D01*
X004293Y006698D01*
X004257Y006862D02*
X003810Y006862D01*
X003651Y007020D02*
X004257Y007020D01*
X004257Y007114D02*
X004555Y007114D01*
X004555Y006629D01*
X004555Y007114D01*
X004555Y007114D01*
X004555Y007114D01*
X004496Y007180D01*
X003930Y007180D01*
X004257Y007179D02*
X003493Y007179D01*
X003334Y007337D02*
X004257Y007337D01*
X004273Y007496D02*
X003176Y007496D01*
X003017Y007654D02*
X004835Y007654D01*
X005055Y007805D02*
X004805Y008055D01*
X005055Y007805D02*
X005055Y007114D01*
X005295Y007496D02*
X005315Y007496D01*
X005335Y007654D02*
X005275Y007654D01*
X005275Y007813D02*
X005335Y007813D01*
X005410Y007971D02*
X005200Y007971D01*
X005123Y008130D02*
X005568Y008130D01*
X005727Y008288D02*
X005123Y008288D01*
X005555Y007805D02*
X005555Y007114D01*
X005795Y007496D02*
X005815Y007496D01*
X005775Y007654D02*
X006093Y007654D01*
X006251Y007813D02*
X005874Y007813D01*
X006032Y007971D02*
X006410Y007971D01*
X006568Y008130D02*
X006191Y008130D01*
X006349Y008288D02*
X006679Y008288D01*
X006706Y008447D02*
X006508Y008447D01*
X006666Y008605D02*
X006823Y008605D01*
X006825Y008764D02*
X007592Y008764D01*
X007592Y008605D02*
X007287Y008605D01*
X007404Y008447D02*
X007616Y008447D01*
X007659Y008288D02*
X007431Y008288D01*
X007390Y008130D02*
X007742Y008130D01*
X007851Y007971D02*
X007232Y007971D01*
X007055Y008305D02*
X006055Y007305D01*
X006055Y007114D01*
X006313Y007179D02*
X008332Y007179D01*
X008217Y007020D02*
X006313Y007020D01*
X006313Y006862D02*
X008170Y006862D01*
X008170Y006703D02*
X007521Y006703D01*
X007518Y006715D02*
X007494Y006756D01*
X007461Y006790D01*
X007420Y006813D01*
X007374Y006826D01*
X007103Y006826D01*
X007103Y006438D01*
X007530Y006438D01*
X007530Y006669D01*
X007518Y006715D01*
X007530Y006545D02*
X008236Y006545D01*
X008378Y006386D02*
X007103Y006386D01*
X007055Y006390D02*
X007055Y007305D01*
X006715Y007654D02*
X008306Y007654D01*
X008009Y007813D02*
X006874Y007813D01*
X006557Y007496D02*
X009750Y007496D01*
X009750Y007337D02*
X006398Y007337D01*
X006265Y006703D02*
X006589Y006703D01*
X007007Y006703D02*
X007103Y006703D01*
X007103Y006545D02*
X007007Y006545D01*
X007007Y006386D02*
X004285Y006386D01*
X004555Y006680D02*
X004555Y007114D01*
X004257Y007114D01*
X004555Y007114D02*
X004555Y007599D01*
X004555Y007114D01*
X004555Y007114D01*
X004555Y007179D02*
X004555Y007179D01*
X004555Y007020D02*
X004555Y007020D01*
X004555Y006862D02*
X004555Y006862D01*
X004555Y006703D02*
X004555Y006703D01*
X004555Y006680D02*
X004845Y006390D01*
X007055Y006390D01*
X007530Y006228D02*
X008381Y006228D01*
X008237Y006069D02*
X007519Y006069D01*
X008011Y005911D02*
X008172Y005911D01*
X008169Y005752D02*
X008170Y005752D01*
X007743Y005243D02*
X007305Y004805D01*
X007055Y004805D01*
X006555Y004305D01*
X005305Y004305D01*
X005055Y004555D01*
X005055Y004988D01*
X004622Y004988D02*
X004555Y004988D01*
X004555Y004243D01*
X004493Y004118D01*
X004180Y003618D02*
X004868Y003618D01*
X005055Y003805D01*
X005055Y003705D01*
X005705Y003055D01*
X005705Y002790D02*
X005705Y002655D01*
X006135Y002655D01*
X005705Y002655D01*
X005705Y002655D01*
X005705Y002655D01*
X005705Y002790D01*
X005705Y002790D01*
X005705Y002741D02*
X005705Y002741D01*
X005705Y002655D02*
X005705Y002655D01*
X005275Y002655D01*
X005275Y002804D01*
X005287Y002849D01*
X005311Y002891D01*
X005315Y002895D01*
X005315Y003134D01*
X005123Y003326D01*
X005123Y003173D01*
X005150Y003146D01*
X005150Y002964D01*
X005150Y002646D01*
X005275Y002521D01*
X005275Y002655D01*
X005705Y002655D01*
X005705Y002520D01*
X005705Y002520D01*
X005705Y002655D01*
X005705Y002655D01*
X005705Y002582D02*
X005705Y002582D01*
X005705Y002255D02*
X005230Y002255D01*
X004930Y002555D01*
X004930Y003055D01*
X004805Y003180D01*
X005123Y003216D02*
X005233Y003216D01*
X005150Y003058D02*
X005315Y003058D01*
X005315Y002899D02*
X005150Y002899D01*
X005150Y002741D02*
X005275Y002741D01*
X005275Y002582D02*
X005214Y002582D01*
X004909Y002265D02*
X004651Y002265D01*
X004615Y002424D02*
X004750Y002424D01*
X004710Y002582D02*
X004615Y002582D01*
X004615Y002741D02*
X004710Y002741D01*
X004180Y002640D02*
X003765Y002640D01*
X003555Y002430D01*
X003555Y001430D01*
X003335Y001473D02*
X002913Y001473D01*
X002821Y001314D02*
X003360Y001314D01*
X003518Y001156D02*
X002683Y001156D01*
X002474Y000997D02*
X003677Y000997D01*
X003335Y001631D02*
X002968Y001631D01*
X003010Y001790D02*
X003335Y001790D01*
X003335Y001948D02*
X003010Y001948D01*
X003001Y002107D02*
X003335Y002107D01*
X003335Y002265D02*
X002958Y002265D01*
X002892Y002424D02*
X003335Y002424D01*
X003396Y002582D02*
X002801Y002582D01*
X002647Y002741D02*
X003554Y002741D01*
X003525Y002899D02*
X002412Y002899D01*
X002141Y003295D02*
X002059Y003269D01*
X001973Y003255D01*
X001950Y003255D01*
X001950Y003785D01*
X002480Y003785D01*
X002480Y003762D01*
X002466Y003676D01*
X002440Y003594D01*
X002400Y003517D01*
X002350Y003447D01*
X002288Y003385D01*
X002218Y003335D01*
X002141Y003295D01*
X002273Y003375D02*
X003049Y003375D01*
X002891Y003533D02*
X002409Y003533D01*
X002469Y003692D02*
X002732Y003692D01*
X002574Y003850D02*
X002480Y003850D01*
X001950Y003692D02*
X001910Y003692D01*
X001910Y003785D02*
X001910Y003255D01*
X001887Y003255D01*
X001801Y003269D01*
X001719Y003295D01*
X001642Y003335D01*
X001572Y003385D01*
X001510Y003447D01*
X001460Y003517D01*
X001420Y003594D01*
X001394Y003676D01*
X001380Y003762D01*
X001380Y003785D01*
X001910Y003785D01*
X001910Y003533D02*
X001950Y003533D01*
X001950Y003375D02*
X001910Y003375D01*
X001587Y003375D02*
X000860Y003375D01*
X000860Y003216D02*
X003208Y003216D01*
X003366Y003058D02*
X000860Y003058D01*
X000860Y002899D02*
X001448Y002899D01*
X001213Y002741D02*
X000860Y002741D01*
X000860Y002582D02*
X001059Y002582D01*
X000968Y002424D02*
X000860Y002424D01*
X000860Y002265D02*
X000902Y002265D01*
X000860Y003533D02*
X001451Y003533D01*
X001391Y003692D02*
X000860Y003692D01*
X000860Y003850D02*
X001380Y003850D01*
X001418Y004009D02*
X000860Y004009D01*
X000860Y004167D02*
X001514Y004167D01*
X001752Y004326D02*
X000860Y004326D01*
X000860Y004484D02*
X001530Y004484D01*
X001445Y004643D02*
X000860Y004643D01*
X000860Y004801D02*
X001420Y004801D01*
X001442Y004960D02*
X000860Y004960D01*
X000860Y005118D02*
X001522Y005118D01*
X001736Y005277D02*
X000860Y005277D01*
X000860Y005435D02*
X001579Y005435D01*
X001466Y005594D02*
X000860Y005594D01*
X000860Y005752D02*
X001420Y005752D01*
X001422Y005911D02*
X000860Y005911D01*
X000860Y006069D02*
X001487Y006069D01*
X001631Y006228D02*
X000860Y006228D01*
X000860Y006386D02*
X001628Y006386D01*
X001486Y006545D02*
X000860Y006545D01*
X000860Y006703D02*
X001420Y006703D01*
X001420Y006862D02*
X000860Y006862D01*
X000860Y007020D02*
X001467Y007020D01*
X001582Y007179D02*
X000860Y007179D01*
X000860Y007337D02*
X001727Y007337D01*
X001518Y007496D02*
X000860Y007496D01*
X000860Y007654D02*
X001441Y007654D01*
X001420Y007813D02*
X000860Y007813D01*
X000860Y007971D02*
X001447Y007971D01*
X001533Y008130D02*
X000860Y008130D01*
X000860Y008288D02*
X001763Y008288D01*
X002097Y008288D02*
X004487Y008288D01*
X004487Y008130D02*
X002327Y008130D01*
X002555Y007805D02*
X001930Y007805D01*
X002555Y007805D02*
X004555Y005805D01*
X005305Y005805D01*
X005555Y005555D01*
X005555Y005055D01*
X005555Y004988D01*
X005055Y004555D02*
X005055Y003805D01*
X005805Y003805D02*
X006555Y003055D01*
X006605Y003055D01*
X006605Y002655D02*
X007030Y002655D01*
X007305Y002930D01*
X007305Y004243D01*
X008025Y004167D02*
X008130Y004167D01*
X008211Y004326D02*
X008025Y004326D01*
X008170Y004484D02*
X008280Y004484D01*
X008130Y004009D02*
X008025Y004009D01*
X008025Y003850D02*
X008130Y003850D01*
X008130Y003785D02*
X008130Y003411D01*
X008142Y003366D01*
X008166Y003324D01*
X008199Y003291D01*
X008241Y003267D01*
X008286Y003255D01*
X008660Y003255D01*
X008660Y003785D01*
X008130Y003785D01*
X008130Y003692D02*
X008025Y003692D01*
X008025Y003533D02*
X008130Y003533D01*
X008140Y003375D02*
X008025Y003375D01*
X008025Y003216D02*
X009750Y003216D01*
X009750Y003375D02*
X009220Y003375D01*
X009218Y003366D02*
X009230Y003411D01*
X009230Y003785D01*
X008700Y003785D01*
X008700Y003255D01*
X009074Y003255D01*
X009119Y003267D01*
X009161Y003291D01*
X009194Y003324D01*
X009218Y003366D01*
X009230Y003533D02*
X009750Y003533D01*
X009750Y003692D02*
X009230Y003692D01*
X009230Y003850D02*
X009750Y003850D01*
X009750Y004009D02*
X009230Y004009D01*
X009230Y004167D02*
X009750Y004167D01*
X009750Y004326D02*
X009149Y004326D01*
X009080Y004484D02*
X009750Y004484D01*
X009750Y004643D02*
X009165Y004643D01*
X009190Y004801D02*
X009750Y004801D01*
X009750Y004960D02*
X009168Y004960D01*
X009088Y005118D02*
X009750Y005118D01*
X009750Y005277D02*
X008874Y005277D01*
X009031Y005435D02*
X009750Y005435D01*
X009750Y005594D02*
X009144Y005594D01*
X009190Y005752D02*
X009750Y005752D01*
X009750Y005911D02*
X009188Y005911D01*
X009123Y006069D02*
X009750Y006069D01*
X009750Y006228D02*
X008979Y006228D01*
X008982Y006386D02*
X009750Y006386D01*
X009750Y006545D02*
X009124Y006545D01*
X009190Y006703D02*
X009750Y006703D01*
X009750Y006862D02*
X009190Y006862D01*
X009143Y007020D02*
X009750Y007020D01*
X009750Y007179D02*
X009028Y007179D01*
X009054Y007654D02*
X009750Y007654D01*
X009750Y007813D02*
X009351Y007813D01*
X009509Y007971D02*
X009750Y007971D01*
X009750Y008130D02*
X009618Y008130D01*
X009701Y008288D02*
X009750Y008288D01*
X009744Y008447D02*
X009750Y008447D01*
X008338Y009715D02*
X001692Y009715D01*
X001326Y009556D02*
X006774Y009556D01*
X006686Y009398D02*
X001147Y009398D01*
X001028Y009239D02*
X006678Y009239D01*
X006519Y009081D02*
X000939Y009081D01*
X000897Y008922D02*
X006361Y008922D01*
X006202Y008764D02*
X000865Y008764D01*
X000860Y008605D02*
X006044Y008605D01*
X005885Y008447D02*
X000860Y008447D01*
X001930Y006805D02*
X002805Y006805D01*
X004622Y004988D01*
X003930Y004930D02*
X003055Y005805D01*
X001930Y005805D01*
X001930Y004805D02*
X004095Y002640D01*
X004180Y002640D01*
X004655Y002107D02*
X005067Y002107D01*
X004228Y001790D02*
X004132Y001790D01*
X004132Y001631D02*
X004228Y001631D01*
X006095Y002107D02*
X006215Y002107D01*
X006215Y002265D02*
X006095Y002265D01*
X006101Y002424D02*
X006215Y002424D01*
X006215Y002582D02*
X006135Y002582D01*
X006135Y002741D02*
X006215Y002741D01*
X006215Y002899D02*
X006095Y002899D01*
X006095Y003058D02*
X006215Y003058D01*
X006900Y001948D02*
X007600Y001948D01*
X007609Y002107D02*
X007418Y002107D01*
X007576Y002265D02*
X007652Y002265D01*
X007600Y001790D02*
X006900Y001790D01*
X006900Y001631D02*
X007642Y001631D01*
X007697Y001473D02*
X006900Y001473D01*
X006875Y001314D02*
X007789Y001314D01*
X007927Y001156D02*
X006717Y001156D01*
X006558Y000997D02*
X008136Y000997D01*
X009642Y002424D02*
X009750Y002424D01*
X009750Y002265D02*
X009708Y002265D01*
X009750Y002582D02*
X009551Y002582D01*
X009397Y002741D02*
X009750Y002741D01*
X009750Y002899D02*
X009162Y002899D01*
X009750Y003058D02*
X008025Y003058D01*
X008025Y002899D02*
X008198Y002899D01*
X008660Y003375D02*
X008700Y003375D01*
X008700Y003533D02*
X008660Y003533D01*
X008660Y003692D02*
X008700Y003692D01*
X005845Y006703D02*
X005765Y006703D01*
X005345Y006703D02*
X005265Y006703D01*
X004845Y006703D02*
X004820Y006703D01*
X004555Y007337D02*
X004555Y007337D01*
X004555Y007496D02*
X004555Y007496D01*
X004493Y007813D02*
X002859Y007813D01*
X002700Y007971D02*
X004487Y007971D01*
X005555Y007805D02*
X007055Y009305D01*
X007336Y009556D02*
X008022Y009556D01*
X007859Y009398D02*
X007424Y009398D01*
X007431Y009239D02*
X007747Y009239D01*
X007661Y009081D02*
X007363Y009081D01*
X007619Y008922D02*
X006983Y008922D01*
X003930Y004930D02*
X003930Y003868D01*
X004180Y003618D01*
D18*
X004493Y004118D03*
X004805Y003180D03*
X005805Y003805D03*
X007305Y004243D03*
X007743Y005243D03*
X007055Y007305D03*
X004805Y008055D03*
X003930Y007180D03*
X001930Y008805D03*
X005555Y001618D03*
M02*
