%
M48
M72
T01C0.0236
T02C0.0315
T03C0.0400
T04C0.1250
%
T01
X4493Y4118
X4805Y3180
X5805Y3805
X7305Y4243
X7743Y5243
X7055Y7305
X4805Y8055
X3930Y7180
X1930Y8805
X5555Y1618
T02
X7055Y8305
X7055Y9305
T03
X8680Y6805
X8680Y5805
X8680Y4805
X8680Y3805
X1930Y3805
X1930Y4805
X1930Y5805
X1930Y6805
X1930Y7805
T04
X1930Y1930
X8680Y1930
X8680Y8680
M30
