G75*
G70*
%OFA0B0*%
%FSLAX24Y24*%
%IPPOS*%
%LPD*%
%AMOC8*
5,1,8,0,0,1.08239X$1,22.5*
%
%ADD10C,0.0000*%
%ADD11C,0.0060*%
%ADD12C,0.0120*%
%ADD13C,0.0080*%
%ADD14C,0.0050*%
%ADD15R,0.0100X0.0200*%
%ADD16C,0.0100*%
%ADD17C,0.0025*%
D10*
X000680Y001930D02*
X000680Y008680D01*
X000682Y008748D01*
X000687Y008815D01*
X000696Y008882D01*
X000709Y008949D01*
X000726Y009014D01*
X000745Y009079D01*
X000769Y009143D01*
X000796Y009205D01*
X000826Y009266D01*
X000859Y009324D01*
X000895Y009381D01*
X000935Y009436D01*
X000977Y009489D01*
X001023Y009540D01*
X001070Y009587D01*
X001121Y009633D01*
X001174Y009675D01*
X001229Y009715D01*
X001286Y009751D01*
X001344Y009784D01*
X001405Y009814D01*
X001467Y009841D01*
X001531Y009865D01*
X001596Y009884D01*
X001661Y009901D01*
X001728Y009914D01*
X001795Y009923D01*
X001862Y009928D01*
X001930Y009930D01*
X008680Y009930D01*
X008748Y009928D01*
X008815Y009923D01*
X008882Y009914D01*
X008949Y009901D01*
X009014Y009884D01*
X009079Y009865D01*
X009143Y009841D01*
X009205Y009814D01*
X009266Y009784D01*
X009324Y009751D01*
X009381Y009715D01*
X009436Y009675D01*
X009489Y009633D01*
X009540Y009587D01*
X009587Y009540D01*
X009633Y009489D01*
X009675Y009436D01*
X009715Y009381D01*
X009751Y009324D01*
X009784Y009266D01*
X009814Y009205D01*
X009841Y009143D01*
X009865Y009079D01*
X009884Y009014D01*
X009901Y008949D01*
X009914Y008882D01*
X009923Y008815D01*
X009928Y008748D01*
X009930Y008680D01*
X009930Y001930D01*
X009928Y001862D01*
X009923Y001795D01*
X009914Y001728D01*
X009901Y001661D01*
X009884Y001596D01*
X009865Y001531D01*
X009841Y001467D01*
X009814Y001405D01*
X009784Y001344D01*
X009751Y001286D01*
X009715Y001229D01*
X009675Y001174D01*
X009633Y001121D01*
X009587Y001070D01*
X009540Y001023D01*
X009489Y000977D01*
X009436Y000935D01*
X009381Y000895D01*
X009324Y000859D01*
X009266Y000826D01*
X009205Y000796D01*
X009143Y000769D01*
X009079Y000745D01*
X009014Y000726D01*
X008949Y000709D01*
X008882Y000696D01*
X008815Y000687D01*
X008748Y000682D01*
X008680Y000680D01*
X001930Y000680D01*
X001862Y000682D01*
X001795Y000687D01*
X001728Y000696D01*
X001661Y000709D01*
X001596Y000726D01*
X001531Y000745D01*
X001467Y000769D01*
X001405Y000796D01*
X001344Y000826D01*
X001286Y000859D01*
X001229Y000895D01*
X001174Y000935D01*
X001121Y000977D01*
X001070Y001023D01*
X001023Y001070D01*
X000977Y001121D01*
X000935Y001174D01*
X000895Y001229D01*
X000859Y001286D01*
X000826Y001344D01*
X000796Y001405D01*
X000769Y001467D01*
X000745Y001531D01*
X000726Y001596D01*
X000709Y001661D01*
X000696Y001728D01*
X000687Y001795D01*
X000682Y001862D01*
X000680Y001930D01*
X001305Y001930D02*
X001307Y001980D01*
X001313Y002029D01*
X001323Y002078D01*
X001336Y002125D01*
X001354Y002172D01*
X001375Y002217D01*
X001399Y002260D01*
X001427Y002301D01*
X001458Y002340D01*
X001492Y002376D01*
X001529Y002410D01*
X001569Y002440D01*
X001610Y002467D01*
X001654Y002491D01*
X001699Y002511D01*
X001746Y002527D01*
X001794Y002540D01*
X001843Y002549D01*
X001893Y002554D01*
X001942Y002555D01*
X001992Y002552D01*
X002041Y002545D01*
X002090Y002534D01*
X002137Y002520D01*
X002183Y002501D01*
X002228Y002479D01*
X002271Y002454D01*
X002311Y002425D01*
X002349Y002393D01*
X002385Y002359D01*
X002418Y002321D01*
X002447Y002281D01*
X002473Y002239D01*
X002496Y002195D01*
X002515Y002149D01*
X002531Y002102D01*
X002543Y002053D01*
X002551Y002004D01*
X002555Y001955D01*
X002555Y001905D01*
X002551Y001856D01*
X002543Y001807D01*
X002531Y001758D01*
X002515Y001711D01*
X002496Y001665D01*
X002473Y001621D01*
X002447Y001579D01*
X002418Y001539D01*
X002385Y001501D01*
X002349Y001467D01*
X002311Y001435D01*
X002271Y001406D01*
X002228Y001381D01*
X002183Y001359D01*
X002137Y001340D01*
X002090Y001326D01*
X002041Y001315D01*
X001992Y001308D01*
X001942Y001305D01*
X001893Y001306D01*
X001843Y001311D01*
X001794Y001320D01*
X001746Y001333D01*
X001699Y001349D01*
X001654Y001369D01*
X001610Y001393D01*
X001569Y001420D01*
X001529Y001450D01*
X001492Y001484D01*
X001458Y001520D01*
X001427Y001559D01*
X001399Y001600D01*
X001375Y001643D01*
X001354Y001688D01*
X001336Y001735D01*
X001323Y001782D01*
X001313Y001831D01*
X001307Y001880D01*
X001305Y001930D01*
X008055Y001930D02*
X008057Y001980D01*
X008063Y002029D01*
X008073Y002078D01*
X008086Y002125D01*
X008104Y002172D01*
X008125Y002217D01*
X008149Y002260D01*
X008177Y002301D01*
X008208Y002340D01*
X008242Y002376D01*
X008279Y002410D01*
X008319Y002440D01*
X008360Y002467D01*
X008404Y002491D01*
X008449Y002511D01*
X008496Y002527D01*
X008544Y002540D01*
X008593Y002549D01*
X008643Y002554D01*
X008692Y002555D01*
X008742Y002552D01*
X008791Y002545D01*
X008840Y002534D01*
X008887Y002520D01*
X008933Y002501D01*
X008978Y002479D01*
X009021Y002454D01*
X009061Y002425D01*
X009099Y002393D01*
X009135Y002359D01*
X009168Y002321D01*
X009197Y002281D01*
X009223Y002239D01*
X009246Y002195D01*
X009265Y002149D01*
X009281Y002102D01*
X009293Y002053D01*
X009301Y002004D01*
X009305Y001955D01*
X009305Y001905D01*
X009301Y001856D01*
X009293Y001807D01*
X009281Y001758D01*
X009265Y001711D01*
X009246Y001665D01*
X009223Y001621D01*
X009197Y001579D01*
X009168Y001539D01*
X009135Y001501D01*
X009099Y001467D01*
X009061Y001435D01*
X009021Y001406D01*
X008978Y001381D01*
X008933Y001359D01*
X008887Y001340D01*
X008840Y001326D01*
X008791Y001315D01*
X008742Y001308D01*
X008692Y001305D01*
X008643Y001306D01*
X008593Y001311D01*
X008544Y001320D01*
X008496Y001333D01*
X008449Y001349D01*
X008404Y001369D01*
X008360Y001393D01*
X008319Y001420D01*
X008279Y001450D01*
X008242Y001484D01*
X008208Y001520D01*
X008177Y001559D01*
X008149Y001600D01*
X008125Y001643D01*
X008104Y001688D01*
X008086Y001735D01*
X008073Y001782D01*
X008063Y001831D01*
X008057Y001880D01*
X008055Y001930D01*
X008055Y008680D02*
X008057Y008730D01*
X008063Y008779D01*
X008073Y008828D01*
X008086Y008875D01*
X008104Y008922D01*
X008125Y008967D01*
X008149Y009010D01*
X008177Y009051D01*
X008208Y009090D01*
X008242Y009126D01*
X008279Y009160D01*
X008319Y009190D01*
X008360Y009217D01*
X008404Y009241D01*
X008449Y009261D01*
X008496Y009277D01*
X008544Y009290D01*
X008593Y009299D01*
X008643Y009304D01*
X008692Y009305D01*
X008742Y009302D01*
X008791Y009295D01*
X008840Y009284D01*
X008887Y009270D01*
X008933Y009251D01*
X008978Y009229D01*
X009021Y009204D01*
X009061Y009175D01*
X009099Y009143D01*
X009135Y009109D01*
X009168Y009071D01*
X009197Y009031D01*
X009223Y008989D01*
X009246Y008945D01*
X009265Y008899D01*
X009281Y008852D01*
X009293Y008803D01*
X009301Y008754D01*
X009305Y008705D01*
X009305Y008655D01*
X009301Y008606D01*
X009293Y008557D01*
X009281Y008508D01*
X009265Y008461D01*
X009246Y008415D01*
X009223Y008371D01*
X009197Y008329D01*
X009168Y008289D01*
X009135Y008251D01*
X009099Y008217D01*
X009061Y008185D01*
X009021Y008156D01*
X008978Y008131D01*
X008933Y008109D01*
X008887Y008090D01*
X008840Y008076D01*
X008791Y008065D01*
X008742Y008058D01*
X008692Y008055D01*
X008643Y008056D01*
X008593Y008061D01*
X008544Y008070D01*
X008496Y008083D01*
X008449Y008099D01*
X008404Y008119D01*
X008360Y008143D01*
X008319Y008170D01*
X008279Y008200D01*
X008242Y008234D01*
X008208Y008270D01*
X008177Y008309D01*
X008149Y008350D01*
X008125Y008393D01*
X008104Y008438D01*
X008086Y008485D01*
X008073Y008532D01*
X008063Y008581D01*
X008057Y008630D01*
X008055Y008680D01*
D11*
X006681Y008588D02*
X006307Y008588D01*
X006307Y009022D02*
X006681Y009022D01*
X003548Y008050D02*
X003548Y007710D01*
X003435Y007823D01*
X003322Y007710D01*
X003322Y008050D01*
X003180Y007994D02*
X003180Y007767D01*
X003123Y007710D01*
X003010Y007710D01*
X002953Y007767D01*
X002953Y007994D01*
X003010Y008050D01*
X003123Y008050D01*
X003180Y007994D01*
X003067Y007823D02*
X003180Y007710D01*
X002812Y007767D02*
X002755Y007710D01*
X002642Y007710D01*
X002585Y007767D01*
X002642Y007880D02*
X002755Y007880D01*
X002812Y007823D01*
X002812Y007767D01*
X002642Y007880D02*
X002585Y007937D01*
X002585Y007994D01*
X002642Y008050D01*
X002755Y008050D01*
X002812Y007994D01*
X002755Y007050D02*
X002642Y007050D01*
X002585Y006994D01*
X002585Y006937D01*
X002642Y006880D01*
X002755Y006880D01*
X002812Y006823D01*
X002812Y006767D01*
X002755Y006710D01*
X002642Y006710D01*
X002585Y006767D01*
X002812Y006994D02*
X002755Y007050D01*
X002953Y007050D02*
X003123Y007050D01*
X003180Y006994D01*
X003180Y006767D01*
X003123Y006710D01*
X002953Y006710D01*
X002953Y007050D01*
X003322Y006937D02*
X003322Y006710D01*
X003322Y006880D02*
X003548Y006880D01*
X003548Y006937D02*
X003548Y006710D01*
X003548Y006937D02*
X003435Y007050D01*
X003322Y006937D01*
X003322Y005925D02*
X003322Y005585D01*
X003548Y005585D01*
X003180Y005642D02*
X003123Y005585D01*
X003010Y005585D01*
X002953Y005642D01*
X002953Y005869D01*
X003010Y005925D01*
X003123Y005925D01*
X003180Y005869D01*
X002812Y005869D02*
X002755Y005925D01*
X002642Y005925D01*
X002585Y005869D01*
X002585Y005812D01*
X002642Y005755D01*
X002755Y005755D01*
X002812Y005698D01*
X002812Y005642D01*
X002755Y005585D01*
X002642Y005585D01*
X002585Y005642D01*
X002585Y004925D02*
X002585Y004698D01*
X002698Y004585D01*
X002812Y004698D01*
X002812Y004925D01*
X002953Y004869D02*
X002953Y004642D01*
X003010Y004585D01*
X003123Y004585D01*
X003180Y004642D01*
X003322Y004642D02*
X003322Y004869D01*
X003378Y004925D01*
X003492Y004925D01*
X003548Y004869D01*
X003548Y004642D02*
X003492Y004585D01*
X003378Y004585D01*
X003322Y004642D01*
X003180Y004869D02*
X003123Y004925D01*
X003010Y004925D01*
X002953Y004869D01*
X002953Y003925D02*
X003180Y003585D01*
X003180Y003925D01*
X003322Y003925D02*
X003492Y003925D01*
X003548Y003869D01*
X003548Y003642D01*
X003492Y003585D01*
X003322Y003585D01*
X003322Y003925D01*
X002953Y003925D02*
X002953Y003585D01*
X002812Y003642D02*
X002812Y003755D01*
X002698Y003755D01*
X002585Y003642D02*
X002642Y003585D01*
X002755Y003585D01*
X002812Y003642D01*
X002812Y003869D02*
X002755Y003925D01*
X002642Y003925D01*
X002585Y003869D01*
X002585Y003642D01*
X005773Y001925D02*
X005999Y001925D01*
X005886Y001925D02*
X005886Y001585D01*
X005886Y001425D02*
X005886Y001085D01*
X005773Y001085D02*
X005999Y001085D01*
X006141Y001142D02*
X006368Y001369D01*
X006368Y001142D01*
X006311Y001085D01*
X006198Y001085D01*
X006141Y001142D01*
X006141Y001369D01*
X006198Y001425D01*
X006311Y001425D01*
X006368Y001369D01*
X006509Y001369D02*
X006566Y001425D01*
X006679Y001425D01*
X006736Y001369D01*
X006509Y001142D01*
X006566Y001085D01*
X006679Y001085D01*
X006736Y001142D01*
X006736Y001369D01*
X006509Y001369D02*
X006509Y001142D01*
X006509Y001585D02*
X006509Y001925D01*
X006679Y001925D01*
X006736Y001869D01*
X006736Y001755D01*
X006679Y001698D01*
X006509Y001698D01*
X006368Y001585D02*
X006368Y001925D01*
X006254Y001812D01*
X006141Y001925D01*
X006141Y001585D01*
X005886Y001425D02*
X005773Y001312D01*
D12*
X008680Y001055D02*
X008622Y001057D01*
X008563Y001063D01*
X008506Y001073D01*
X008449Y001086D01*
X008393Y001103D01*
X008338Y001124D01*
X008285Y001149D01*
X008234Y001177D01*
X008185Y001209D01*
X008138Y001243D01*
X008093Y001281D01*
X008051Y001322D01*
X008012Y001365D01*
X007976Y001411D01*
X007942Y001459D01*
X007913Y001509D01*
X007886Y001562D01*
X007863Y001616D01*
X007844Y001671D01*
X007829Y001727D01*
X007817Y001784D01*
X007809Y001842D01*
X007805Y001901D01*
X007805Y001959D01*
X007809Y002018D01*
X007817Y002076D01*
X007829Y002133D01*
X007844Y002189D01*
X007863Y002244D01*
X007886Y002298D01*
X007913Y002351D01*
X007942Y002401D01*
X007976Y002449D01*
X008012Y002495D01*
X008051Y002538D01*
X008093Y002579D01*
X008138Y002617D01*
X008185Y002651D01*
X008234Y002683D01*
X008285Y002711D01*
X008338Y002736D01*
X008393Y002757D01*
X008449Y002774D01*
X008506Y002787D01*
X008563Y002797D01*
X008622Y002803D01*
X008680Y002805D01*
X008738Y002803D01*
X008797Y002797D01*
X008854Y002787D01*
X008911Y002774D01*
X008967Y002757D01*
X009022Y002736D01*
X009075Y002711D01*
X009126Y002683D01*
X009175Y002651D01*
X009222Y002617D01*
X009267Y002579D01*
X009309Y002538D01*
X009348Y002495D01*
X009384Y002449D01*
X009418Y002401D01*
X009447Y002351D01*
X009474Y002298D01*
X009497Y002244D01*
X009516Y002189D01*
X009531Y002133D01*
X009543Y002076D01*
X009551Y002018D01*
X009555Y001959D01*
X009555Y001901D01*
X009551Y001842D01*
X009543Y001784D01*
X009531Y001727D01*
X009516Y001671D01*
X009497Y001616D01*
X009474Y001562D01*
X009447Y001509D01*
X009418Y001459D01*
X009384Y001411D01*
X009348Y001365D01*
X009309Y001322D01*
X009267Y001281D01*
X009222Y001243D01*
X009175Y001209D01*
X009126Y001177D01*
X009075Y001149D01*
X009022Y001124D01*
X008967Y001103D01*
X008911Y001086D01*
X008854Y001073D01*
X008797Y001063D01*
X008738Y001057D01*
X008680Y001055D01*
X001930Y001055D02*
X001872Y001057D01*
X001813Y001063D01*
X001756Y001073D01*
X001699Y001086D01*
X001643Y001103D01*
X001588Y001124D01*
X001535Y001149D01*
X001484Y001177D01*
X001435Y001209D01*
X001388Y001243D01*
X001343Y001281D01*
X001301Y001322D01*
X001262Y001365D01*
X001226Y001411D01*
X001192Y001459D01*
X001163Y001509D01*
X001136Y001562D01*
X001113Y001616D01*
X001094Y001671D01*
X001079Y001727D01*
X001067Y001784D01*
X001059Y001842D01*
X001055Y001901D01*
X001055Y001959D01*
X001059Y002018D01*
X001067Y002076D01*
X001079Y002133D01*
X001094Y002189D01*
X001113Y002244D01*
X001136Y002298D01*
X001163Y002351D01*
X001192Y002401D01*
X001226Y002449D01*
X001262Y002495D01*
X001301Y002538D01*
X001343Y002579D01*
X001388Y002617D01*
X001435Y002651D01*
X001484Y002683D01*
X001535Y002711D01*
X001588Y002736D01*
X001643Y002757D01*
X001699Y002774D01*
X001756Y002787D01*
X001813Y002797D01*
X001872Y002803D01*
X001930Y002805D01*
X001988Y002803D01*
X002047Y002797D01*
X002104Y002787D01*
X002161Y002774D01*
X002217Y002757D01*
X002272Y002736D01*
X002325Y002711D01*
X002376Y002683D01*
X002425Y002651D01*
X002472Y002617D01*
X002517Y002579D01*
X002559Y002538D01*
X002598Y002495D01*
X002634Y002449D01*
X002668Y002401D01*
X002697Y002351D01*
X002724Y002298D01*
X002747Y002244D01*
X002766Y002189D01*
X002781Y002133D01*
X002793Y002076D01*
X002801Y002018D01*
X002805Y001959D01*
X002805Y001901D01*
X002801Y001842D01*
X002793Y001784D01*
X002781Y001727D01*
X002766Y001671D01*
X002747Y001616D01*
X002724Y001562D01*
X002697Y001509D01*
X002668Y001459D01*
X002634Y001411D01*
X002598Y001365D01*
X002559Y001322D01*
X002517Y001281D01*
X002472Y001243D01*
X002425Y001209D01*
X002376Y001177D01*
X002325Y001149D01*
X002272Y001124D01*
X002217Y001103D01*
X002161Y001086D01*
X002104Y001073D01*
X002047Y001063D01*
X001988Y001057D01*
X001930Y001055D01*
X008680Y007805D02*
X008622Y007807D01*
X008563Y007813D01*
X008506Y007823D01*
X008449Y007836D01*
X008393Y007853D01*
X008338Y007874D01*
X008285Y007899D01*
X008234Y007927D01*
X008185Y007959D01*
X008138Y007993D01*
X008093Y008031D01*
X008051Y008072D01*
X008012Y008115D01*
X007976Y008161D01*
X007942Y008209D01*
X007913Y008259D01*
X007886Y008312D01*
X007863Y008366D01*
X007844Y008421D01*
X007829Y008477D01*
X007817Y008534D01*
X007809Y008592D01*
X007805Y008651D01*
X007805Y008709D01*
X007809Y008768D01*
X007817Y008826D01*
X007829Y008883D01*
X007844Y008939D01*
X007863Y008994D01*
X007886Y009048D01*
X007913Y009101D01*
X007942Y009151D01*
X007976Y009199D01*
X008012Y009245D01*
X008051Y009288D01*
X008093Y009329D01*
X008138Y009367D01*
X008185Y009401D01*
X008234Y009433D01*
X008285Y009461D01*
X008338Y009486D01*
X008393Y009507D01*
X008449Y009524D01*
X008506Y009537D01*
X008563Y009547D01*
X008622Y009553D01*
X008680Y009555D01*
X008738Y009553D01*
X008797Y009547D01*
X008854Y009537D01*
X008911Y009524D01*
X008967Y009507D01*
X009022Y009486D01*
X009075Y009461D01*
X009126Y009433D01*
X009175Y009401D01*
X009222Y009367D01*
X009267Y009329D01*
X009309Y009288D01*
X009348Y009245D01*
X009384Y009199D01*
X009418Y009151D01*
X009447Y009101D01*
X009474Y009048D01*
X009497Y008994D01*
X009516Y008939D01*
X009531Y008883D01*
X009543Y008826D01*
X009551Y008768D01*
X009555Y008709D01*
X009555Y008651D01*
X009551Y008592D01*
X009543Y008534D01*
X009531Y008477D01*
X009516Y008421D01*
X009497Y008366D01*
X009474Y008312D01*
X009447Y008259D01*
X009418Y008209D01*
X009384Y008161D01*
X009348Y008115D01*
X009309Y008072D01*
X009267Y008031D01*
X009222Y007993D01*
X009175Y007959D01*
X009126Y007927D01*
X009075Y007899D01*
X009022Y007874D01*
X008967Y007853D01*
X008911Y007836D01*
X008854Y007823D01*
X008797Y007813D01*
X008738Y007807D01*
X008680Y007805D01*
D13*
X007990Y006502D02*
X007990Y006222D01*
X007990Y006362D02*
X007570Y006362D01*
X007710Y006222D01*
X007640Y006042D02*
X007570Y005972D01*
X007570Y005832D01*
X007640Y005762D01*
X007920Y005762D01*
X007990Y005832D01*
X007990Y005972D01*
X007920Y006042D01*
X005578Y005868D02*
X005580Y005880D01*
X005586Y005892D01*
X005594Y005900D01*
X005606Y005906D01*
X005618Y005908D01*
X005630Y005906D01*
X005642Y005900D01*
X005650Y005892D01*
X005656Y005880D01*
X005658Y005868D01*
X005656Y005856D01*
X005650Y005844D01*
X005642Y005836D01*
X005630Y005830D01*
X005618Y005828D01*
X005606Y005830D01*
X005594Y005836D01*
X005586Y005844D01*
X005580Y005856D01*
X005578Y005868D01*
X002430Y006055D02*
X002430Y005555D01*
X002180Y005305D01*
X002430Y005055D01*
X002430Y004555D01*
X002180Y004305D01*
X002430Y004055D01*
X002430Y003555D01*
X002180Y003305D01*
X001680Y003305D01*
X001430Y003555D01*
X001430Y004055D01*
X001680Y004305D01*
X001430Y004555D01*
X001430Y005055D01*
X001680Y005305D01*
X001430Y005555D01*
X001430Y006055D01*
X001680Y006305D01*
X001430Y006555D01*
X001430Y007055D01*
X001680Y007305D01*
X001430Y007555D01*
X001430Y008055D01*
X001680Y008305D01*
X002180Y008305D01*
X002430Y008055D01*
X002430Y007555D01*
X002180Y007305D01*
X002430Y007055D01*
X002430Y006555D01*
X002180Y006305D01*
X002430Y006055D01*
X003315Y002640D02*
X003245Y002570D01*
X003245Y002430D01*
X003315Y002360D01*
X003315Y002179D02*
X003245Y002109D01*
X003245Y001969D01*
X003315Y001899D01*
X003595Y001899D01*
X003665Y001969D01*
X003665Y002109D01*
X003595Y002179D01*
X003665Y002360D02*
X003385Y002640D01*
X003315Y002640D01*
X003665Y002640D02*
X003665Y002360D01*
D14*
X005805Y002055D02*
X006505Y002055D01*
X006505Y003255D01*
X005805Y003255D01*
X005805Y002055D01*
X006305Y005305D02*
X004305Y005305D01*
X004305Y006805D01*
X006305Y006805D01*
X006305Y005305D01*
X006004Y005393D02*
X006004Y005443D01*
X006204Y005643D01*
X006204Y005693D01*
X006004Y005693D01*
X005882Y005643D02*
X005682Y005443D01*
X005732Y005393D01*
X005832Y005393D01*
X005882Y005443D01*
X005882Y005643D01*
X005832Y005693D01*
X005732Y005693D01*
X005682Y005643D01*
X005682Y005443D01*
X005559Y005443D02*
X005509Y005393D01*
X005409Y005393D01*
X005359Y005443D01*
X005237Y005393D02*
X005037Y005393D01*
X005137Y005393D02*
X005137Y005693D01*
X005037Y005593D01*
X004915Y005643D02*
X004865Y005693D01*
X004765Y005693D01*
X004715Y005643D01*
X004715Y005593D01*
X004765Y005543D01*
X004865Y005543D01*
X004915Y005493D01*
X004915Y005443D01*
X004865Y005393D01*
X004765Y005393D01*
X004715Y005443D01*
X004593Y005443D02*
X004593Y005643D01*
X004543Y005693D01*
X004393Y005693D01*
X004393Y005393D01*
X004543Y005393D01*
X004593Y005443D01*
X005359Y005643D02*
X005409Y005693D01*
X005509Y005693D01*
X005559Y005643D01*
X005559Y005593D01*
X005509Y005543D01*
X005559Y005493D01*
X005559Y005443D01*
X005509Y005543D02*
X005459Y005543D01*
X006303Y008191D02*
X003130Y008191D01*
X003113Y008192D01*
X003096Y008197D01*
X003081Y008204D01*
X003067Y008214D01*
X003055Y008226D01*
X003045Y008240D01*
X003038Y008255D01*
X003033Y008272D01*
X003032Y008289D01*
X003031Y008289D02*
X003031Y009321D01*
X003032Y009321D02*
X003033Y009338D01*
X003038Y009355D01*
X003045Y009370D01*
X003055Y009384D01*
X003067Y009396D01*
X003081Y009406D01*
X003096Y009413D01*
X003113Y009418D01*
X003130Y009419D01*
X006303Y009419D01*
X006303Y008191D01*
D15*
X005855Y003155D03*
D16*
X005012Y008553D02*
X005012Y009057D01*
X004768Y009057D02*
X004768Y008553D01*
X004571Y008553D01*
X004571Y009057D01*
X004768Y009057D01*
X005039Y008805D02*
X005283Y008805D01*
X004342Y008805D02*
X004342Y008557D01*
X004342Y008805D02*
X004098Y008805D01*
X004342Y008805D02*
X004342Y009053D01*
D17*
X006248Y009352D02*
X006248Y008258D01*
X006250Y008247D01*
X006254Y008237D01*
X006261Y008229D01*
X006271Y008223D01*
X006281Y008219D01*
X006292Y008219D01*
X006248Y009352D02*
X006250Y009363D01*
X006254Y009373D01*
X006262Y009382D01*
X006271Y009388D01*
X006282Y009391D01*
X006293Y009391D01*
M02*
